<svg id="svg" version="1.1" xmlns="http://www.w3.org/2000/svg" xmlns:xlink="http://www.w3.org/1999/xlink" width="400" height="90.49398090493982" viewBox="0, 0, 400,90.49398090493982"><g id="svgg"><path id="path0" d="M45.631 12.956 C 46.115 12.990,46.865 12.990,47.297 12.956 C 47.730 12.921,47.333 12.894,46.417 12.894 C 45.500 12.895,45.146 12.923,45.631 12.956 M75.917 15.167 C 76.275 15.533,76.605 15.833,76.651 15.833 C 76.697 15.833,76.441 15.533,76.083 15.167 C 75.725 14.800,75.395 14.500,75.349 14.500 C 75.303 14.500,75.559 14.800,75.917 15.167 M281.431 21.125 C 281.178 22.569,280.794 24.762,280.578 26.000 C 280.363 27.238,279.951 29.563,279.665 31.167 C 278.951 35.159,277.700 42.217,275.589 54.167 C 274.609 59.712,273.521 65.825,273.171 67.750 C 272.820 69.675,272.568 71.306,272.610 71.375 C 272.652 71.444,275.817 71.500,279.644 71.500 L 286.602 71.500 287.567 66.042 C 290.475 49.602,290.330 50.321,291.019 48.873 C 293.223 44.245,299.211 43.749,300.188 48.113 C 300.402 49.071,300.172 50.521,297.001 68.167 C 296.729 69.679,296.505 71.048,296.503 71.208 C 296.500 71.481,296.939 71.500,303.411 71.500 C 311.114 71.500,310.538 71.592,310.711 70.333 C 311.076 67.689,312.331 60.363,313.781 52.417 C 315.491 43.046,315.129 39.593,312.123 36.595 C 307.967 32.450,299.215 33.456,293.375 38.750 C 292.802 39.270,292.333 39.608,292.333 39.502 C 292.333 39.316,294.238 28.462,295.424 21.893 C 295.741 20.138,296.000 18.657,296.000 18.601 C 296.000 18.546,292.825 18.500,288.945 18.500 L 281.891 18.500 281.431 21.125 M374.194 24.792 C 374.112 24.952,373.948 25.383,373.831 25.750 C 371.952 31.647,368.136 35.333,363.909 35.333 C 363.182 35.333,362.639 35.409,362.570 35.521 C 362.432 35.745,361.002 43.585,361.001 44.125 C 361.000 44.498,361.015 44.500,363.595 44.500 C 365.988 44.500,366.182 44.523,366.101 44.792 C 366.053 44.952,365.860 45.983,365.672 47.083 C 365.295 49.298,364.835 51.874,363.903 57.000 C 362.351 65.531,364.334 69.639,370.902 71.499 C 374.779 72.597,381.940 71.987,385.446 70.261 C 385.497 70.236,387.161 60.772,387.121 60.734 C 387.100 60.715,386.418 60.922,385.605 61.195 C 382.698 62.170,380.063 61.992,378.661 60.725 C 377.640 59.803,377.595 59.382,378.170 56.167 C 378.440 54.654,379.018 51.410,379.454 48.958 L 380.246 44.500 385.123 44.500 C 387.805 44.500,390.000 44.467,390.000 44.428 C 390.000 44.388,390.183 43.357,390.406 42.136 C 391.369 36.867,391.672 34.978,391.579 34.827 C 391.520 34.730,389.597 34.667,386.740 34.667 C 384.133 34.667,382.000 34.604,382.000 34.528 C 382.000 34.392,383.612 25.356,383.737 24.792 C 383.798 24.519,383.490 24.500,379.074 24.500 C 374.739 24.500,374.333 24.524,374.194 24.792 M112.750 34.096 C 112.475 34.134,111.688 34.246,111.000 34.344 C 100.924 35.777,93.532 42.682,91.744 52.333 C 90.982 56.443,91.938 62.126,93.903 65.163 C 101.209 76.457,124.132 73.462,130.096 60.436 C 130.337 59.909,130.508 59.454,130.475 59.425 C 130.443 59.395,127.904 59.099,124.833 58.767 C 121.763 58.434,118.862 58.118,118.387 58.063 L 117.525 57.965 117.182 58.637 C 116.334 60.298,114.083 61.839,111.999 62.185 C 107.792 62.882,105.466 61.026,105.059 56.647 L 104.952 55.500 118.138 55.500 L 131.324 55.500 131.571 54.625 C 133.494 47.803,131.116 40.204,126.033 36.930 C 122.603 34.720,116.931 33.510,112.750 34.096 M155.699 34.167 C 140.873 35.726,131.351 49.225,135.856 62.298 C 140.922 76.996,167.216 74.810,173.672 59.154 C 174.205 57.862,174.288 57.332,173.958 57.335 C 173.844 57.336,170.837 57.030,167.278 56.655 C 163.718 56.279,160.793 55.997,160.778 56.028 C 160.762 56.058,160.526 56.531,160.253 57.077 C 158.645 60.291,154.673 62.031,152.028 60.681 C 147.410 58.325,148.691 48.513,153.965 45.851 C 157.641 43.995,161.259 45.670,161.760 49.458 C 161.872 50.304,161.894 50.333,162.396 50.328 C 163.992 50.311,175.329 49.522,175.501 49.416 C 175.798 49.232,175.564 46.628,175.078 44.714 C 173.182 37.238,165.622 33.124,155.699 34.167 M196.250 34.097 C 195.975 34.137,195.150 34.248,194.417 34.345 C 185.093 35.576,179.583 40.524,179.583 47.667 C 179.583 53.437,182.952 56.030,192.250 57.419 C 198.286 58.320,200.075 59.518,198.619 61.684 C 196.372 65.029,189.192 63.844,189.170 60.125 C 189.166 59.348,189.710 59.359,182.417 59.999 C 179.300 60.272,176.581 60.497,176.375 60.498 C 176.045 60.500,176.000 60.585,176.001 61.208 C 176.014 68.494,183.784 72.950,194.833 72.009 C 205.696 71.084,212.833 65.414,212.833 57.710 C 212.833 52.232,209.139 49.425,199.937 47.912 C 196.822 47.400,195.465 47.065,194.452 46.556 C 191.985 45.316,193.054 43.015,196.343 42.486 C 198.921 42.070,200.795 43.288,201.109 45.583 C 201.194 46.203,201.273 46.333,201.564 46.334 C 203.280 46.339,214.106 45.433,214.206 45.276 C 215.009 44.013,213.621 40.123,211.667 38.161 C 208.738 35.220,201.578 33.333,196.250 34.097 M252.000 34.189 C 242.155 35.197,234.352 41.317,231.941 49.922 C 229.950 57.029,231.391 63.803,235.741 67.788 C 243.449 74.849,259.835 72.992,266.802 64.267 C 268.492 62.150,270.500 58.494,270.500 57.533 C 270.500 57.453,268.531 57.182,266.125 56.930 C 263.719 56.678,260.813 56.365,259.668 56.236 C 258.522 56.106,257.472 56.001,257.334 56.003 C 257.190 56.004,256.909 56.407,256.672 56.955 C 255.410 59.869,251.798 61.732,249.014 60.906 C 243.780 59.351,244.783 48.445,250.403 45.815 C 254.203 44.037,258.167 46.044,258.167 49.746 C 258.167 50.276,258.211 50.333,258.625 50.331 C 259.499 50.326,271.863 49.526,271.903 49.471 C 272.073 49.242,271.607 45.650,271.248 44.417 C 269.082 36.979,261.922 33.174,252.000 34.189 M338.833 34.101 C 331.858 34.964,327.699 36.712,324.467 40.137 C 322.304 42.431,320.568 46.330,321.708 46.335 C 321.915 46.336,324.446 46.485,327.333 46.667 C 334.638 47.125,333.884 47.193,334.308 46.042 C 336.176 40.973,343.387 41.401,342.661 46.538 C 342.476 47.849,343.090 47.605,336.250 49.081 C 325.093 51.487,322.021 52.621,319.332 55.325 C 315.538 59.141,315.224 65.917,318.681 69.375 C 323.007 73.700,333.065 72.721,338.985 67.399 C 339.551 66.890,339.856 66.711,339.903 66.860 C 339.942 66.983,340.097 67.472,340.246 67.946 C 341.515 71.966,347.122 73.246,353.975 71.081 L 355.314 70.658 355.407 69.871 C 355.458 69.438,355.764 67.508,356.087 65.583 C 356.815 61.250,356.832 61.621,355.919 61.758 C 354.081 62.034,353.529 61.199,353.930 58.750 C 353.975 58.475,354.120 57.650,354.252 56.917 C 354.384 56.183,354.534 55.321,354.585 55.000 C 354.636 54.679,354.823 53.629,354.999 52.667 C 355.176 51.704,355.366 50.504,355.422 50.000 C 355.478 49.496,355.641 48.340,355.785 47.431 C 356.858 40.640,353.416 35.986,346.216 34.490 C 344.627 34.159,340.233 33.928,338.833 34.101 M115.146 43.593 C 116.912 44.117,118.667 46.705,118.667 48.785 C 118.667 48.957,117.439 49.000,112.583 49.000 C 109.237 49.000,106.500 48.954,106.500 48.898 C 106.500 48.485,107.767 46.568,108.608 45.708 C 110.504 43.770,113.013 42.959,115.146 43.593 M340.921 56.443 C 340.145 60.648,337.468 63.000,333.460 63.000 C 328.859 63.000,328.719 59.074,333.250 57.132 C 334.866 56.440,340.916 54.748,341.138 54.926 C 341.168 54.950,341.070 55.633,340.921 56.443 M24.083 76.088 C 24.745 76.647,26.052 77.509,27.083 78.067 C 28.077 78.605,27.877 78.460,25.441 76.875 C 24.419 76.210,23.808 75.856,24.083 76.088 M47.708 77.782 C 47.869 77.823,48.131 77.823,48.292 77.782 C 48.452 77.740,48.321 77.705,48.000 77.705 C 47.679 77.705,47.548 77.740,47.708 77.782 M40.917 83.000 C 41.665 83.190,42.360 83.190,41.917 83.000 C 41.733 82.921,41.321 82.860,41.000 82.865 L 40.417 82.873 40.917 83.000 M50.691 83.013 C 50.109 83.088,49.547 83.190,49.441 83.240 C 49.189 83.357,51.396 83.172,52.250 83.003 L 52.917 82.872 52.333 82.874 C 52.012 82.875,51.274 82.937,50.691 83.013 M42.417 83.167 C 42.473 83.258,42.759 83.332,43.052 83.331 C 43.456 83.329,43.524 83.290,43.333 83.167 C 43.003 82.953,42.285 82.953,42.417 83.167 M44.333 83.333 C 44.333 83.551,48.330 83.551,48.667 83.333 C 48.835 83.225,48.166 83.171,46.625 83.169 C 45.207 83.168,44.333 83.230,44.333 83.333 " stroke="none" fill="#939393" fill-rule="evenodd"></path><path id="path1" d="M44.167 3.508 C 44.167 3.624,43.826 3.645,43.167 3.570 C 42.463 3.490,42.167 3.513,42.167 3.647 C 42.167 3.777,41.947 3.802,41.474 3.727 C 40.932 3.640,40.811 3.662,40.915 3.831 C 41.019 3.999,40.914 4.021,40.441 3.932 C 40.034 3.856,39.833 3.880,39.833 4.006 C 39.833 4.127,39.658 4.155,39.333 4.083 C 39.015 4.013,38.833 4.040,38.833 4.157 C 38.833 4.269,38.672 4.299,38.417 4.235 C 38.160 4.171,38.000 4.201,38.000 4.315 C 38.000 4.417,37.921 4.500,37.823 4.500 C 37.726 4.500,37.689 4.432,37.740 4.349 C 37.792 4.266,37.685 4.237,37.502 4.284 C 37.320 4.332,37.213 4.441,37.266 4.526 C 37.321 4.615,37.180 4.634,36.931 4.572 C 36.679 4.509,36.500 4.534,36.500 4.633 C 36.500 4.726,36.350 4.763,36.167 4.715 C 35.983 4.667,35.833 4.701,35.833 4.791 C 35.833 4.880,35.658 4.920,35.443 4.879 C 35.228 4.838,34.946 4.911,34.816 5.041 C 34.687 5.171,34.487 5.246,34.374 5.208 C 34.260 5.170,34.167 5.213,34.167 5.304 C 34.167 5.395,34.005 5.427,33.807 5.375 C 33.538 5.304,33.482 5.336,33.585 5.502 C 33.684 5.663,33.646 5.694,33.444 5.617 C 33.291 5.558,33.167 5.581,33.167 5.667 C 33.167 5.753,33.054 5.780,32.917 5.727 C 32.779 5.674,32.667 5.712,32.667 5.810 C 32.667 5.909,32.554 5.946,32.417 5.894 C 32.279 5.841,32.167 5.878,32.167 5.977 C 32.167 6.076,32.042 6.108,31.889 6.050 C 31.704 5.979,31.652 6.007,31.731 6.136 C 31.809 6.263,31.761 6.295,31.592 6.230 C 31.450 6.176,31.333 6.212,31.333 6.310 C 31.333 6.409,31.209 6.442,31.056 6.383 C 30.871 6.312,30.818 6.341,30.898 6.470 C 30.976 6.596,30.928 6.628,30.759 6.564 C 30.616 6.509,30.500 6.552,30.500 6.659 C 30.500 6.766,30.425 6.807,30.333 6.750 C 30.242 6.693,30.166 6.745,30.164 6.865 C 30.162 7.037,30.133 7.039,30.029 6.875 C 29.928 6.716,29.813 6.744,29.549 6.990 C 29.358 7.168,29.157 7.268,29.101 7.212 C 29.045 7.157,29.000 7.196,29.000 7.300 C 29.000 7.404,28.888 7.447,28.751 7.394 C 28.610 7.340,28.459 7.413,28.401 7.565 C 28.344 7.712,28.231 7.790,28.149 7.739 C 28.067 7.688,28.000 7.724,28.000 7.818 C 28.000 7.912,27.888 7.947,27.751 7.894 C 27.610 7.840,27.459 7.913,27.401 8.065 C 27.344 8.212,27.231 8.290,27.149 8.239 C 27.067 8.188,27.000 8.231,27.000 8.333 C 27.000 8.436,26.925 8.473,26.833 8.417 C 26.742 8.360,26.667 8.398,26.667 8.500 C 26.667 8.602,26.602 8.646,26.522 8.597 C 26.443 8.548,26.245 8.654,26.083 8.833 C 25.921 9.012,25.724 9.119,25.644 9.070 C 25.565 9.020,25.500 9.064,25.500 9.167 C 25.500 9.269,25.435 9.313,25.356 9.264 C 25.276 9.215,25.079 9.321,24.917 9.500 C 24.755 9.679,24.565 9.790,24.495 9.747 C 24.425 9.704,24.325 9.781,24.273 9.918 C 24.220 10.055,24.036 10.167,23.863 10.167 C 23.691 10.167,23.313 10.392,23.025 10.668 C 22.736 10.944,22.500 11.135,22.500 11.093 C 22.500 11.050,22.301 11.201,22.057 11.426 C 21.814 11.652,21.577 11.799,21.530 11.753 C 21.484 11.707,21.341 11.820,21.212 12.004 C 21.083 12.188,20.907 12.296,20.822 12.243 C 20.737 12.190,20.667 12.276,20.667 12.435 C 20.667 12.593,20.621 12.677,20.566 12.621 C 20.510 12.566,20.296 12.703,20.088 12.927 C 19.881 13.150,19.645 13.333,19.563 13.333 C 19.481 13.333,19.320 13.483,19.205 13.667 C 19.091 13.850,18.885 14.000,18.749 14.000 C 18.612 14.000,18.519 14.082,18.542 14.182 C 18.565 14.282,18.434 14.451,18.251 14.557 C 17.814 14.810,16.828 15.637,16.831 15.747 C 16.832 15.795,16.791 15.829,16.739 15.825 C 16.636 15.815,16.190 16.395,15.899 16.919 C 15.797 17.101,15.609 17.250,15.482 17.250 C 15.354 17.250,15.247 17.362,15.242 17.500 C 15.238 17.637,15.145 17.731,15.034 17.708 C 14.849 17.670,14.759 17.884,14.818 18.223 C 14.832 18.299,14.692 18.402,14.507 18.450 C 14.322 18.498,14.212 18.605,14.262 18.687 C 14.313 18.769,14.238 18.881,14.095 18.935 C 13.952 18.990,13.877 19.102,13.927 19.184 C 13.978 19.266,13.898 19.333,13.750 19.333 C 13.602 19.333,13.522 19.400,13.573 19.483 C 13.623 19.565,13.542 19.679,13.392 19.736 C 13.242 19.794,13.162 19.884,13.215 19.937 C 13.268 19.990,13.087 20.252,12.814 20.519 C 12.540 20.786,12.362 21.079,12.418 21.169 C 12.474 21.259,12.403 21.333,12.260 21.333 C 12.022 21.333,11.923 21.533,11.984 21.887 C 11.998 21.963,11.943 21.985,11.864 21.936 C 11.691 21.829,10.962 23.073,11.110 23.221 C 11.168 23.279,11.089 23.374,10.936 23.432 C 10.783 23.491,10.577 23.689,10.479 23.873 C 10.337 24.138,10.347 24.183,10.525 24.091 C 10.649 24.027,10.604 24.093,10.426 24.238 C 10.249 24.382,10.155 24.500,10.218 24.500 C 10.281 24.500,10.181 24.653,9.994 24.839 C 9.807 25.026,9.699 25.251,9.754 25.339 C 9.808 25.428,9.769 25.500,9.667 25.500 C 9.564 25.500,9.527 25.575,9.583 25.667 C 9.640 25.758,9.602 25.833,9.500 25.833 C 9.398 25.833,9.360 25.908,9.417 26.000 C 9.473 26.092,9.436 26.167,9.333 26.167 C 9.231 26.167,9.193 26.242,9.250 26.333 C 9.307 26.425,9.269 26.500,9.167 26.500 C 9.064 26.500,9.027 26.575,9.083 26.667 C 9.140 26.758,9.102 26.833,9.000 26.833 C 8.898 26.833,8.860 26.908,8.917 27.000 C 8.973 27.092,8.928 27.167,8.815 27.167 C 8.703 27.167,8.658 27.213,8.714 27.270 C 8.771 27.327,8.704 27.486,8.566 27.625 C 8.427 27.763,8.355 27.983,8.405 28.113 C 8.463 28.264,8.425 28.307,8.303 28.231 C 8.174 28.152,8.145 28.204,8.216 28.389 C 8.275 28.542,8.246 28.667,8.152 28.667 C 8.057 28.667,8.027 28.742,8.083 28.833 C 8.140 28.925,8.099 29.000,7.992 29.000 C 7.885 29.000,7.842 29.116,7.897 29.259 C 7.962 29.428,7.929 29.476,7.803 29.398 C 7.674 29.318,7.645 29.371,7.716 29.556 C 7.775 29.709,7.742 29.833,7.644 29.833 C 7.545 29.833,7.508 29.946,7.560 30.083 C 7.613 30.221,7.579 30.333,7.485 30.333 C 7.391 30.333,7.360 30.408,7.417 30.500 C 7.473 30.592,7.432 30.667,7.325 30.667 C 7.218 30.667,7.174 30.779,7.227 30.917 C 7.280 31.054,7.242 31.167,7.144 31.167 C 7.045 31.167,7.008 31.279,7.060 31.417 C 7.113 31.554,7.076 31.667,6.977 31.667 C 6.878 31.667,6.841 31.779,6.894 31.917 C 6.946 32.054,6.909 32.167,6.810 32.167 C 6.712 32.167,6.674 32.279,6.727 32.417 C 6.780 32.554,6.742 32.667,6.644 32.667 C 6.545 32.667,6.508 32.779,6.560 32.917 C 6.613 33.054,6.576 33.167,6.477 33.167 C 6.378 33.167,6.340 33.277,6.392 33.411 C 6.443 33.546,6.409 33.703,6.315 33.762 C 6.221 33.820,6.184 33.972,6.233 34.100 C 6.283 34.228,6.258 34.333,6.179 34.333 C 6.100 34.333,5.991 34.450,5.936 34.592 C 5.879 34.740,5.907 34.807,6.002 34.749 C 6.093 34.693,6.167 34.726,6.167 34.823 C 6.167 34.921,6.083 35.000,5.981 35.000 C 5.877 35.000,5.833 35.147,5.882 35.333 C 5.930 35.517,5.893 35.667,5.800 35.667 C 5.702 35.667,5.675 35.844,5.735 36.083 C 5.800 36.343,5.769 36.500,5.652 36.500 C 5.535 36.500,5.503 36.657,5.568 36.917 C 5.630 37.161,5.601 37.333,5.500 37.333 C 5.399 37.333,5.370 37.506,5.432 37.750 C 5.490 37.985,5.464 38.167,5.371 38.167 C 5.280 38.167,5.170 38.352,5.127 38.578 C 5.084 38.805,5.112 38.950,5.191 38.902 C 5.269 38.853,5.333 38.931,5.333 39.073 C 5.333 39.216,5.250 39.333,5.148 39.333 C 5.027 39.333,5.001 39.534,5.072 39.917 C 5.146 40.311,5.119 40.500,4.988 40.500 C 4.851 40.500,4.828 40.766,4.909 41.417 C 4.986 42.029,4.965 42.333,4.845 42.333 C 4.725 42.333,4.667 43.265,4.667 45.177 C 4.667 47.030,4.725 47.984,4.833 47.917 C 4.928 47.858,5.000 48.002,5.000 48.250 C 5.000 48.490,4.942 48.651,4.872 48.607 C 4.801 48.564,4.772 48.822,4.806 49.181 C 4.840 49.540,4.935 49.833,5.018 49.833 C 5.100 49.833,5.167 49.950,5.167 50.093 C 5.167 50.236,5.103 50.313,5.024 50.265 C 4.946 50.216,4.917 50.362,4.960 50.588 C 5.003 50.815,5.113 51.000,5.205 51.000 C 5.304 51.000,5.326 51.234,5.261 51.583 C 5.187 51.976,5.214 52.167,5.344 52.167 C 5.466 52.167,5.498 52.319,5.432 52.583 C 5.370 52.827,5.399 53.000,5.500 53.000 C 5.601 53.000,5.630 53.173,5.568 53.417 C 5.503 53.677,5.535 53.833,5.652 53.833 C 5.769 53.833,5.800 53.990,5.735 54.250 C 5.675 54.489,5.702 54.667,5.800 54.667 C 5.893 54.667,5.930 54.817,5.882 55.000 C 5.834 55.183,5.871 55.333,5.965 55.333 C 6.059 55.333,6.096 55.483,6.048 55.667 C 6.000 55.850,6.043 56.000,6.142 56.000 C 6.241 56.000,6.280 56.112,6.227 56.250 C 6.174 56.387,6.214 56.500,6.316 56.500 C 6.417 56.500,6.500 56.579,6.500 56.677 C 6.500 56.774,6.426 56.807,6.335 56.751 C 6.241 56.693,6.213 56.760,6.270 56.908 C 6.324 57.050,6.434 57.167,6.513 57.167 C 6.592 57.167,6.613 57.279,6.560 57.417 C 6.508 57.554,6.545 57.667,6.644 57.667 C 6.742 57.667,6.780 57.779,6.727 57.917 C 6.674 58.054,6.712 58.167,6.810 58.167 C 6.909 58.167,6.946 58.279,6.894 58.417 C 6.841 58.554,6.878 58.667,6.977 58.667 C 7.076 58.667,7.113 58.779,7.060 58.917 C 7.008 59.054,7.045 59.167,7.144 59.167 C 7.242 59.167,7.280 59.279,7.227 59.417 C 7.174 59.554,7.218 59.667,7.325 59.667 C 7.432 59.667,7.473 59.742,7.417 59.833 C 7.360 59.925,7.391 60.000,7.485 60.000 C 7.579 60.000,7.613 60.112,7.560 60.250 C 7.508 60.387,7.552 60.500,7.659 60.500 C 7.766 60.500,7.807 60.575,7.750 60.667 C 7.693 60.758,7.724 60.833,7.818 60.833 C 7.912 60.833,7.946 60.946,7.894 61.083 C 7.841 61.221,7.885 61.333,7.992 61.333 C 8.099 61.333,8.140 61.408,8.083 61.500 C 8.027 61.592,8.064 61.667,8.167 61.667 C 8.269 61.667,8.307 61.742,8.250 61.833 C 8.193 61.925,8.219 62.000,8.308 62.000 C 8.396 62.000,8.430 62.149,8.382 62.331 C 8.327 62.541,8.394 62.700,8.563 62.765 C 8.711 62.822,8.790 62.935,8.739 63.017 C 8.688 63.100,8.731 63.167,8.833 63.167 C 8.936 63.167,8.973 63.242,8.917 63.333 C 8.860 63.425,8.898 63.500,9.000 63.500 C 9.102 63.500,9.140 63.575,9.083 63.667 C 9.027 63.758,9.064 63.833,9.167 63.833 C 9.269 63.833,9.307 63.908,9.250 64.000 C 9.193 64.092,9.231 64.167,9.333 64.167 C 9.436 64.167,9.473 64.242,9.417 64.333 C 9.360 64.425,9.398 64.500,9.500 64.500 C 9.602 64.500,9.640 64.575,9.583 64.667 C 9.527 64.758,9.564 64.833,9.667 64.833 C 9.769 64.833,9.808 64.906,9.754 64.994 C 9.699 65.082,9.807 65.307,9.994 65.494 C 10.181 65.681,10.281 65.833,10.218 65.833 C 10.155 65.833,10.249 65.951,10.426 66.096 C 10.604 66.240,10.656 66.311,10.542 66.253 C 10.191 66.075,10.309 66.326,10.792 66.785 C 11.044 67.025,11.163 67.171,11.057 67.110 C 10.911 67.027,10.911 67.101,11.057 67.415 C 11.163 67.644,11.348 67.831,11.468 67.832 C 11.588 67.833,11.640 67.909,11.583 68.001 C 11.526 68.093,11.596 68.214,11.738 68.269 C 11.881 68.323,11.956 68.436,11.905 68.519 C 11.853 68.602,12.032 68.891,12.302 69.161 C 12.572 69.431,12.752 69.693,12.702 69.743 C 12.652 69.792,12.703 69.833,12.815 69.833 C 12.928 69.833,12.973 69.908,12.917 70.000 C 12.860 70.092,12.943 70.167,13.101 70.167 C 13.259 70.167,13.340 70.215,13.281 70.275 C 13.221 70.334,13.333 70.522,13.529 70.691 C 13.724 70.861,13.817 71.002,13.734 71.005 C 13.651 71.008,13.703 71.102,13.850 71.214 C 13.996 71.325,14.128 71.492,14.142 71.583 C 14.155 71.675,14.260 71.753,14.375 71.758 C 14.490 71.762,14.564 71.858,14.540 71.971 C 14.516 72.084,14.610 72.219,14.748 72.272 C 14.887 72.326,15.000 72.456,15.000 72.562 C 15.000 72.668,15.169 72.828,15.375 72.919 C 15.581 73.009,15.750 73.172,15.750 73.280 C 15.750 73.388,16.219 73.900,16.792 74.419 C 17.366 74.938,17.798 75.423,17.752 75.496 C 17.707 75.570,17.931 75.754,18.251 75.906 C 18.571 76.058,18.833 76.291,18.833 76.424 C 18.833 76.558,18.948 76.667,19.089 76.667 C 19.229 76.667,19.387 76.779,19.440 76.917 C 19.492 77.054,19.640 77.167,19.768 77.167 C 19.896 77.167,19.981 77.260,19.958 77.375 C 19.935 77.490,20.013 77.564,20.130 77.540 C 20.247 77.516,20.386 77.610,20.439 77.747 C 20.492 77.885,20.602 77.957,20.684 77.906 C 20.766 77.855,20.833 77.943,20.833 78.101 C 20.833 78.259,20.879 78.343,20.934 78.288 C 20.990 78.232,21.121 78.259,21.226 78.346 C 22.016 79.008,22.236 79.167,22.369 79.167 C 22.452 79.167,22.466 79.253,22.401 79.359 C 22.332 79.470,22.355 79.507,22.453 79.446 C 22.546 79.388,22.835 79.522,23.093 79.744 C 23.351 79.966,23.611 80.118,23.669 80.082 C 23.728 80.045,24.033 80.227,24.346 80.486 C 24.660 80.744,24.992 80.984,25.083 81.019 C 25.175 81.055,25.229 81.145,25.204 81.221 C 25.179 81.296,25.230 81.314,25.318 81.260 C 25.405 81.206,25.525 81.239,25.583 81.333 C 25.642 81.428,25.760 81.462,25.845 81.410 C 25.930 81.357,26.000 81.398,26.000 81.500 C 26.000 81.602,26.075 81.640,26.167 81.583 C 26.258 81.527,26.333 81.564,26.333 81.667 C 26.333 81.769,26.408 81.807,26.500 81.750 C 26.592 81.693,26.667 81.711,26.667 81.789 C 26.667 81.953,28.457 82.889,28.773 82.889 C 28.890 82.889,29.027 82.997,29.078 83.128 C 29.128 83.260,29.281 83.325,29.418 83.273 C 29.555 83.220,29.667 83.254,29.667 83.348 C 29.667 83.443,29.742 83.473,29.833 83.417 C 29.925 83.360,30.000 83.401,30.000 83.508 C 30.000 83.615,30.112 83.659,30.250 83.606 C 30.387 83.554,30.500 83.596,30.500 83.700 C 30.500 83.804,30.546 83.842,30.603 83.786 C 30.660 83.729,30.820 83.796,30.958 83.934 C 31.096 84.073,31.312 84.146,31.438 84.098 C 31.564 84.050,31.667 84.091,31.667 84.190 C 31.667 84.288,31.779 84.326,31.917 84.273 C 32.054 84.220,32.167 84.254,32.167 84.348 C 32.167 84.443,32.242 84.473,32.333 84.417 C 32.425 84.360,32.500 84.401,32.500 84.508 C 32.500 84.615,32.612 84.659,32.750 84.606 C 32.887 84.554,33.000 84.591,33.000 84.690 C 33.000 84.788,33.113 84.826,33.250 84.773 C 33.388 84.720,33.500 84.758,33.500 84.856 C 33.500 84.955,33.612 84.992,33.750 84.940 C 33.888 84.887,34.000 84.924,34.000 85.023 C 34.000 85.122,34.112 85.159,34.250 85.106 C 34.387 85.054,34.500 85.088,34.500 85.183 C 34.500 85.280,34.646 85.309,34.833 85.250 C 35.037 85.185,35.167 85.220,35.167 85.340 C 35.167 85.448,35.279 85.492,35.417 85.440 C 35.554 85.387,35.667 85.421,35.667 85.516 C 35.667 85.613,35.813 85.643,36.000 85.583 C 36.204 85.519,36.333 85.553,36.333 85.673 C 36.333 85.783,36.449 85.825,36.596 85.768 C 36.740 85.713,36.976 85.785,37.120 85.929 C 37.333 86.142,37.408 86.150,37.522 85.971 C 37.637 85.789,37.662 85.790,37.664 85.976 C 37.666 86.134,37.793 86.171,38.083 86.098 C 38.343 86.033,38.500 86.064,38.500 86.182 C 38.500 86.299,38.657 86.330,38.917 86.265 C 39.179 86.199,39.333 86.231,39.333 86.351 C 39.333 86.474,39.511 86.506,39.833 86.442 C 40.108 86.387,40.333 86.406,40.333 86.485 C 40.333 86.563,40.519 86.663,40.745 86.706 C 40.971 86.750,41.117 86.721,41.068 86.643 C 41.020 86.564,41.097 86.500,41.240 86.500 C 41.383 86.500,41.500 86.585,41.500 86.689 C 41.500 86.818,41.741 86.846,42.250 86.776 C 42.742 86.708,43.000 86.735,43.000 86.854 C 43.000 86.980,43.458 86.999,44.500 86.917 C 45.556 86.833,46.000 86.852,46.000 86.982 C 46.000 87.097,46.380 87.167,47.000 87.167 C 47.610 87.167,48.000 87.096,48.000 86.985 C 48.000 86.859,48.433 86.840,49.417 86.921 C 50.407 87.004,50.833 86.984,50.833 86.856 C 50.833 86.735,51.087 86.708,51.583 86.776 C 52.092 86.846,52.333 86.818,52.333 86.689 C 52.333 86.585,52.450 86.500,52.593 86.500 C 52.736 86.500,52.813 86.564,52.765 86.643 C 52.716 86.721,52.862 86.750,53.088 86.706 C 53.315 86.663,53.500 86.563,53.500 86.485 C 53.500 86.406,53.725 86.387,54.000 86.442 C 54.322 86.506,54.500 86.474,54.500 86.351 C 54.500 86.231,54.654 86.199,54.917 86.265 C 55.147 86.323,55.333 86.297,55.333 86.208 C 55.333 86.119,55.521 86.082,55.750 86.126 C 55.979 86.170,56.167 86.129,56.167 86.035 C 56.167 85.941,56.317 85.904,56.500 85.952 C 56.683 86.000,56.833 85.962,56.833 85.868 C 56.833 85.775,56.983 85.737,57.167 85.785 C 57.350 85.833,57.500 85.795,57.500 85.702 C 57.500 85.608,57.650 85.570,57.833 85.618 C 58.017 85.666,58.167 85.624,58.167 85.525 C 58.167 85.425,58.279 85.387,58.417 85.440 C 58.554 85.492,58.667 85.448,58.667 85.340 C 58.667 85.220,58.796 85.185,59.000 85.250 C 59.187 85.309,59.333 85.280,59.333 85.183 C 59.333 85.088,59.446 85.054,59.583 85.106 C 59.721 85.159,59.833 85.122,59.833 85.023 C 59.833 84.924,59.946 84.887,60.083 84.940 C 60.221 84.992,60.333 84.955,60.333 84.856 C 60.333 84.758,60.446 84.720,60.583 84.773 C 60.721 84.826,60.833 84.782,60.833 84.675 C 60.833 84.568,60.903 84.523,60.988 84.576 C 61.074 84.629,61.189 84.599,61.244 84.510 C 61.299 84.421,61.466 84.395,61.616 84.452 C 61.797 84.522,61.848 84.492,61.769 84.364 C 61.691 84.237,61.739 84.205,61.908 84.270 C 62.050 84.324,62.167 84.288,62.167 84.190 C 62.167 84.091,62.279 84.054,62.417 84.106 C 62.554 84.159,62.667 84.115,62.667 84.008 C 62.667 83.901,62.742 83.860,62.833 83.917 C 62.925 83.973,63.000 83.936,63.000 83.833 C 63.000 83.731,63.075 83.693,63.167 83.750 C 63.258 83.807,63.333 83.776,63.333 83.682 C 63.333 83.588,63.446 83.554,63.583 83.606 C 63.721 83.659,63.833 83.615,63.833 83.508 C 63.833 83.401,63.908 83.360,64.000 83.417 C 64.092 83.473,64.167 83.436,64.167 83.333 C 64.167 83.231,64.242 83.193,64.333 83.250 C 64.425 83.307,64.500 83.269,64.500 83.167 C 64.500 83.064,64.575 83.027,64.667 83.083 C 64.758 83.140,64.833 83.107,64.833 83.010 C 64.833 82.913,64.890 82.848,64.958 82.866 C 65.193 82.928,65.833 82.645,65.833 82.479 C 65.833 82.388,65.908 82.360,66.000 82.417 C 66.092 82.473,66.167 82.436,66.167 82.333 C 66.167 82.231,66.242 82.193,66.333 82.250 C 66.425 82.307,66.501 82.255,66.503 82.135 C 66.505 81.960,66.534 81.962,66.648 82.142 C 66.760 82.319,66.849 82.283,67.062 81.980 C 67.211 81.767,67.333 81.660,67.333 81.742 C 67.333 81.824,67.521 81.715,67.750 81.500 C 67.979 81.285,68.167 81.197,68.167 81.304 C 68.167 81.419,68.293 81.380,68.473 81.208 C 68.641 81.048,68.949 80.804,69.158 80.667 C 69.368 80.529,69.717 80.281,69.934 80.114 C 70.152 79.948,70.417 79.866,70.524 79.932 C 70.640 80.003,70.673 79.979,70.607 79.871 C 70.545 79.772,70.639 79.645,70.816 79.589 C 70.992 79.533,71.178 79.378,71.229 79.244 C 71.281 79.110,71.438 79.000,71.578 79.000 C 71.718 79.000,71.833 78.925,71.833 78.833 C 71.833 78.742,71.946 78.667,72.083 78.667 C 72.221 78.667,72.315 78.576,72.292 78.466 C 72.269 78.355,72.332 78.262,72.431 78.258 C 72.531 78.253,72.906 77.934,73.265 77.547 C 74.269 76.463,74.420 76.268,74.370 76.114 C 74.345 76.036,74.469 75.933,74.646 75.887 C 74.824 75.840,75.008 75.654,75.056 75.472 C 75.103 75.291,75.292 75.103,75.476 75.055 C 75.788 74.973,76.035 74.637,76.069 74.250 C 76.077 74.158,76.170 74.083,76.277 74.083 C 76.479 74.083,77.280 73.155,77.208 73.004 C 77.185 72.956,77.242 72.917,77.333 72.917 C 77.425 72.917,77.481 72.855,77.458 72.780 C 77.435 72.705,77.549 72.569,77.712 72.478 C 77.874 72.387,77.966 72.246,77.915 72.164 C 77.864 72.082,78.012 71.891,78.243 71.739 C 78.475 71.588,78.626 71.402,78.579 71.327 C 78.533 71.252,78.650 71.141,78.840 71.081 C 79.030 71.021,79.159 70.893,79.127 70.798 C 79.095 70.702,79.283 70.409,79.545 70.147 C 79.808 69.885,79.975 69.595,79.918 69.502 C 79.861 69.409,79.931 69.333,80.073 69.333 C 80.311 69.333,80.410 69.133,80.349 68.779 C 80.336 68.704,80.387 68.680,80.462 68.727 C 80.537 68.773,80.803 68.473,81.052 68.061 C 81.302 67.648,81.411 67.365,81.295 67.432 C 81.178 67.500,81.294 67.354,81.551 67.110 C 81.808 66.865,81.973 66.591,81.916 66.499 C 81.860 66.408,81.890 66.333,81.984 66.333 C 82.078 66.333,82.240 66.174,82.344 65.980 C 82.497 65.695,82.490 65.649,82.308 65.742 C 82.185 65.806,82.213 65.751,82.372 65.621 C 82.531 65.490,82.613 65.335,82.553 65.275 C 82.493 65.216,82.536 65.167,82.649 65.167 C 82.761 65.167,82.807 65.092,82.750 65.000 C 82.693 64.908,82.731 64.833,82.833 64.833 C 82.936 64.833,82.973 64.758,82.917 64.667 C 82.860 64.575,82.906 64.500,83.018 64.500 C 83.130 64.500,83.178 64.456,83.125 64.403 C 83.072 64.349,83.177 64.156,83.360 63.973 C 83.543 63.790,83.651 63.534,83.601 63.404 C 83.551 63.273,83.588 63.167,83.682 63.167 C 83.776 63.167,83.807 63.092,83.750 63.000 C 83.693 62.908,83.731 62.833,83.833 62.833 C 83.936 62.833,83.978 62.766,83.927 62.684 C 83.877 62.602,83.956 62.489,84.103 62.432 C 84.273 62.367,84.339 62.208,84.284 61.998 C 84.229 61.787,84.263 61.707,84.377 61.777 C 84.491 61.847,84.518 61.786,84.450 61.611 C 84.392 61.458,84.421 61.333,84.515 61.333 C 84.609 61.333,84.640 61.258,84.583 61.167 C 84.527 61.075,84.568 61.000,84.675 61.000 C 84.782 61.000,84.826 60.887,84.773 60.750 C 84.720 60.612,84.758 60.500,84.856 60.500 C 84.955 60.500,84.992 60.388,84.940 60.250 C 84.887 60.113,84.921 60.000,85.015 60.000 C 85.109 60.000,85.140 59.925,85.083 59.833 C 85.027 59.742,85.068 59.667,85.175 59.667 C 85.282 59.667,85.326 59.554,85.273 59.417 C 85.220 59.279,85.255 59.167,85.350 59.167 C 85.447 59.167,85.476 59.020,85.417 58.833 C 85.352 58.629,85.387 58.500,85.507 58.500 C 85.614 58.500,85.659 58.388,85.606 58.250 C 85.554 58.113,85.591 58.000,85.690 58.000 C 85.788 58.000,85.826 57.887,85.773 57.750 C 85.720 57.612,85.759 57.500,85.858 57.500 C 85.957 57.500,86.000 57.350,85.952 57.167 C 85.904 56.983,85.924 56.833,85.996 56.833 C 86.069 56.833,86.167 56.683,86.215 56.500 C 86.263 56.316,86.234 56.208,86.151 56.260 C 86.068 56.311,86.000 56.274,86.000 56.177 C 86.000 56.079,86.066 56.000,86.147 56.000 C 86.228 56.000,86.334 55.850,86.382 55.666 C 86.430 55.483,86.401 55.375,86.318 55.426 C 86.235 55.478,86.167 55.440,86.167 55.343 C 86.167 55.246,86.242 55.167,86.333 55.167 C 86.425 55.167,86.500 54.898,86.500 54.569 C 86.500 53.516,86.140 54.018,85.168 56.427 C 83.928 59.498,83.333 60.579,83.333 59.760 C 83.333 59.617,83.416 59.500,83.518 59.500 C 83.632 59.500,83.663 59.340,83.598 59.083 C 83.533 58.823,83.564 58.667,83.682 58.667 C 83.799 58.667,83.830 58.510,83.765 58.250 C 83.705 58.010,83.732 57.833,83.830 57.833 C 83.924 57.833,84.000 57.646,84.000 57.417 C 84.000 56.515,83.481 56.991,82.743 58.571 C 82.340 59.434,81.913 60.199,81.796 60.269 C 81.647 60.359,81.652 60.312,81.815 60.111 C 81.943 59.954,82.003 59.781,81.948 59.726 C 81.894 59.672,81.964 59.513,82.104 59.373 C 82.311 59.165,82.317 59.092,82.137 58.978 C 81.956 58.863,81.955 58.838,82.136 58.836 C 82.280 58.834,82.319 58.718,82.250 58.500 C 82.185 58.296,82.220 58.167,82.340 58.167 C 82.466 58.167,82.499 58.017,82.432 57.750 C 82.371 57.510,82.399 57.333,82.497 57.333 C 82.590 57.333,82.667 57.223,82.667 57.089 C 82.667 56.398,82.027 57.297,80.818 59.686 C 79.536 62.221,79.314 62.539,79.083 62.167 C 79.027 62.075,79.064 62.000,79.167 62.000 C 79.269 62.000,79.307 61.925,79.250 61.833 C 79.193 61.742,79.239 61.667,79.351 61.667 C 79.464 61.667,79.509 61.620,79.452 61.563 C 79.396 61.507,79.462 61.347,79.601 61.209 C 79.739 61.070,79.813 60.854,79.765 60.729 C 79.717 60.603,79.754 60.500,79.848 60.500 C 79.943 60.500,79.973 60.425,79.917 60.333 C 79.860 60.242,79.898 60.167,80.000 60.167 C 80.102 60.167,80.140 60.092,80.083 60.000 C 80.027 59.908,80.068 59.833,80.175 59.833 C 80.282 59.833,80.326 59.721,80.273 59.583 C 80.220 59.446,80.254 59.333,80.348 59.333 C 80.443 59.333,80.473 59.258,80.417 59.167 C 80.360 59.075,80.401 59.000,80.508 59.000 C 80.615 59.000,80.662 58.894,80.612 58.764 C 80.562 58.634,80.645 58.480,80.798 58.421 C 81.036 58.330,81.040 58.294,80.829 58.160 C 80.648 58.046,80.641 58.004,80.802 58.003 C 80.921 58.001,80.973 57.925,80.917 57.833 C 80.860 57.742,80.901 57.667,81.008 57.667 C 81.115 57.667,81.159 57.554,81.106 57.417 C 81.054 57.279,81.091 57.167,81.190 57.167 C 81.288 57.167,81.326 57.054,81.273 56.917 C 81.220 56.779,81.258 56.667,81.356 56.667 C 81.455 56.667,81.495 56.560,81.444 56.429 C 81.394 56.298,81.465 56.098,81.601 55.985 C 81.800 55.820,81.807 55.752,81.633 55.642 C 81.457 55.530,81.457 55.505,81.636 55.503 C 81.780 55.501,81.819 55.384,81.750 55.167 C 81.685 54.963,81.720 54.833,81.840 54.833 C 81.950 54.833,81.991 54.718,81.935 54.571 C 81.880 54.427,81.952 54.191,82.096 54.047 C 82.309 53.834,82.317 53.758,82.137 53.642 C 81.956 53.525,81.955 53.475,82.135 53.359 C 82.276 53.268,82.314 53.063,82.242 52.776 C 82.168 52.482,82.197 52.333,82.330 52.333 C 82.470 52.333,82.496 52.136,82.417 51.667 C 82.343 51.228,82.366 51.000,82.485 51.000 C 82.585 51.000,82.667 50.712,82.667 50.361 C 82.667 49.569,82.253 49.482,82.077 50.236 C 82.011 50.519,81.933 50.825,81.903 50.917 C 81.872 51.008,81.730 51.571,81.586 52.167 C 81.295 53.368,81.084 53.806,80.889 53.611 C 80.818 53.540,80.862 53.419,80.987 53.341 C 81.113 53.264,81.169 53.080,81.113 52.933 C 81.057 52.787,81.092 52.667,81.193 52.667 C 81.306 52.667,81.337 52.478,81.275 52.167 C 81.214 51.862,81.244 51.667,81.352 51.667 C 81.466 51.667,81.489 51.430,81.417 51.000 C 81.343 50.562,81.366 50.333,81.485 50.333 C 81.759 50.333,81.733 46.225,81.458 46.097 C 81.300 46.023,81.298 45.977,81.449 45.906 C 81.711 45.782,81.534 45.331,81.264 45.434 C 81.149 45.478,81.051 45.605,81.045 45.716 C 81.039 45.826,80.990 46.179,80.937 46.500 C 80.884 46.821,80.794 47.458,80.737 47.917 C 80.680 48.375,80.610 48.900,80.582 49.083 C 80.554 49.267,80.486 49.792,80.431 50.250 C 80.337 51.036,80.288 51.324,80.072 52.333 C 80.023 52.563,79.946 52.938,79.900 53.167 C 79.855 53.396,79.733 53.883,79.629 54.250 C 79.525 54.617,79.425 54.973,79.407 55.042 C 79.390 55.110,79.356 55.204,79.333 55.250 C 79.310 55.296,79.273 55.408,79.250 55.500 C 79.227 55.592,79.190 55.704,79.167 55.750 C 79.144 55.796,79.106 55.908,79.083 56.000 C 79.060 56.092,79.027 56.185,79.008 56.208 C 78.990 56.231,78.951 56.372,78.922 56.521 C 78.729 57.507,76.665 61.489,76.001 62.154 C 75.681 62.474,75.531 62.676,75.668 62.601 C 75.805 62.527,75.617 62.729,75.250 63.050 C 74.883 63.370,74.583 63.703,74.583 63.789 C 74.583 63.874,74.392 64.126,74.158 64.347 C 73.925 64.569,73.854 64.675,74.000 64.583 C 74.146 64.492,74.075 64.598,73.842 64.820 C 73.608 65.041,73.435 65.266,73.458 65.320 C 73.481 65.373,73.406 65.417,73.292 65.417 C 73.177 65.417,73.083 65.512,73.083 65.628 C 73.083 65.952,70.443 69.006,70.190 68.974 C 69.891 68.936,69.624 69.013,69.721 69.110 C 69.908 69.296,69.479 69.667,69.076 69.667 C 68.672 69.667,67.670 70.167,67.668 70.370 C 67.667 70.436,67.542 70.442,67.389 70.383 C 67.237 70.325,67.154 70.346,67.205 70.430 C 67.256 70.514,67.194 70.680,67.066 70.798 C 66.938 70.916,66.833 70.970,66.833 70.916 C 66.833 70.863,66.627 71.012,66.375 71.247 C 66.123 71.481,65.710 71.765,65.458 71.877 C 65.206 71.990,65.000 72.138,65.000 72.207 C 65.000 72.277,64.887 72.333,64.750 72.333 C 64.612 72.333,64.500 72.413,64.500 72.510 C 64.500 72.607,64.425 72.640,64.333 72.583 C 64.242 72.527,64.167 72.542,64.167 72.617 C 64.167 72.786,62.866 73.605,62.723 73.527 C 62.667 73.497,62.574 73.546,62.518 73.637 C 62.343 73.921,58.942 75.513,58.706 75.423 C 58.583 75.376,58.529 75.411,58.585 75.502 C 58.641 75.593,58.581 75.667,58.452 75.667 C 58.323 75.667,58.000 75.775,57.734 75.907 C 56.764 76.387,53.701 77.180,52.625 77.229 C 52.373 77.240,52.167 77.314,52.167 77.394 C 52.167 77.473,51.942 77.505,51.667 77.464 C 51.392 77.424,51.167 77.444,51.167 77.509 C 51.167 77.880,41.760 77.784,41.150 77.407 C 41.082 77.364,40.814 77.297,40.555 77.258 C 39.490 77.095,38.861 76.949,37.507 76.549 C 36.724 76.318,35.953 76.091,35.794 76.045 C 35.634 76.000,35.539 75.906,35.581 75.836 C 35.624 75.767,35.530 75.717,35.371 75.725 C 34.900 75.749,33.822 75.319,33.928 75.149 C 33.981 75.063,33.963 75.002,33.887 75.016 C 33.812 75.029,33.712 75.025,33.667 75.007 C 33.621 74.990,33.412 74.943,33.203 74.905 C 32.874 74.843,31.791 74.323,31.000 73.846 C 30.863 73.763,30.169 73.346,29.458 72.919 C 28.748 72.492,28.167 72.106,28.167 72.062 C 28.167 72.017,28.253 72.034,28.359 72.099 C 28.482 72.175,28.506 72.145,28.426 72.014 C 28.356 71.902,28.201 71.848,28.080 71.895 C 27.960 71.941,27.820 71.871,27.769 71.739 C 27.718 71.608,27.558 71.500,27.412 71.500 C 27.266 71.500,27.193 71.425,27.250 71.333 C 27.307 71.242,27.248 71.167,27.119 71.167 C 26.844 71.167,25.838 70.342,26.083 70.317 C 26.175 70.308,26.063 70.248,25.833 70.184 C 25.604 70.120,25.417 69.959,25.417 69.826 C 25.417 69.692,25.342 69.581,25.250 69.578 C 25.046 69.571,22.584 67.127,22.626 66.974 C 22.642 66.914,22.532 66.764,22.379 66.641 C 22.142 66.449,22.124 66.453,22.250 66.667 C 22.377 66.882,22.358 66.885,22.117 66.689 C 21.963 66.564,21.873 66.404,21.918 66.332 C 21.962 66.260,21.881 66.157,21.738 66.102 C 21.596 66.047,21.522 65.932,21.576 65.846 C 21.629 65.760,21.531 65.591,21.359 65.470 C 21.186 65.349,21.027 65.175,21.006 65.083 C 20.984 64.992,20.899 64.935,20.817 64.958 C 20.734 64.981,20.657 64.925,20.646 64.833 C 20.634 64.742,20.616 64.587,20.604 64.490 C 20.593 64.394,20.396 64.162,20.167 63.976 C 19.938 63.790,19.862 63.688,20.000 63.750 C 20.137 63.812,20.063 63.707,19.833 63.518 C 19.604 63.329,19.487 63.172,19.574 63.170 C 19.660 63.168,19.585 63.049,19.407 62.904 C 19.229 62.760,19.196 62.692,19.333 62.752 C 19.471 62.813,19.420 62.725,19.220 62.556 C 18.829 62.226,17.198 59.224,16.746 58.000 C 16.594 57.587,16.403 57.100,16.322 56.917 C 16.140 56.507,15.643 55.008,15.575 54.667 C 15.548 54.529,15.514 54.417,15.500 54.417 C 15.486 54.417,15.447 54.304,15.414 54.167 C 15.380 54.029,15.311 53.748,15.260 53.542 C 15.068 52.770,14.991 52.403,14.742 51.095 C 14.691 50.826,14.621 50.561,14.586 50.504 C 14.307 50.053,14.162 44.422,14.378 42.417 C 14.588 40.467,14.746 39.517,15.083 38.167 C 15.129 37.983,15.204 37.683,15.250 37.500 C 15.296 37.317,15.363 37.035,15.400 36.875 C 15.542 36.256,16.229 34.215,16.537 33.500 C 17.336 31.643,18.355 29.667,18.513 29.667 C 18.608 29.667,18.640 29.592,18.583 29.500 C 18.527 29.408,18.564 29.333,18.667 29.333 C 18.769 29.333,18.807 29.259,18.750 29.167 C 18.694 29.076,18.858 28.801,19.116 28.557 C 19.373 28.312,19.471 28.176,19.333 28.255 C 19.013 28.437,19.382 27.918,19.909 27.444 C 20.097 27.275,20.137 27.188,20.000 27.250 C 19.862 27.312,19.938 27.210,20.167 27.024 C 20.396 26.838,20.593 26.606,20.604 26.510 C 20.616 26.413,20.634 26.254,20.646 26.157 C 20.657 26.060,20.742 26.027,20.833 26.083 C 20.925 26.140,21.000 26.069,21.000 25.927 C 21.000 25.784,21.075 25.667,21.167 25.667 C 21.258 25.667,21.315 25.573,21.292 25.458 C 21.269 25.344,21.344 25.269,21.458 25.292 C 21.573 25.315,21.667 25.225,21.667 25.092 C 21.667 24.959,21.798 24.773,21.958 24.680 C 22.119 24.587,22.185 24.508,22.105 24.505 C 22.025 24.502,22.052 24.388,22.165 24.252 C 22.278 24.115,22.425 24.037,22.491 24.077 C 22.556 24.118,22.896 23.776,23.246 23.317 C 23.596 22.859,24.098 22.372,24.363 22.235 C 24.628 22.098,24.805 21.922,24.757 21.845 C 24.649 21.669,25.075 21.298,25.220 21.442 C 25.278 21.500,25.373 21.424,25.431 21.274 C 25.488 21.123,25.640 21.000,25.768 21.000 C 25.896 21.000,26.000 20.888,26.000 20.750 C 26.000 20.613,26.056 20.512,26.125 20.526 C 26.370 20.578,26.830 20.296,26.739 20.149 C 26.688 20.067,26.764 20.000,26.907 20.000 C 27.050 20.000,27.167 19.912,27.167 19.806 C 27.167 19.699,27.212 19.657,27.268 19.712 C 27.323 19.768,27.552 19.630,27.775 19.407 C 27.999 19.183,28.291 19.000,28.424 19.000 C 28.558 19.000,28.667 18.925,28.667 18.833 C 28.667 18.742,28.741 18.667,28.832 18.667 C 28.923 18.667,29.179 18.509,29.401 18.316 C 29.622 18.123,29.867 17.962,29.943 17.958 C 30.020 17.953,30.158 17.856,30.250 17.742 C 30.342 17.628,30.904 17.274,31.500 16.956 C 32.096 16.638,32.853 16.217,33.183 16.021 C 34.223 15.402,36.876 14.314,37.118 14.407 C 37.255 14.460,37.306 14.423,37.240 14.318 C 37.175 14.212,37.256 14.155,37.440 14.178 C 37.611 14.199,38.049 14.084,38.415 13.922 C 38.781 13.761,39.362 13.618,39.706 13.606 C 40.050 13.593,40.332 13.540,40.332 13.486 C 40.333 13.433,40.427 13.385,40.542 13.380 C 40.656 13.375,41.012 13.320,41.333 13.257 C 41.654 13.195,42.142 13.103,42.417 13.052 C 43.404 12.872,48.942 12.852,50.167 13.024 C 50.854 13.121,51.548 13.197,51.708 13.194 C 51.869 13.190,52.000 13.245,52.000 13.316 C 52.000 13.386,52.169 13.431,52.375 13.415 C 53.172 13.353,58.229 14.764,58.079 15.007 C 58.037 15.074,58.097 15.126,58.210 15.122 C 58.780 15.101,59.011 15.180,58.901 15.359 C 58.830 15.473,58.855 15.506,58.960 15.441 C 59.168 15.313,61.167 16.140,61.167 16.355 C 61.167 16.435,61.298 16.500,61.458 16.500 C 61.767 16.501,63.679 17.592,63.852 17.867 C 63.908 17.956,64.006 18.015,64.069 17.999 C 64.249 17.954,66.000 19.053,66.000 19.212 C 66.000 19.289,66.075 19.307,66.167 19.250 C 66.258 19.193,66.333 19.226,66.333 19.323 C 66.333 19.421,66.390 19.484,66.458 19.463 C 66.527 19.443,66.883 19.624,67.250 19.864 C 68.166 20.465,68.754 20.634,68.609 20.256 C 68.549 20.100,68.500 19.904,68.500 19.820 C 68.500 19.736,68.434 19.685,68.353 19.708 C 68.273 19.731,68.025 19.563,67.803 19.333 C 67.580 19.104,67.074 18.654,66.676 18.333 C 66.279 18.012,65.871 17.675,65.769 17.583 C 65.075 16.960,63.197 15.846,61.125 14.828 C 59.565 14.062,59.218 13.710,60.375 14.069 C 61.560 14.437,62.500 14.861,62.500 15.028 C 62.500 15.115,62.575 15.140,62.667 15.083 C 62.758 15.027,62.833 15.047,62.833 15.129 C 62.833 15.211,62.927 15.279,63.042 15.279 C 63.300 15.282,65.562 16.654,65.639 16.854 C 65.669 16.934,65.766 17.000,65.854 17.000 C 66.015 17.000,66.250 17.168,66.845 17.708 C 67.022 17.869,67.207 18.000,67.257 18.000 C 67.359 18.000,67.662 18.242,68.250 18.792 C 68.471 18.998,68.722 19.167,68.808 19.167 C 68.894 19.167,69.009 19.284,69.064 19.427 C 69.119 19.571,69.245 19.638,69.343 19.577 C 69.443 19.516,69.563 19.622,69.614 19.817 C 69.664 20.009,69.771 20.167,69.851 20.167 C 70.035 20.167,72.667 22.842,72.667 23.029 C 72.667 23.105,72.759 23.148,72.871 23.125 C 72.983 23.102,73.101 23.253,73.133 23.461 C 73.165 23.668,73.260 23.795,73.345 23.743 C 73.430 23.690,73.500 23.768,73.500 23.917 C 73.500 24.065,73.575 24.140,73.667 24.083 C 73.758 24.027,73.833 24.097,73.833 24.240 C 73.833 24.383,73.908 24.500,74.000 24.500 C 74.092 24.500,74.167 24.617,74.167 24.760 C 74.167 24.903,74.236 24.977,74.321 24.924 C 74.406 24.872,74.524 24.980,74.583 25.164 C 74.641 25.349,74.764 25.500,74.854 25.500 C 74.945 25.500,74.978 25.567,74.927 25.649 C 74.877 25.731,74.952 25.843,75.095 25.898 C 75.238 25.953,75.308 26.073,75.251 26.165 C 75.194 26.258,75.226 26.333,75.323 26.333 C 75.421 26.333,75.500 26.450,75.500 26.593 C 75.500 26.744,75.579 26.804,75.688 26.737 C 75.802 26.666,75.846 26.711,75.801 26.848 C 75.759 26.974,75.880 27.215,76.071 27.384 C 76.261 27.554,76.304 27.642,76.167 27.582 C 76.029 27.521,76.081 27.609,76.281 27.777 C 76.482 27.946,76.670 28.190,76.698 28.319 C 76.727 28.449,76.881 28.693,77.042 28.861 C 77.202 29.029,77.333 29.317,77.333 29.500 C 77.333 29.683,77.413 29.833,77.510 29.833 C 77.607 29.833,77.640 29.908,77.583 30.000 C 77.527 30.092,77.546 30.167,77.626 30.167 C 77.706 30.167,78.021 30.673,78.326 31.292 C 78.630 31.910,79.024 32.698,79.200 33.042 C 79.377 33.385,79.476 33.667,79.421 33.667 C 79.367 33.667,79.414 33.835,79.528 34.042 C 79.641 34.248,79.749 34.507,79.768 34.618 C 79.786 34.728,79.921 35.059,80.068 35.352 C 80.214 35.645,80.333 35.986,80.333 36.109 C 80.333 36.232,80.446 36.333,80.583 36.333 C 80.722 36.333,80.833 36.185,80.833 36.000 C 80.833 35.817,80.765 35.667,80.682 35.667 C 80.599 35.667,80.570 35.517,80.618 35.333 C 80.674 35.121,80.623 34.999,80.478 34.997 C 80.291 34.995,80.290 34.970,80.471 34.855 C 80.652 34.740,80.650 34.674,80.457 34.481 C 80.329 34.352,80.254 34.154,80.292 34.040 C 80.330 33.926,80.282 33.833,80.186 33.833 C 80.089 33.833,80.054 33.721,80.106 33.583 C 80.159 33.446,80.122 33.333,80.023 33.333 C 79.924 33.333,79.887 33.221,79.940 33.083 C 79.992 32.946,79.948 32.833,79.841 32.833 C 79.734 32.833,79.693 32.758,79.750 32.667 C 79.807 32.575,79.755 32.499,79.635 32.497 C 79.474 32.496,79.481 32.454,79.662 32.340 C 79.872 32.207,79.866 32.169,79.621 32.075 C 79.464 32.014,79.377 31.898,79.427 31.816 C 79.478 31.734,79.436 31.667,79.333 31.667 C 79.231 31.667,79.193 31.592,79.250 31.500 C 79.307 31.408,79.276 31.333,79.182 31.333 C 79.088 31.333,79.050 31.231,79.098 31.105 C 79.146 30.979,79.073 30.763,78.934 30.625 C 78.796 30.486,78.729 30.327,78.786 30.270 C 78.842 30.213,78.797 30.167,78.685 30.167 C 78.572 30.167,78.527 30.092,78.583 30.000 C 78.640 29.908,78.609 29.833,78.515 29.833 C 78.421 29.833,78.392 29.709,78.450 29.556 C 78.529 29.349,78.496 29.314,78.320 29.416 C 78.190 29.492,78.139 29.492,78.206 29.418 C 78.316 29.296,77.766 28.207,77.490 28.000 C 77.428 27.954,77.326 27.748,77.261 27.542 C 77.197 27.335,77.074 27.167,76.989 27.167 C 76.903 27.167,76.833 27.084,76.833 26.984 C 76.833 26.884,76.678 26.584,76.489 26.317 C 76.299 26.051,76.189 25.833,76.244 25.833 C 76.300 25.833,76.122 25.616,75.850 25.350 C 75.578 25.084,75.401 24.822,75.456 24.767 C 75.511 24.712,75.456 24.667,75.333 24.667 C 75.211 24.667,75.158 24.619,75.216 24.561 C 75.274 24.504,75.091 24.241,74.810 23.978 C 74.528 23.715,74.362 23.500,74.441 23.500 C 74.519 23.500,74.377 23.322,74.125 23.105 C 73.873 22.889,73.667 22.629,73.667 22.528 C 73.667 22.427,73.517 22.265,73.333 22.167 C 73.150 22.069,73.000 21.878,73.000 21.744 C 73.000 21.610,72.932 21.500,72.849 21.500 C 72.651 21.500,70.500 19.349,70.500 19.151 C 70.500 19.068,70.401 19.000,70.280 19.000 C 70.159 19.000,69.907 18.831,69.719 18.625 C 69.532 18.419,69.136 18.063,68.839 17.833 C 68.542 17.604,68.213 17.341,68.108 17.248 C 68.003 17.155,67.129 16.557,66.167 15.918 C 65.204 15.280,64.371 14.693,64.315 14.615 C 64.259 14.536,64.164 14.479,64.105 14.488 C 63.917 14.516,61.922 13.465,61.794 13.270 C 61.727 13.167,61.671 13.144,61.669 13.219 C 61.668 13.294,61.385 13.210,61.042 13.033 C 59.764 12.374,56.872 11.333,56.320 11.333 C 56.144 11.333,56.000 11.262,56.000 11.176 C 56.000 11.023,57.040 11.280,58.417 11.773 C 58.783 11.904,59.421 12.126,59.833 12.267 C 62.286 13.106,68.832 16.867,69.113 17.600 C 69.162 17.728,69.273 17.833,69.359 17.833 C 69.445 17.833,69.690 18.021,69.902 18.250 C 70.114 18.479,70.372 18.667,70.474 18.667 C 70.576 18.667,70.782 18.854,70.932 19.083 C 71.082 19.313,71.286 19.500,71.385 19.500 C 71.649 19.500,72.500 20.358,72.500 20.624 C 72.500 20.750,72.564 20.813,72.642 20.765 C 72.829 20.650,73.430 21.312,73.576 21.794 C 73.639 22.002,73.755 22.132,73.833 22.083 C 73.912 22.035,74.024 22.147,74.083 22.333 C 74.142 22.519,74.265 22.625,74.357 22.569 C 74.448 22.513,74.564 22.624,74.614 22.817 C 74.664 23.009,74.772 23.167,74.853 23.167 C 74.934 23.167,75.000 23.284,75.000 23.427 C 75.000 23.569,75.067 23.645,75.149 23.594 C 75.231 23.544,75.345 23.692,75.404 23.925 C 75.462 24.157,75.577 24.305,75.660 24.254 C 75.742 24.203,75.857 24.313,75.916 24.498 C 75.975 24.682,76.097 24.833,76.188 24.833 C 76.279 24.833,76.307 24.908,76.250 25.000 C 76.193 25.092,76.220 25.167,76.310 25.167 C 76.496 25.167,77.269 26.352,77.207 26.542 C 77.185 26.610,77.244 26.667,77.337 26.667 C 77.431 26.667,77.581 26.835,77.669 27.042 C 77.758 27.248,77.962 27.601,78.123 27.826 C 78.351 28.144,78.360 28.206,78.167 28.106 C 78.021 28.030,78.037 28.074,78.206 28.212 C 78.365 28.343,78.446 28.498,78.386 28.558 C 78.327 28.618,78.378 28.667,78.500 28.667 C 78.622 28.667,78.678 28.710,78.625 28.764 C 78.572 28.817,78.677 29.011,78.860 29.193 C 79.043 29.376,79.150 29.636,79.098 29.772 C 79.046 29.907,79.067 29.978,79.145 29.930 C 79.223 29.882,79.419 30.159,79.581 30.546 C 79.743 30.933,79.970 31.475,80.087 31.750 C 80.443 32.592,80.793 33.472,80.916 33.833 C 80.932 33.879,81.032 34.127,81.138 34.384 C 81.245 34.640,81.373 35.084,81.423 35.370 C 81.473 35.655,81.557 35.957,81.608 36.040 C 81.694 36.179,82.068 37.644,82.279 38.667 C 82.326 38.896,82.390 39.196,82.420 39.333 C 82.450 39.471,82.480 39.677,82.487 39.792 C 82.512 40.191,82.833 39.997,82.833 39.583 C 82.833 39.354,82.755 39.167,82.659 39.167 C 82.550 39.167,82.526 38.948,82.594 38.583 C 82.667 38.196,82.640 38.000,82.515 38.000 C 82.398 38.000,82.366 37.844,82.432 37.583 C 82.497 37.323,82.465 37.167,82.348 37.167 C 82.231 37.167,82.200 37.010,82.265 36.750 C 82.332 36.483,82.299 36.333,82.174 36.333 C 82.053 36.333,82.018 36.204,82.083 36.000 C 82.152 35.782,82.113 35.666,81.970 35.664 C 81.789 35.662,81.789 35.637,81.971 35.522 C 82.152 35.406,82.150 35.340,81.957 35.148 C 81.829 35.019,81.754 34.821,81.792 34.707 C 81.830 34.593,81.775 34.500,81.669 34.500 C 81.553 34.500,81.519 34.368,81.583 34.167 C 81.643 33.980,81.613 33.833,81.516 33.833 C 81.421 33.833,81.387 33.721,81.440 33.583 C 81.492 33.446,81.455 33.333,81.356 33.333 C 81.258 33.333,81.220 33.221,81.273 33.083 C 81.326 32.946,81.282 32.833,81.175 32.833 C 81.068 32.833,81.027 32.758,81.083 32.667 C 81.140 32.575,81.109 32.500,81.015 32.500 C 80.921 32.500,80.887 32.388,80.940 32.250 C 80.992 32.113,80.948 32.000,80.841 32.000 C 80.734 32.000,80.693 31.925,80.750 31.833 C 80.807 31.742,80.776 31.667,80.682 31.667 C 80.588 31.667,80.554 31.554,80.606 31.417 C 80.659 31.279,80.615 31.167,80.508 31.167 C 80.401 31.167,80.360 31.092,80.417 31.000 C 80.473 30.908,80.447 30.833,80.359 30.833 C 80.270 30.833,80.240 30.672,80.292 30.474 C 80.373 30.165,80.423 30.210,80.651 30.794 C 80.797 31.167,80.973 31.529,81.042 31.597 C 81.110 31.666,81.167 31.841,81.168 31.986 C 81.168 32.131,81.272 32.448,81.398 32.690 C 81.724 33.315,82.582 36.120,82.742 37.083 C 82.787 37.358,82.907 37.996,83.006 38.500 C 83.106 39.004,83.221 39.679,83.260 40.000 C 83.300 40.321,83.372 40.753,83.420 40.960 C 83.468 41.167,83.545 41.692,83.592 42.127 C 83.639 42.561,83.750 43.466,83.838 44.137 C 83.927 44.808,84.000 45.390,84.000 45.429 C 84.000 45.468,84.121 45.500,84.268 45.500 C 84.471 45.500,84.511 45.398,84.432 45.083 C 84.374 44.854,84.385 44.667,84.455 44.667 C 84.526 44.667,84.591 43.692,84.601 42.500 C 84.612 41.237,84.554 40.333,84.462 40.333 C 84.370 40.333,84.351 40.054,84.417 39.667 C 84.491 39.228,84.467 39.000,84.348 39.000 C 84.248 39.000,84.167 38.883,84.167 38.740 C 84.167 38.597,84.231 38.520,84.309 38.568 C 84.388 38.617,84.416 38.471,84.373 38.245 C 84.330 38.019,84.235 37.833,84.163 37.833 C 84.090 37.833,84.070 37.683,84.118 37.500 C 84.168 37.311,84.123 37.167,84.016 37.167 C 83.898 37.167,83.866 37.011,83.932 36.750 C 83.992 36.511,83.964 36.333,83.867 36.333 C 83.774 36.333,83.737 36.183,83.785 36.000 C 83.833 35.817,83.791 35.667,83.691 35.667 C 83.592 35.667,83.551 35.562,83.600 35.434 C 83.649 35.305,83.613 35.153,83.519 35.095 C 83.425 35.037,83.390 34.879,83.442 34.745 C 83.493 34.610,83.455 34.500,83.356 34.500 C 83.258 34.500,83.220 34.387,83.273 34.250 C 83.326 34.112,83.281 34.000,83.173 34.000 C 83.053 34.000,83.019 33.871,83.083 33.667 C 83.143 33.480,83.113 33.333,83.016 33.333 C 82.921 33.333,82.887 33.221,82.940 33.083 C 82.992 32.946,82.955 32.833,82.856 32.833 C 82.758 32.833,82.720 32.721,82.773 32.583 C 82.826 32.446,82.782 32.333,82.675 32.333 C 82.568 32.333,82.527 32.258,82.583 32.167 C 82.640 32.075,82.609 32.000,82.515 32.000 C 82.421 32.000,82.387 31.887,82.440 31.750 C 82.492 31.612,82.455 31.500,82.356 31.500 C 82.258 31.500,82.220 31.387,82.273 31.250 C 82.326 31.113,82.282 31.000,82.175 31.000 C 82.068 31.000,82.027 30.925,82.083 30.833 C 82.140 30.742,82.109 30.667,82.015 30.667 C 81.921 30.667,81.883 30.564,81.931 30.438 C 81.980 30.312,81.906 30.096,81.768 29.958 C 81.629 29.820,81.562 29.660,81.619 29.603 C 81.676 29.546,81.630 29.500,81.518 29.500 C 81.406 29.500,81.360 29.425,81.417 29.333 C 81.473 29.242,81.436 29.167,81.333 29.167 C 81.231 29.167,81.193 29.092,81.250 29.000 C 81.307 28.908,81.269 28.833,81.167 28.833 C 81.064 28.833,81.022 28.765,81.074 28.683 C 81.186 28.500,80.499 27.167,80.293 27.167 C 80.213 27.167,80.193 27.092,80.250 27.000 C 80.307 26.908,80.269 26.833,80.167 26.833 C 80.064 26.833,80.027 26.758,80.083 26.667 C 80.140 26.575,80.102 26.500,80.000 26.500 C 79.898 26.500,79.855 26.433,79.906 26.351 C 79.957 26.269,79.881 26.157,79.738 26.102 C 79.596 26.047,79.526 25.927,79.583 25.835 C 79.640 25.742,79.602 25.667,79.500 25.667 C 79.398 25.667,79.355 25.600,79.406 25.517 C 79.457 25.435,79.381 25.323,79.238 25.269 C 79.096 25.214,79.026 25.093,79.083 25.001 C 79.140 24.909,79.102 24.833,79.000 24.833 C 78.898 24.833,78.855 24.766,78.906 24.684 C 78.957 24.602,78.881 24.490,78.738 24.435 C 78.596 24.381,78.521 24.268,78.572 24.185 C 78.623 24.103,78.548 23.990,78.405 23.935 C 78.262 23.881,78.187 23.768,78.238 23.685 C 78.290 23.603,78.221 23.492,78.085 23.440 C 77.945 23.387,77.881 23.235,77.937 23.090 C 78.002 22.922,77.939 22.833,77.758 22.833 C 77.605 22.833,77.524 22.763,77.576 22.678 C 77.629 22.593,77.521 22.417,77.337 22.288 C 77.153 22.159,77.052 22.004,77.112 21.943 C 77.173 21.883,77.133 21.833,77.024 21.833 C 76.914 21.833,76.754 21.646,76.667 21.417 C 76.580 21.188,76.427 21.000,76.328 21.000 C 76.228 21.000,76.193 20.925,76.250 20.833 C 76.307 20.742,76.261 20.667,76.149 20.667 C 76.036 20.667,75.989 20.622,76.044 20.567 C 76.188 20.423,76.989 21.042,76.995 21.302 C 76.998 21.421,77.071 21.476,77.157 21.423 C 77.243 21.369,77.443 21.597,77.600 21.928 C 77.757 22.259,77.987 22.569,78.110 22.616 C 78.233 22.664,78.333 22.809,78.333 22.940 C 78.333 23.070,78.446 23.220,78.583 23.273 C 78.721 23.326,78.833 23.446,78.833 23.540 C 78.833 23.634,78.990 23.847,79.182 24.013 C 79.374 24.180,79.484 24.391,79.427 24.484 C 79.369 24.576,79.512 24.776,79.743 24.928 C 79.975 25.079,80.123 25.270,80.072 25.352 C 80.022 25.433,80.064 25.500,80.167 25.500 C 80.269 25.500,80.307 25.575,80.250 25.667 C 80.193 25.758,80.226 25.833,80.323 25.833 C 80.421 25.833,80.500 25.938,80.500 26.066 C 80.500 26.193,80.617 26.343,80.761 26.398 C 80.904 26.453,80.974 26.573,80.917 26.665 C 80.860 26.758,80.895 26.833,80.994 26.833 C 81.140 26.833,81.496 27.450,81.572 27.833 C 81.678 28.366,82.333 28.510,82.333 28.000 C 82.333 27.817,82.261 27.667,82.172 27.667 C 82.083 27.667,82.054 27.554,82.106 27.417 C 82.159 27.279,82.122 27.167,82.023 27.167 C 81.924 27.167,81.887 27.054,81.940 26.917 C 81.992 26.779,81.948 26.667,81.841 26.667 C 81.734 26.667,81.693 26.592,81.750 26.500 C 81.807 26.408,81.769 26.333,81.667 26.333 C 81.564 26.333,81.527 26.258,81.583 26.167 C 81.640 26.075,81.602 26.000,81.500 26.000 C 81.398 26.000,81.360 25.925,81.417 25.833 C 81.473 25.742,81.436 25.667,81.333 25.667 C 81.231 25.667,81.193 25.592,81.250 25.500 C 81.307 25.408,81.269 25.333,81.167 25.333 C 81.064 25.333,81.027 25.258,81.083 25.167 C 81.140 25.075,81.094 25.000,80.982 25.000 C 80.870 25.000,80.827 24.951,80.886 24.891 C 80.946 24.832,80.865 24.676,80.706 24.546 C 80.547 24.415,80.509 24.355,80.622 24.412 C 80.747 24.475,80.716 24.322,80.543 24.021 C 80.387 23.749,80.189 23.569,80.104 23.622 C 80.018 23.675,80.001 23.634,80.065 23.530 C 80.217 23.283,79.681 22.472,79.456 22.611 C 79.354 22.673,79.332 22.638,79.401 22.525 C 79.468 22.416,79.407 22.287,79.262 22.231 C 79.119 22.177,79.042 22.067,79.090 21.989 C 79.139 21.910,79.032 21.699,78.853 21.520 C 78.674 21.341,78.572 21.151,78.625 21.097 C 78.678 21.044,78.593 21.000,78.435 21.000 C 78.276 21.000,78.185 20.939,78.231 20.864 C 78.278 20.789,78.169 20.622,77.991 20.494 C 77.813 20.365,77.667 20.164,77.667 20.047 C 77.667 19.929,77.587 19.833,77.490 19.833 C 77.393 19.833,77.360 19.758,77.417 19.667 C 77.473 19.575,77.394 19.500,77.239 19.500 C 76.998 19.500,76.990 19.462,77.188 19.223 C 77.367 19.006,77.371 18.931,77.207 18.875 C 77.092 18.837,77.040 18.736,77.092 18.652 C 77.144 18.569,77.102 18.500,77.000 18.500 C 76.898 18.500,76.860 18.425,76.917 18.333 C 76.973 18.242,76.936 18.167,76.833 18.167 C 76.731 18.167,76.693 18.092,76.750 18.000 C 76.807 17.908,76.769 17.833,76.667 17.833 C 76.564 17.833,76.527 17.758,76.583 17.667 C 76.640 17.575,76.594 17.500,76.482 17.500 C 76.370 17.500,76.319 17.459,76.370 17.408 C 76.421 17.357,76.786 17.536,77.182 17.806 C 77.577 18.076,78.013 18.254,78.151 18.201 C 78.320 18.136,78.336 18.084,78.199 18.039 C 78.088 18.002,78.040 17.904,78.091 17.820 C 78.143 17.737,77.993 17.478,77.759 17.244 C 77.525 17.010,77.333 16.742,77.333 16.649 C 77.333 16.556,77.258 16.527,77.165 16.584 C 77.073 16.641,76.949 16.560,76.888 16.403 C 76.747 16.034,74.800 14.087,74.430 13.945 C 74.274 13.885,74.192 13.760,74.249 13.668 C 74.307 13.575,74.161 13.426,73.927 13.337 C 73.692 13.248,73.500 13.098,73.500 13.004 C 73.500 12.910,73.392 12.833,73.259 12.833 C 73.127 12.833,72.902 12.667,72.759 12.463 C 72.617 12.259,72.500 12.150,72.500 12.220 C 72.500 12.291,72.309 12.158,72.076 11.924 C 71.842 11.691,71.575 11.500,71.483 11.500 C 71.390 11.500,71.359 11.426,71.415 11.335 C 71.474 11.241,71.407 11.213,71.260 11.269 C 71.109 11.327,70.961 11.258,70.901 11.102 C 70.844 10.955,70.745 10.868,70.680 10.909 C 70.614 10.949,70.368 10.803,70.132 10.584 C 69.896 10.365,69.659 10.230,69.605 10.284 C 69.552 10.337,69.461 10.258,69.403 10.108 C 69.346 9.958,69.243 9.870,69.174 9.912 C 69.106 9.954,68.905 9.860,68.727 9.703 C 68.549 9.545,68.294 9.394,68.160 9.366 C 68.026 9.338,67.834 9.208,67.734 9.077 C 67.633 8.946,67.502 8.887,67.442 8.947 C 67.382 9.007,67.333 8.964,67.333 8.851 C 67.333 8.739,67.258 8.693,67.167 8.750 C 67.075 8.807,67.000 8.769,67.000 8.667 C 67.000 8.564,66.925 8.527,66.833 8.583 C 66.742 8.640,66.666 8.551,66.664 8.385 C 66.662 8.158,66.627 8.138,66.522 8.304 C 66.408 8.484,66.335 8.478,66.127 8.270 C 65.987 8.130,65.827 8.062,65.770 8.119 C 65.713 8.176,65.667 8.130,65.667 8.018 C 65.667 7.906,65.592 7.860,65.500 7.917 C 65.408 7.973,65.333 7.936,65.333 7.833 C 65.333 7.731,65.258 7.693,65.167 7.750 C 65.075 7.807,64.994 7.717,64.987 7.552 C 64.980 7.386,64.937 7.339,64.893 7.448 C 64.839 7.582,64.704 7.538,64.479 7.313 C 64.296 7.129,64.057 7.009,63.949 7.045 C 63.841 7.081,63.649 7.006,63.522 6.879 C 63.394 6.752,63.188 6.687,63.062 6.735 C 62.936 6.783,62.833 6.746,62.833 6.652 C 62.833 6.557,62.766 6.522,62.684 6.573 C 62.602 6.623,62.486 6.536,62.425 6.379 C 62.331 6.134,62.293 6.128,62.160 6.338 C 62.046 6.519,62.004 6.526,62.003 6.365 C 62.001 6.245,61.925 6.193,61.833 6.250 C 61.742 6.307,61.667 6.266,61.667 6.159 C 61.667 6.052,61.554 6.008,61.417 6.060 C 61.279 6.113,61.167 6.076,61.167 5.977 C 61.167 5.878,61.060 5.838,60.930 5.888 C 60.801 5.938,60.657 5.883,60.612 5.765 C 60.513 5.506,59.098 5.086,58.847 5.242 C 58.748 5.303,58.667 5.266,58.667 5.159 C 58.667 5.052,58.554 5.008,58.417 5.060 C 58.279 5.113,58.167 5.075,58.167 4.975 C 58.167 4.876,58.017 4.834,57.833 4.882 C 57.650 4.930,57.500 4.909,57.500 4.836 C 57.500 4.762,57.384 4.658,57.241 4.603 C 57.093 4.546,57.026 4.574,57.085 4.669 C 57.141 4.759,57.107 4.833,57.010 4.833 C 56.913 4.833,56.833 4.750,56.833 4.647 C 56.833 4.543,56.686 4.500,56.500 4.548 C 56.317 4.596,56.167 4.559,56.167 4.466 C 56.167 4.369,55.989 4.342,55.750 4.402 C 55.490 4.467,55.333 4.436,55.333 4.318 C 55.333 4.201,55.177 4.170,54.917 4.235 C 54.657 4.300,54.500 4.269,54.500 4.152 C 54.500 4.035,54.343 4.003,54.083 4.068 C 53.823 4.134,53.667 4.102,53.667 3.985 C 53.667 3.860,53.470 3.833,53.083 3.906 C 52.756 3.967,52.500 3.947,52.500 3.860 C 52.500 3.774,52.279 3.672,52.009 3.632 C 51.739 3.593,51.556 3.622,51.602 3.697 C 51.648 3.772,51.569 3.833,51.427 3.833 C 51.284 3.833,51.167 3.749,51.167 3.645 C 51.167 3.514,50.865 3.491,50.167 3.570 C 49.508 3.645,49.167 3.624,49.167 3.508 C 49.167 3.394,48.301 3.333,46.667 3.333 C 45.032 3.333,44.167 3.394,44.167 3.508 M53.675 10.425 C 54.445 10.524,54.977 10.745,54.821 10.902 C 54.721 11.001,51.679 10.401,51.531 10.253 C 51.438 10.160,51.906 10.197,53.675 10.425 M73.225 19.539 C 73.906 20.359,73.893 20.605,73.206 19.899 C 72.513 19.187,72.268 18.833,72.466 18.833 C 72.561 18.833,72.903 19.151,73.225 19.539 M75.333 22.000 C 75.541 22.389,75.412 22.436,75.071 22.095 C 74.794 21.818,74.767 21.667,74.994 21.667 C 75.083 21.667,75.235 21.817,75.333 22.000 M76.030 22.917 C 76.135 23.146,76.271 23.333,76.334 23.333 C 76.396 23.333,76.589 23.596,76.762 23.917 C 76.934 24.238,77.134 24.500,77.205 24.500 C 77.275 24.500,77.333 24.613,77.333 24.750 C 77.333 24.887,77.408 25.000,77.500 25.000 C 77.592 25.000,77.667 25.113,77.667 25.250 C 77.667 25.457,77.614 25.450,77.360 25.208 C 77.191 25.048,77.083 24.860,77.120 24.792 C 77.156 24.723,77.107 24.667,77.010 24.667 C 76.913 24.667,76.833 24.558,76.833 24.426 C 76.833 24.294,76.684 24.081,76.501 23.953 C 76.318 23.825,76.217 23.672,76.275 23.614 C 76.333 23.556,76.258 23.461,76.108 23.403 C 75.958 23.346,75.874 23.236,75.920 23.161 C 75.967 23.085,75.838 22.905,75.632 22.761 C 75.322 22.544,75.308 22.500,75.550 22.500 C 75.710 22.500,75.926 22.688,76.030 22.917 M78.471 26.557 C 78.544 26.931,78.293 26.907,78.049 26.516 C 77.882 26.249,77.895 26.205,78.134 26.240 C 78.289 26.263,78.441 26.406,78.471 26.557 M78.988 27.311 C 79.080 27.483,79.108 27.670,79.050 27.728 C 78.992 27.786,79.024 27.833,79.121 27.833 C 79.218 27.833,79.341 27.946,79.394 28.083 C 79.453 28.238,79.393 28.333,79.235 28.333 C 79.095 28.333,79.023 28.265,79.075 28.181 C 79.126 28.097,79.089 28.002,78.992 27.970 C 78.895 27.937,78.795 27.775,78.771 27.609 C 78.746 27.443,78.619 27.239,78.488 27.156 C 78.292 27.032,78.301 27.005,78.536 27.003 C 78.693 27.001,78.897 27.140,78.988 27.311 M80.516 55.620 C 80.302 55.989,80.254 55.562,80.453 55.055 C 80.563 54.776,80.578 54.775,80.631 55.036 C 80.663 55.194,80.611 55.456,80.516 55.620 M79.209 62.587 C 79.219 62.677,79.082 62.767,78.905 62.789 C 78.728 62.810,78.678 62.785,78.793 62.733 C 78.908 62.681,78.954 62.560,78.895 62.464 C 78.835 62.368,78.878 62.320,78.989 62.358 C 79.101 62.395,79.199 62.498,79.209 62.587 M78.833 63.215 C 78.833 63.333,78.609 63.689,78.334 64.006 C 78.060 64.324,77.880 64.452,77.935 64.292 C 77.991 64.131,78.107 64.000,78.194 64.000 C 78.282 64.000,78.307 63.925,78.250 63.833 C 78.193 63.742,78.231 63.667,78.333 63.667 C 78.436 63.667,78.473 63.592,78.417 63.500 C 78.360 63.408,78.398 63.333,78.500 63.333 C 78.602 63.333,78.640 63.258,78.583 63.167 C 78.527 63.075,78.560 63.000,78.657 63.000 C 78.754 63.000,78.833 63.097,78.833 63.215 M69.093 74.761 C 68.254 75.501,65.802 77.178,64.859 77.656 C 64.086 78.048,63.709 78.021,64.361 77.621 C 65.529 76.902,68.173 75.138,68.750 74.692 C 69.656 73.991,69.908 74.041,69.093 74.761 M23.980 75.744 C 25.801 77.052,28.039 78.430,29.698 79.266 C 30.341 79.590,30.821 79.901,30.765 79.957 C 30.336 80.387,22.000 75.163,22.000 74.464 C 22.000 74.351,22.070 74.348,22.208 74.457 C 22.323 74.547,23.120 75.126,23.980 75.744 M59.167 81.317 C 55.286 83.496,43.356 84.206,38.281 82.560 C 37.007 82.146,37.413 82.162,40.001 82.624 C 45.535 83.614,54.372 83.007,58.500 81.355 C 59.045 81.136,59.538 81.109,59.167 81.317 " stroke="none" fill="#040404" fill-rule="evenodd"></path><path id="path2" d="M48.033 27.194 C 47.969 27.254,47.318 27.504,46.585 27.747 C 44.416 28.470,39.944 30.981,39.174 31.908 C 39.058 32.048,38.896 32.122,38.814 32.072 C 38.733 32.021,38.667 32.064,38.667 32.167 C 38.667 32.269,38.580 32.299,38.474 32.234 C 38.363 32.165,38.327 32.188,38.389 32.289 C 38.448 32.384,38.385 32.555,38.248 32.668 C 38.112 32.781,38.000 32.825,38.000 32.765 C 38.000 32.704,37.767 32.920,37.483 33.244 C 37.199 33.567,36.887 33.783,36.791 33.724 C 36.694 33.664,36.661 33.690,36.718 33.781 C 36.835 33.971,35.836 34.773,35.583 34.692 C 35.492 34.663,35.474 34.696,35.543 34.765 C 35.715 34.937,34.995 35.683,34.783 35.552 C 34.691 35.495,34.664 35.527,34.723 35.623 C 34.782 35.719,34.472 36.181,34.032 36.649 C 33.593 37.117,33.259 37.500,33.290 37.500 C 33.321 37.500,32.692 38.306,31.893 39.292 C 31.093 40.277,30.372 41.063,30.290 41.038 C 30.209 41.012,30.186 41.063,30.240 41.150 C 30.293 41.237,29.673 42.428,28.861 43.796 C 23.721 52.457,23.304 59.768,27.819 62.079 C 29.392 62.884,30.084 63.000,33.318 63.000 C 36.677 63.000,38.979 62.656,41.070 61.843 C 41.338 61.738,41.657 61.691,41.779 61.738 C 41.900 61.785,42.000 61.766,42.000 61.696 C 42.000 61.627,42.694 61.286,43.542 60.940 C 44.390 60.593,45.218 60.237,45.382 60.149 C 45.546 60.061,45.752 60.033,45.840 60.088 C 45.928 60.142,46.000 60.107,46.000 60.010 C 46.000 59.913,46.079 59.833,46.177 59.833 C 46.274 59.833,46.299 59.927,46.233 60.042 C 46.166 60.156,46.308 60.044,46.548 59.792 C 46.944 59.375,47.188 59.258,47.542 59.314 C 47.610 59.324,47.667 59.254,47.667 59.157 C 47.667 59.060,47.742 59.027,47.833 59.083 C 47.925 59.140,48.000 59.102,48.000 59.000 C 48.000 58.898,48.075 58.860,48.167 58.917 C 48.258 58.973,48.333 58.942,48.333 58.847 C 48.333 58.631,49.587 57.976,49.729 58.118 C 49.787 58.175,49.833 58.137,49.833 58.033 C 49.833 57.929,49.929 57.881,50.046 57.926 C 50.164 57.971,50.407 57.888,50.588 57.741 C 50.769 57.595,50.823 57.523,50.708 57.581 C 50.594 57.639,50.500 57.646,50.500 57.597 C 50.500 57.484,51.471 56.978,51.574 57.038 C 51.617 57.063,51.774 56.933,51.922 56.750 C 52.070 56.567,52.143 56.529,52.083 56.667 C 52.024 56.804,52.098 56.767,52.247 56.583 C 52.396 56.400,52.627 56.272,52.759 56.299 C 52.892 56.326,53.000 56.248,53.000 56.126 C 53.000 55.924,55.086 54.422,55.372 54.418 C 55.439 54.417,55.615 54.243,55.764 54.030 C 55.913 53.818,56.130 53.681,56.247 53.726 C 56.363 53.770,56.543 53.621,56.647 53.394 C 56.750 53.167,56.906 53.025,56.992 53.079 C 57.079 53.132,57.232 53.022,57.333 52.833 C 57.434 52.645,57.584 52.532,57.667 52.583 C 57.749 52.634,57.984 52.449,58.190 52.171 C 58.395 51.894,58.663 51.667,58.787 51.667 C 58.910 51.667,59.054 51.554,59.106 51.417 C 59.159 51.279,59.273 51.167,59.359 51.167 C 59.446 51.167,59.947 50.735,60.474 50.208 C 61.000 49.681,61.653 49.057,61.924 48.820 C 63.440 47.499,66.500 44.184,66.500 43.864 C 66.500 42.841,65.249 42.841,64.376 43.863 C 63.536 44.848,58.919 49.498,58.781 49.499 C 58.706 49.500,58.456 49.725,58.224 50.000 C 57.993 50.275,57.743 50.500,57.669 50.500 C 57.594 50.500,57.273 50.744,56.954 51.042 C 55.637 52.272,53.857 53.535,53.633 53.396 C 53.532 53.333,53.495 53.356,53.551 53.448 C 53.692 53.675,52.709 54.377,52.455 54.231 C 52.342 54.166,52.307 54.176,52.376 54.252 C 52.606 54.506,49.671 56.270,49.410 56.034 C 49.339 55.970,49.331 56.005,49.392 56.113 C 49.500 56.301,48.917 56.611,48.613 56.529 C 48.537 56.508,48.523 56.569,48.581 56.663 C 48.639 56.756,48.611 56.833,48.519 56.833 C 48.427 56.833,47.660 57.167,46.814 57.575 C 45.968 57.983,45.213 58.279,45.138 58.232 C 45.062 58.185,45.000 58.218,45.000 58.304 C 45.000 58.390,44.869 58.500,44.708 58.548 C 44.548 58.596,43.892 58.821,43.250 59.048 C 40.541 60.009,37.092 60.243,35.066 59.603 C 34.187 59.326,32.591 58.091,32.759 57.819 C 32.811 57.735,32.782 57.667,32.695 57.667 C 32.607 57.667,32.490 57.482,32.433 57.257 C 32.377 57.032,32.245 56.638,32.139 56.382 C 32.034 56.126,31.937 55.842,31.923 55.750 C 31.909 55.658,31.840 55.457,31.769 55.303 C 31.634 55.010,31.722 53.063,31.922 51.917 C 31.987 51.550,32.033 51.044,32.026 50.792 C 32.019 50.540,32.076 50.333,32.152 50.333 C 32.282 50.333,32.399 49.863,32.611 48.500 C 32.661 48.179,32.768 47.835,32.849 47.735 C 32.931 47.635,32.948 47.503,32.887 47.443 C 32.827 47.383,32.869 47.333,32.980 47.333 C 33.090 47.333,33.162 47.240,33.139 47.125 C 33.116 47.010,33.200 46.729,33.327 46.500 C 33.453 46.271,33.554 46.046,33.551 46.000 C 33.549 45.954,33.627 45.692,33.726 45.417 C 33.825 45.142,33.890 44.860,33.870 44.792 C 33.850 44.723,33.913 44.667,34.010 44.667 C 34.107 44.667,34.144 44.598,34.092 44.513 C 34.040 44.429,34.119 44.238,34.268 44.089 C 34.418 43.940,34.500 43.777,34.450 43.728 C 34.158 43.436,35.060 43.000,35.958 43.000 C 36.485 43.000,37.742 42.922,38.750 42.828 C 40.405 42.673,41.029 42.554,43.250 41.972 C 48.523 40.590,54.039 35.755,54.768 31.876 C 54.824 31.579,54.918 31.366,54.977 31.403 C 55.091 31.473,55.041 29.826,54.911 29.221 C 54.804 28.723,54.067 27.880,53.438 27.536 C 52.900 27.241,48.290 26.949,48.033 27.194 M49.039 29.487 C 49.603 29.991,49.793 31.402,49.415 32.276 C 49.342 32.445,49.298 32.715,49.318 32.875 C 49.338 33.035,49.282 33.167,49.193 33.167 C 49.104 33.167,49.063 33.298,49.102 33.458 C 49.187 33.806,48.134 35.917,47.875 35.917 C 47.776 35.917,47.632 35.985,47.556 36.068 C 47.475 36.157,47.504 36.170,47.625 36.100 C 47.743 36.032,47.833 36.068,47.833 36.183 C 47.833 36.554,45.093 39.075,43.998 39.710 C 42.990 40.295,42.498 40.503,40.988 40.979 C 40.295 41.197,36.190 41.229,35.858 41.019 C 35.051 40.507,43.188 30.217,44.117 30.573 C 44.234 30.618,44.311 30.564,44.290 30.452 C 44.238 30.188,46.330 29.128,46.708 29.226 C 46.869 29.268,47.000 29.234,47.000 29.151 C 47.000 28.757,48.499 29.004,49.039 29.487 " stroke="none" fill="#e32444" fill-rule="evenodd"></path><path id="path3" d="M49.375 27.124 C 49.994 27.156,51.006 27.156,51.625 27.124 C 52.244 27.092,51.737 27.065,50.500 27.065 C 49.262 27.065,48.756 27.092,49.375 27.124 M53.680 27.712 C 57.429 30.239,52.568 38.433,45.788 41.016 C 45.259 41.217,44.856 41.412,44.893 41.448 C 45.261 41.816,49.502 39.309,51.149 37.750 C 55.110 33.999,56.448 28.936,53.835 27.584 C 53.118 27.213,53.038 27.280,53.680 27.712 M44.917 28.239 C 43.822 28.766,44.035 28.783,45.187 28.260 C 45.680 28.036,46.008 27.849,45.917 27.845 C 45.825 27.841,45.375 28.018,44.917 28.239 M43.083 29.138 C 41.885 29.807,39.886 31.114,39.767 31.306 C 39.712 31.396,40.324 31.036,41.129 30.507 C 41.933 29.978,42.908 29.384,43.296 29.186 C 43.683 28.988,44.000 28.791,44.000 28.747 C 44.000 28.628,43.986 28.634,43.083 29.138 M47.000 29.129 C 47.000 29.200,47.292 29.258,47.649 29.258 C 49.029 29.258,49.465 29.901,49.294 31.686 C 49.243 32.212,49.272 32.461,49.372 32.362 C 49.823 31.910,49.601 29.990,49.039 29.487 C 48.515 29.019,47.000 28.752,47.000 29.129 M45.522 29.587 C 44.534 30.046,42.963 31.246,41.887 32.361 C 39.484 34.853,35.395 40.726,35.859 41.019 C 36.190 41.229,40.296 41.197,40.988 40.979 C 42.504 40.501,42.989 40.295,43.981 39.710 C 46.351 38.314,49.792 34.070,49.109 33.387 C 49.054 33.332,48.928 33.504,48.828 33.769 C 47.053 38.477,41.820 41.603,36.856 40.920 L 36.027 40.806 36.624 39.778 C 39.587 34.680,44.578 29.500,46.527 29.500 C 46.695 29.500,46.833 29.425,46.833 29.333 C 46.833 29.071,46.486 29.138,45.522 29.587 M37.018 33.460 C 36.100 34.243,34.963 35.353,34.023 36.387 C 32.630 37.919,33.433 37.255,35.635 35.052 C 36.856 33.832,37.831 32.834,37.802 32.835 C 37.773 32.837,37.421 33.118,37.018 33.460 M31.734 39.160 C 28.606 43.100,24.240 51.962,25.035 52.757 C 25.073 52.796,25.200 52.435,25.317 51.955 C 26.226 48.207,29.024 42.833,31.944 39.231 C 32.715 38.279,33.280 37.500,33.199 37.500 C 33.118 37.500,32.458 38.247,31.734 39.160 M43.750 41.848 C 43.292 42.024,43.120 42.131,43.368 42.083 C 43.952 41.972,44.667 41.699,44.667 41.587 C 44.667 41.539,44.648 41.506,44.625 41.513 C 44.602 41.520,44.208 41.671,43.750 41.848 M41.417 42.421 C 40.529 42.714,41.029 42.713,42.083 42.421 C 42.543 42.293,42.730 42.192,42.500 42.195 C 42.271 42.199,41.783 42.300,41.417 42.421 M38.128 42.954 C 38.428 42.991,38.878 42.990,39.128 42.952 C 39.378 42.914,39.133 42.884,38.583 42.885 C 38.033 42.886,37.828 42.917,38.128 42.954 M64.708 43.264 C 64.410 43.499,64.167 43.778,64.167 43.885 C 64.167 43.992,64.352 43.880,64.578 43.636 C 65.141 43.029,65.591 42.916,66.133 43.246 L 66.583 43.520 66.190 43.177 C 65.675 42.728,65.366 42.746,64.708 43.264 M35.288 43.120 C 35.584 43.157,36.109 43.158,36.455 43.122 C 36.800 43.086,36.558 43.055,35.917 43.055 C 35.275 43.054,34.992 43.083,35.288 43.120 M61.253 46.834 C 59.788 48.300,58.657 49.500,58.741 49.500 C 58.929 49.500,63.630 44.862,63.852 44.458 C 64.115 43.978,64.020 44.064,61.253 46.834 M64.424 46.292 C 63.328 47.415,62.482 48.333,62.543 48.333 C 62.667 48.333,62.897 48.109,65.071 45.869 C 65.889 45.026,66.526 44.316,66.487 44.293 C 66.448 44.269,65.520 45.169,64.424 46.292 M32.753 47.875 C 32.714 47.990,32.643 48.383,32.593 48.750 C 32.480 49.592,32.750 49.167,32.884 48.292 C 32.975 47.690,32.898 47.443,32.753 47.875 M61.016 49.671 C 60.338 50.313,59.817 50.872,59.859 50.914 C 59.901 50.956,60.491 50.430,61.172 49.745 C 62.730 48.176,62.641 48.133,61.016 49.671 M57.884 50.078 C 57.627 50.304,57.497 50.492,57.596 50.495 C 57.695 50.498,57.951 50.313,58.167 50.083 C 58.670 49.548,58.491 49.544,57.884 50.078 M32.053 50.685 C 32.103 50.878,32.078 51.213,31.995 51.429 C 31.913 51.645,31.909 51.860,31.985 51.907 C 32.062 51.955,32.170 51.714,32.227 51.372 C 32.372 50.496,32.359 50.333,32.147 50.333 C 32.040 50.333,32.000 50.482,32.053 50.685 M56.902 50.850 C 56.032 51.811,48.899 56.667,48.356 56.667 C 48.287 56.667,48.085 56.779,47.907 56.916 C 47.612 57.144,47.628 57.147,48.083 56.957 C 49.637 56.309,54.029 53.494,56.007 51.880 C 57.035 51.040,57.403 50.681,57.318 50.596 C 57.264 50.542,57.077 50.656,56.902 50.850 M58.173 52.208 L 57.783 52.750 58.308 52.260 C 58.865 51.742,58.914 51.667,58.698 51.667 C 58.624 51.667,58.387 51.910,58.173 52.208 M31.768 52.597 C 31.601 53.032,31.654 55.306,31.833 55.417 C 31.940 55.483,32.000 54.946,32.000 53.927 C 32.000 52.336,31.959 52.100,31.768 52.597 M24.688 54.250 C 24.451 55.841,24.450 56.917,24.683 58.003 C 24.938 59.194,25.033 58.953,24.801 57.705 C 24.657 56.931,24.658 56.241,24.805 54.895 C 25.032 52.815,24.960 52.419,24.688 54.250 M55.880 53.875 C 55.480 54.392,55.485 54.548,55.890 54.179 C 56.134 53.957,56.333 53.751,56.333 53.721 C 56.333 53.583,56.024 53.688,55.880 53.875 M54.167 55.125 C 53.571 55.535,53.057 55.941,53.025 56.027 C 52.958 56.207,54.386 55.333,54.982 54.829 C 55.718 54.206,55.260 54.373,54.167 55.125 M51.124 57.163 C 50.507 57.544,50.405 57.661,50.775 57.561 C 51.141 57.463,51.756 57.030,51.654 56.941 C 51.615 56.907,51.377 57.007,51.124 57.163 M46.833 57.417 C 46.604 57.548,46.492 57.655,46.583 57.655 C 46.675 57.655,46.938 57.548,47.167 57.417 C 47.396 57.286,47.508 57.178,47.417 57.178 C 47.325 57.178,47.063 57.286,46.833 57.417 M33.168 58.418 C 33.746 59.015,34.912 59.677,35.344 59.654 C 35.476 59.647,35.355 59.553,35.076 59.446 C 34.311 59.151,33.442 58.561,33.207 58.176 C 33.092 57.988,32.908 57.833,32.799 57.833 C 32.690 57.833,32.856 58.097,33.168 58.418 M48.958 58.353 C 48.615 58.530,48.333 58.709,48.333 58.751 C 48.333 58.814,49.414 58.374,49.653 58.213 C 49.980 57.993,49.449 58.100,48.958 58.353 M25.005 59.083 C 25.002 59.433,26.004 60.973,26.512 61.402 C 29.123 63.598,35.064 64.014,39.917 62.340 C 40.592 62.108,40.051 62.195,38.012 62.650 C 32.352 63.911,27.072 62.722,25.504 59.833 C 25.230 59.329,25.005 58.992,25.005 59.083 M41.609 59.341 C 41.164 59.416,40.758 59.520,40.705 59.573 C 40.564 59.714,42.208 59.479,42.500 59.316 C 42.789 59.155,42.705 59.158,41.609 59.341 M46.944 59.436 C 46.683 59.577,46.505 59.727,46.547 59.769 C 46.658 59.881,47.500 59.472,47.500 59.307 C 47.500 59.131,47.511 59.129,46.944 59.436 M36.035 59.858 C 36.549 60.004,39.092 60.009,39.900 59.865 C 40.277 59.798,39.522 59.750,38.101 59.750 C 36.754 59.750,35.825 59.799,36.035 59.858 M43.750 60.833 C 42.428 61.460,42.664 61.464,44.109 60.839 C 44.736 60.568,45.137 60.348,45.000 60.352 C 44.862 60.356,44.300 60.572,43.750 60.833 M40.917 61.911 C 40.642 62.037,40.529 62.142,40.667 62.146 C 40.804 62.149,41.142 62.049,41.417 61.923 C 41.692 61.797,41.804 61.691,41.667 61.688 C 41.529 61.684,41.192 61.785,40.917 61.911 " stroke="none" fill="#ed8c9f" fill-rule="evenodd"></path><path id="path4" d="M67.680 8.952 C 67.673 9.064,67.817 9.235,68.000 9.333 C 68.226 9.454,68.333 9.456,68.333 9.339 C 68.333 9.244,68.227 9.167,68.097 9.167 C 67.967 9.167,67.823 9.073,67.777 8.958 C 67.714 8.801,67.690 8.800,67.680 8.952 M68.500 9.458 C 68.500 9.529,68.650 9.680,68.833 9.795 C 69.017 9.909,69.167 9.945,69.167 9.875 C 69.167 9.804,69.017 9.653,68.833 9.539 C 68.650 9.424,68.500 9.388,68.500 9.458 M51.688 10.332 C 51.837 10.421,52.301 10.516,52.720 10.543 C 53.139 10.570,53.534 10.646,53.599 10.710 C 53.663 10.774,53.904 10.780,54.133 10.723 C 54.423 10.650,54.514 10.676,54.432 10.809 C 54.362 10.921,54.421 11.000,54.573 11.000 C 54.927 11.000,54.903 10.710,54.542 10.603 C 53.635 10.337,51.328 10.118,51.688 10.332 M69.839 10.288 C 69.846 10.476,70.667 11.044,70.667 10.860 C 70.667 10.775,70.479 10.582,70.250 10.432 C 70.021 10.282,69.836 10.217,69.839 10.288 M56.000 11.176 C 56.000 11.262,56.144 11.333,56.320 11.333 C 56.872 11.333,59.764 12.374,61.042 13.033 C 61.385 13.210,61.668 13.294,61.669 13.219 C 61.671 13.144,61.727 13.167,61.794 13.270 C 61.982 13.556,64.050 14.572,64.333 14.517 C 64.471 14.490,64.531 14.522,64.466 14.587 C 64.402 14.653,65.077 15.194,65.966 15.789 C 67.447 16.781,67.758 16.945,68.250 16.990 C 68.342 16.998,68.304 17.078,68.167 17.167 C 67.915 17.329,68.124 17.425,68.559 17.347 C 68.638 17.333,68.821 17.418,68.966 17.536 C 69.112 17.654,69.183 17.670,69.124 17.572 C 69.066 17.474,68.551 17.067,67.980 16.666 C 67.409 16.266,67.003 16.037,67.078 16.157 C 67.170 16.307,67.139 16.350,66.982 16.292 C 66.854 16.246,66.767 16.128,66.788 16.031 C 66.871 15.650,61.992 13.011,59.833 12.269 C 59.421 12.127,58.783 11.904,58.417 11.773 C 57.040 11.280,56.000 11.023,56.000 11.176 M70.833 11.075 C 70.833 11.121,71.058 11.274,71.333 11.417 C 71.608 11.559,71.833 11.638,71.833 11.592 C 71.833 11.546,71.608 11.392,71.333 11.250 C 71.058 11.108,70.833 11.029,70.833 11.075 M21.762 11.420 C 21.586 11.554,21.474 11.696,21.515 11.737 C 21.555 11.777,21.775 11.667,22.002 11.492 C 22.230 11.317,22.342 11.175,22.250 11.176 C 22.158 11.177,21.939 11.287,21.762 11.420 M19.750 13.000 C 19.584 13.183,19.501 13.333,19.564 13.333 C 19.628 13.333,19.842 13.183,20.038 13.000 C 20.235 12.817,20.319 12.667,20.224 12.667 C 20.129 12.667,19.916 12.817,19.750 13.000 M59.667 13.954 C 59.667 14.031,60.230 14.373,60.919 14.713 C 62.263 15.378,62.790 15.534,61.833 14.984 C 61.293 14.673,61.436 14.644,62.250 14.900 C 62.433 14.958,62.171 14.810,61.667 14.570 C 61.163 14.331,60.597 14.119,60.410 14.099 C 60.222 14.079,59.979 14.006,59.868 13.938 C 59.757 13.870,59.667 13.877,59.667 13.954 M36.159 14.649 C 34.393 15.364,33.088 16.004,32.583 16.404 C 32.400 16.549,33.075 16.267,34.083 15.777 C 35.092 15.286,36.292 14.748,36.750 14.582 C 37.460 14.323,38.073 13.993,37.825 14.003 C 37.784 14.005,37.034 14.295,36.159 14.649 M18.167 14.417 C 18.051 14.556,18.033 14.667,18.126 14.667 C 18.218 14.667,18.386 14.554,18.500 14.417 C 18.616 14.277,18.634 14.167,18.541 14.167 C 18.449 14.167,18.281 14.279,18.167 14.417 M55.833 14.236 C 55.833 14.275,56.340 14.473,56.958 14.678 C 57.577 14.882,58.752 15.338,59.570 15.691 C 60.387 16.044,61.084 16.305,61.117 16.272 C 61.201 16.188,58.500 15.038,57.096 14.560 C 55.854 14.137,55.833 14.132,55.833 14.236 M75.667 15.083 C 75.978 15.404,76.270 15.667,76.315 15.667 C 76.361 15.667,76.144 15.404,75.833 15.083 C 75.522 14.762,75.230 14.500,75.185 14.500 C 75.139 14.500,75.356 14.762,75.667 15.083 M63.000 15.219 C 63.000 15.331,65.431 16.834,65.606 16.830 C 65.739 16.827,65.278 16.522,63.625 15.519 C 63.281 15.310,63.000 15.175,63.000 15.219 M64.156 16.468 C 64.379 16.649,64.791 16.924,65.072 17.079 L 65.583 17.361 65.178 17.032 C 64.955 16.851,64.542 16.576,64.261 16.421 L 63.750 16.139 64.156 16.468 M62.564 17.175 C 63.195 17.543,63.736 17.819,63.768 17.788 C 63.843 17.713,61.765 16.499,61.569 16.503 C 61.485 16.505,61.933 16.807,62.564 17.175 M15.667 16.917 C 15.549 17.059,15.490 17.212,15.536 17.258 C 15.582 17.304,15.716 17.225,15.833 17.083 C 15.951 16.941,16.010 16.788,15.964 16.742 C 15.918 16.696,15.784 16.775,15.667 16.917 M31.034 17.196 C 30.549 17.477,30.183 17.739,30.222 17.778 C 30.281 17.837,31.929 16.944,32.153 16.732 C 32.386 16.512,31.788 16.760,31.034 17.196 M68.667 17.725 C 68.667 17.763,68.863 17.924,69.104 18.081 C 69.344 18.239,69.494 18.292,69.436 18.198 C 69.378 18.105,69.409 17.990,69.503 17.943 C 69.598 17.897,69.579 17.880,69.462 17.907 C 69.346 17.933,69.119 17.887,68.958 17.805 C 68.798 17.722,68.667 17.686,68.667 17.725 M64.000 17.911 C 64.000 18.023,65.858 19.198,65.927 19.129 C 65.958 19.098,65.537 18.793,64.992 18.452 C 64.446 18.111,64.000 17.868,64.000 17.911 M66.500 18.213 C 66.500 18.245,66.744 18.449,67.042 18.667 C 67.377 18.913,67.493 18.953,67.347 18.773 C 67.125 18.499,66.500 18.086,66.500 18.213 M69.814 18.725 C 69.941 18.879,70.157 18.985,70.295 18.961 C 70.433 18.936,70.564 19.037,70.588 19.183 C 70.628 19.440,72.601 21.500,72.807 21.500 C 72.862 21.500,72.387 20.975,71.750 20.333 C 71.113 19.692,70.693 19.167,70.817 19.167 C 70.999 19.167,71.001 19.119,70.829 18.911 C 70.712 18.771,70.534 18.685,70.433 18.722 C 70.332 18.758,70.100 18.711,69.917 18.617 C 69.618 18.463,69.607 18.474,69.814 18.725 M72.515 19.125 C 72.912 19.647,73.673 20.383,73.743 20.313 C 73.848 20.207,72.662 18.833,72.466 18.833 C 72.365 18.833,72.385 18.955,72.515 19.125 M66.500 19.459 C 66.500 19.534,66.725 19.728,67.000 19.890 C 67.275 20.053,67.500 20.158,67.500 20.124 C 67.500 20.090,67.275 19.896,67.000 19.693 C 66.725 19.490,66.500 19.384,66.500 19.459 M71.831 20.081 C 72.141 20.400,72.431 20.625,72.476 20.579 C 72.586 20.469,71.651 19.500,71.436 19.500 C 71.344 19.500,71.521 19.761,71.831 20.081 M68.603 20.241 C 68.720 20.546,68.672 20.554,68.053 20.332 C 67.615 20.176,67.605 20.182,67.907 20.416 C 68.085 20.554,68.366 20.667,68.532 20.667 C 68.851 20.667,68.947 20.257,68.669 20.085 C 68.574 20.026,68.546 20.093,68.603 20.241 M72.667 20.775 C 72.667 20.867,72.854 21.118,73.083 21.333 C 73.313 21.549,73.500 21.650,73.500 21.558 C 73.500 21.466,73.313 21.215,73.083 21.000 C 72.854 20.785,72.667 20.684,72.667 20.775 M76.762 21.278 C 76.704 21.431,76.724 21.624,76.807 21.707 C 76.898 21.798,76.958 21.686,76.958 21.429 C 76.958 20.930,76.910 20.892,76.762 21.278 M74.833 21.762 C 74.833 21.889,75.282 22.333,75.411 22.333 C 75.466 22.333,75.431 22.183,75.333 22.000 C 75.170 21.695,74.833 21.535,74.833 21.762 M24.220 22.273 C 24.112 22.317,23.744 22.705,23.401 23.135 L 22.778 23.917 23.639 23.090 C 24.401 22.358,24.602 22.134,24.458 22.180 C 24.435 22.187,24.328 22.229,24.220 22.273 M75.632 22.761 C 75.838 22.905,75.967 23.085,75.920 23.161 C 75.874 23.236,75.958 23.346,76.108 23.403 C 76.258 23.461,76.333 23.556,76.275 23.614 C 76.217 23.672,76.318 23.825,76.501 23.953 C 76.684 24.081,76.833 24.294,76.833 24.426 C 76.833 24.558,76.913 24.667,77.010 24.667 C 77.107 24.667,77.156 24.723,77.120 24.792 C 77.083 24.860,77.191 25.048,77.360 25.208 C 77.614 25.450,77.667 25.457,77.667 25.250 C 77.667 25.113,77.592 25.000,77.500 25.000 C 77.408 25.000,77.333 24.887,77.333 24.750 C 77.333 24.613,77.275 24.500,77.205 24.500 C 77.134 24.500,76.934 24.238,76.762 23.917 C 76.589 23.596,76.396 23.333,76.334 23.333 C 76.271 23.333,76.135 23.146,76.030 22.917 C 75.926 22.688,75.710 22.500,75.550 22.500 C 75.308 22.500,75.322 22.544,75.632 22.761 M76.333 25.298 C 76.333 25.370,76.562 25.689,76.841 26.006 L 77.349 26.583 76.902 25.875 C 76.460 25.173,76.333 25.045,76.333 25.298 M78.042 26.505 C 78.147 26.674,78.297 26.772,78.375 26.724 C 78.592 26.590,78.433 26.284,78.125 26.239 C 77.898 26.206,77.884 26.252,78.042 26.505 M78.500 27.163 C 78.637 27.250,78.759 27.399,78.771 27.494 C 78.782 27.589,78.802 27.760,78.815 27.875 C 78.832 28.024,78.882 28.014,78.991 27.842 C 79.192 27.524,78.908 26.999,78.536 27.003 C 78.291 27.005,78.286 27.028,78.500 27.163 M77.818 27.637 C 77.919 27.827,78.084 28.032,78.184 28.094 C 78.315 28.175,78.314 28.109,78.182 27.863 C 78.081 27.673,77.916 27.468,77.816 27.406 C 77.685 27.325,77.686 27.391,77.818 27.637 M79.201 30.078 C 79.494 30.671,79.760 31.128,79.794 31.095 C 79.869 31.020,78.861 29.000,78.749 29.000 C 78.705 29.000,78.909 29.485,79.201 30.078 M82.455 38.988 C 82.401 39.195,82.443 39.281,82.574 39.230 C 82.686 39.187,82.778 39.043,82.778 38.909 C 82.778 38.557,82.553 38.612,82.455 38.988 M84.336 39.958 C 84.334 40.165,84.408 40.333,84.500 40.333 C 84.709 40.333,84.709 40.156,84.500 39.833 C 84.369 39.631,84.338 39.655,84.336 39.958 M82.546 40.333 C 82.571 40.663,83.000 40.821,83.000 40.500 C 83.000 40.408,82.921 40.333,82.823 40.333 C 82.726 40.333,82.693 40.258,82.750 40.167 C 82.807 40.075,82.778 40.000,82.687 40.000 C 82.595 40.000,82.532 40.150,82.546 40.333 M84.552 42.750 C 84.553 43.300,84.584 43.505,84.621 43.205 C 84.658 42.906,84.657 42.456,84.619 42.205 C 84.581 41.955,84.551 42.200,84.552 42.750 M14.218 44.583 C 14.219 45.133,14.250 45.338,14.287 45.039 C 14.325 44.739,14.324 44.289,14.286 44.039 C 14.248 43.788,14.217 44.033,14.218 44.583 M14.212 46.500 C 14.212 46.913,14.245 47.081,14.284 46.875 C 14.324 46.669,14.324 46.331,14.284 46.125 C 14.245 45.919,14.212 46.087,14.212 46.500 M81.336 50.708 C 81.338 51.012,81.369 51.035,81.500 50.833 C 81.709 50.510,81.709 50.333,81.500 50.333 C 81.408 50.333,81.334 50.502,81.336 50.708 M82.336 51.375 C 82.338 51.678,82.369 51.702,82.500 51.500 C 82.709 51.177,82.709 51.000,82.500 51.000 C 82.408 51.000,82.334 51.169,82.336 51.375 M81.167 51.802 C 81.167 51.891,81.285 52.010,81.431 52.066 C 81.593 52.128,81.669 52.091,81.629 51.969 C 81.545 51.720,81.167 51.583,81.167 51.802 M81.042 53.260 C 80.796 53.526,80.776 53.667,80.982 53.667 C 81.124 53.667,81.391 53.165,81.296 53.076 C 81.271 53.053,81.156 53.135,81.042 53.260 M80.336 55.542 C 80.338 55.845,80.369 55.869,80.500 55.667 C 80.709 55.344,80.709 55.167,80.500 55.167 C 80.408 55.167,80.334 55.335,80.336 55.542 M83.333 59.770 C 83.333 59.992,83.379 60.003,83.583 59.833 C 83.721 59.719,83.833 59.598,83.833 59.563 C 83.833 59.528,83.721 59.500,83.583 59.500 C 83.446 59.500,83.333 59.622,83.333 59.770 M78.983 62.470 C 79.176 62.606,79.168 62.647,78.938 62.716 C 78.686 62.792,78.687 62.797,78.943 62.775 C 79.274 62.746,79.293 62.452,78.971 62.366 C 78.804 62.322,78.807 62.348,78.983 62.470 M78.583 63.167 C 78.640 63.258,78.602 63.333,78.500 63.333 C 78.398 63.333,78.360 63.408,78.417 63.500 C 78.473 63.592,78.436 63.667,78.333 63.667 C 78.231 63.667,78.193 63.742,78.250 63.833 C 78.307 63.925,78.274 64.000,78.177 64.000 C 78.079 64.000,78.003 64.094,78.006 64.208 C 78.014 64.475,78.831 63.486,78.833 63.208 C 78.833 63.094,78.754 63.000,78.657 63.000 C 78.560 63.000,78.527 63.075,78.583 63.167 M71.667 67.194 C 70.887 68.029,70.225 68.797,70.194 68.898 C 70.112 69.171,72.149 67.021,72.979 65.958 C 73.499 65.294,72.999 65.764,71.667 67.194 M69.500 69.313 C 69.500 69.393,69.318 69.458,69.095 69.458 C 68.615 69.458,67.499 70.110,67.503 70.389 C 67.504 70.515,67.548 70.524,67.628 70.413 C 67.866 70.081,68.660 69.667,69.057 69.667 C 69.278 69.667,69.553 69.554,69.667 69.417 C 69.810 69.244,69.816 69.167,69.687 69.167 C 69.584 69.167,69.500 69.232,69.500 69.313 M26.401 70.750 C 26.667 70.979,26.954 71.167,27.039 71.167 C 27.123 71.167,26.969 70.979,26.697 70.750 C 26.425 70.521,26.138 70.333,26.059 70.334 C 25.981 70.334,26.135 70.521,26.401 70.750 M65.789 71.451 C 65.443 71.689,65.196 71.918,65.239 71.961 C 65.282 72.005,65.636 71.806,66.025 71.520 C 66.874 70.896,66.680 70.839,65.789 71.451 M28.167 72.066 C 28.167 72.179,30.584 73.667,30.764 73.665 C 30.848 73.664,30.455 73.371,29.892 73.013 C 28.666 72.235,28.167 71.961,28.167 72.066 M63.292 73.096 C 62.948 73.321,62.667 73.550,62.667 73.605 C 62.667 73.697,63.073 73.464,63.912 72.891 C 64.503 72.488,63.933 72.675,63.292 73.096 M15.333 73.083 C 15.447 73.221,15.616 73.333,15.707 73.333 C 15.800 73.333,15.782 73.223,15.667 73.083 C 15.553 72.946,15.384 72.833,15.293 72.833 C 15.200 72.833,15.218 72.944,15.333 73.083 M31.076 73.822 C 31.192 74.009,32.189 74.557,32.922 74.835 C 33.679 75.123,33.344 74.871,32.148 74.252 C 31.496 73.915,31.014 73.721,31.076 73.822 M61.417 74.121 C 60.958 74.363,60.021 74.808,59.333 75.111 C 58.646 75.415,58.196 75.663,58.333 75.664 C 58.612 75.665,62.680 73.696,62.417 73.688 C 62.325 73.685,61.875 73.880,61.417 74.121 M16.333 74.029 C 16.333 74.136,17.665 75.500,17.770 75.500 C 17.908 75.500,17.805 75.375,17.083 74.667 C 16.671 74.262,16.333 73.975,16.333 74.029 M68.750 74.692 C 68.173 75.138,65.529 76.902,64.361 77.621 C 63.709 78.021,64.086 78.048,64.859 77.656 C 66.374 76.888,70.047 74.185,69.583 74.178 C 69.492 74.177,69.117 74.408,68.750 74.692 M22.000 74.481 C 22.000 74.748,24.494 76.589,24.777 76.531 C 24.918 76.501,24.989 76.549,24.935 76.637 C 24.881 76.724,24.943 76.883,25.072 76.990 C 25.259 77.146,25.298 77.129,25.266 76.907 C 25.212 76.542,24.500 76.011,24.212 76.121 C 24.088 76.169,24.008 76.121,24.035 76.015 C 24.062 75.909,23.615 75.483,23.042 75.068 C 22.469 74.653,22.000 74.389,22.000 74.481 M33.751 75.144 C 33.999 75.381,35.167 75.835,35.167 75.694 C 35.167 75.627,34.811 75.440,34.376 75.279 C 33.942 75.118,33.660 75.057,33.751 75.144 M75.167 75.250 C 75.049 75.392,74.990 75.546,75.036 75.591 C 75.082 75.637,75.216 75.559,75.333 75.417 C 75.451 75.275,75.510 75.121,75.464 75.075 C 75.418 75.029,75.284 75.108,75.167 75.250 M56.250 76.256 C 55.333 76.561,54.673 76.815,54.783 76.822 C 55.084 76.839,57.727 75.990,57.908 75.817 C 58.105 75.630,58.230 75.597,56.250 76.256 M37.149 76.437 C 37.827 76.659,38.412 76.810,38.450 76.773 C 38.524 76.698,36.285 75.990,36.057 76.016 C 35.980 76.025,36.471 76.215,37.149 76.437 M26.401 77.596 C 26.452 77.940,26.820 78.161,27.137 78.040 C 27.301 77.977,27.346 78.011,27.267 78.140 C 27.137 78.350,30.587 80.136,30.769 79.953 C 30.823 79.899,30.335 79.586,29.684 79.259 C 29.033 78.931,28.500 78.701,28.500 78.748 C 28.500 78.795,28.352 78.685,28.170 78.504 C 27.969 78.302,27.732 78.216,27.560 78.282 C 27.376 78.353,27.319 78.325,27.394 78.203 C 27.533 77.979,27.011 77.678,26.685 77.794 C 26.551 77.842,26.500 77.802,26.563 77.700 C 26.623 77.603,26.602 77.480,26.517 77.427 C 26.432 77.375,26.380 77.451,26.401 77.596 M22.000 79.043 C 22.000 79.076,22.225 79.270,22.500 79.474 C 22.775 79.677,23.000 79.782,23.000 79.708 C 23.000 79.633,22.775 79.439,22.500 79.277 C 22.225 79.114,22.000 79.009,22.000 79.043 M70.045 80.042 C 69.567 80.340,69.174 80.640,69.171 80.710 C 69.169 80.780,69.579 80.563,70.083 80.228 C 70.882 79.698,71.120 79.500,70.957 79.500 C 70.934 79.500,70.523 79.744,70.045 80.042 M23.669 80.114 C 23.670 80.189,23.941 80.425,24.270 80.638 C 24.600 80.852,24.822 80.949,24.763 80.855 C 24.600 80.591,23.666 79.959,23.669 80.114 M57.167 81.709 C 56.204 81.985,55.304 82.250,55.167 82.298 C 55.029 82.347,54.829 82.372,54.721 82.355 C 54.613 82.338,54.477 82.402,54.419 82.496 C 54.360 82.591,54.120 82.619,53.882 82.560 C 53.579 82.484,53.486 82.508,53.568 82.642 C 53.756 82.945,58.835 81.721,59.294 81.262 C 59.465 81.090,58.943 81.200,57.167 81.709 M37.917 82.413 C 38.793 82.825,40.167 83.053,40.563 82.853 C 40.852 82.706,40.798 82.692,40.268 82.776 C 39.761 82.857,39.648 82.832,39.752 82.663 C 39.852 82.501,39.788 82.473,39.493 82.550 C 39.277 82.607,39.022 82.591,38.925 82.515 C 38.829 82.439,38.450 82.332,38.083 82.277 L 37.417 82.178 37.917 82.413 M52.667 82.833 C 52.804 82.922,53.067 82.991,53.250 82.986 L 53.583 82.977 53.250 82.833 C 52.752 82.619,52.335 82.619,52.667 82.833 M50.708 83.282 C 50.869 83.323,51.131 83.323,51.292 83.282 C 51.452 83.240,51.321 83.205,51.000 83.205 C 50.679 83.205,50.548 83.240,50.708 83.282 M43.292 83.451 C 43.498 83.491,43.835 83.491,44.042 83.451 C 44.248 83.411,44.079 83.379,43.667 83.379 C 43.254 83.379,43.085 83.411,43.292 83.451 M48.877 83.453 C 49.131 83.491,49.506 83.490,49.711 83.451 C 49.916 83.411,49.708 83.380,49.250 83.381 C 48.792 83.382,48.624 83.415,48.877 83.453 M44.526 86.914 C 44.699 87.088,46.000 87.165,46.000 87.002 C 46.000 86.909,45.650 86.833,45.222 86.833 C 44.794 86.833,44.481 86.870,44.526 86.914 M48.000 87.004 C 48.000 87.100,48.256 87.146,48.589 87.110 C 49.439 87.016,49.509 86.833,48.694 86.833 C 48.313 86.833,48.000 86.910,48.000 87.004 " stroke="none" fill="#444444" fill-rule="evenodd"></path></g></svg>