<svg id="svg" version="1.1" xmlns="http://www.w3.org/2000/svg" xmlns:xlink="http://www.w3.org/1999/xlink" width="400" height="397.4475843208751" viewBox="0, 0, 400,397.4475843208751"><g id="svgg"><path id="path0" d="M216.408 119.625 C 212.448 119.787,210.854 120.007,209.298 120.606 C 208.195 121.031,206.638 121.497,205.839 121.640 C 205.039 121.783,203.563 122.283,202.557 122.751 C 201.552 123.220,200.447 123.604,200.102 123.606 C 199.522 123.610,198.214 124.203,192.890 126.881 C 187.433 129.624,177.827 135.721,174.050 138.838 C 172.880 139.803,170.898 141.375,169.646 142.331 C 161.085 148.866,149.168 160.939,142.960 169.366 C 142.072 170.572,140.580 172.379,139.645 173.382 C 137.998 175.148,132.718 182.462,131.485 184.686 C 131.152 185.287,130.500 186.436,130.038 187.238 C 129.575 188.040,128.792 189.435,128.298 190.337 C 127.804 191.240,126.978 192.634,126.462 193.437 C 124.513 196.470,119.964 204.343,119.964 204.683 C 119.964 204.878,119.410 206.202,118.733 207.624 C 116.341 212.649,115.953 213.578,115.953 214.271 C 115.953 214.655,115.728 215.294,115.454 215.689 C 115.180 216.085,114.672 217.393,114.326 218.596 C 113.979 219.799,113.404 221.440,113.048 222.242 C 112.692 223.045,112.287 224.591,112.150 225.678 C 112.012 226.766,111.743 227.949,111.551 228.308 C 110.739 229.826,108.773 241.158,108.428 246.308 C 108.122 250.886,109.654 258.606,111.560 262.085 C 111.751 262.432,112.191 263.373,112.539 264.175 C 114.846 269.489,123.215 274.709,133.374 277.170 C 136.374 277.896,160.140 277.370,163.355 276.506 C 164.859 276.102,167.268 275.584,168.709 275.356 C 170.151 275.129,172.366 274.626,173.632 274.240 C 178.410 272.784,185.475 270.459,187.056 269.822 C 191.847 267.893,193.629 267.162,195.533 266.348 C 196.686 265.855,198.655 265.025,199.909 264.505 C 203.252 263.117,205.606 261.949,211.304 258.847 C 214.111 257.318,217.475 255.494,218.778 254.792 C 223.618 252.187,224.886 251.422,228.806 248.738 C 231.012 247.227,234.868 244.601,237.375 242.903 C 243.535 238.729,247.818 235.426,258.579 226.551 C 264.141 221.963,276.373 210.277,285.125 201.189 C 292.400 193.633,292.741 193.021,290.824 190.952 C 288.552 188.500,286.896 189.107,282.250 194.094 C 274.989 201.889,258.321 218.252,254.695 221.144 C 252.689 222.744,249.982 224.987,248.678 226.128 C 243.589 230.584,229.187 240.648,222.425 244.475 C 220.705 245.448,219.990 245.865,216.408 247.982 C 212.803 250.114,195.677 258.159,194.744 258.159 C 194.525 258.159,193.733 258.487,192.985 258.888 C 192.237 259.289,191.438 259.617,191.211 259.617 C 190.984 259.617,189.305 260.109,187.479 260.711 C 185.653 261.313,183.704 261.809,183.146 261.814 C 182.589 261.818,180.963 262.133,179.533 262.514 C 175.522 263.581,166.417 264.154,161.341 263.658 C 149.787 262.530,143.714 257.776,140.344 247.220 C 139.189 243.601,139.042 230.923,140.116 227.555 C 140.463 226.465,140.747 224.720,140.747 223.677 C 140.747 222.633,141.010 220.899,141.331 219.823 C 141.652 218.747,142.160 217.049,142.460 216.049 C 142.760 215.050,143.060 213.737,143.125 213.132 C 143.360 210.961,145.441 205.062,148.788 197.083 C 152.498 188.237,151.272 189.030,161.717 188.721 C 166.331 188.585,171.664 188.253,173.568 187.983 C 179.085 187.202,183.463 186.306,184.287 185.791 C 184.707 185.529,186.117 185.232,187.420 185.131 C 189.680 184.956,192.075 184.148,196.390 182.103 C 197.413 181.618,198.476 181.222,198.753 181.222 C 200.809 181.222,207.691 177.537,217.144 171.376 C 220.569 169.145,228.943 161.427,230.633 158.946 C 231.232 158.065,232.547 156.267,233.554 154.950 C 236.236 151.443,240.026 143.494,240.868 139.611 C 242.538 131.907,241.686 127.231,237.922 123.439 C 234.513 120.005,229.383 119.095,216.408 119.625 M214.094 128.671 C 218.154 131.246,218.692 135.353,216.272 145.305 C 214.886 151.002,213.911 153.155,210.097 158.928 C 204.153 167.925,192.158 176.810,182.441 179.414 C 180.908 179.824,179.360 180.318,179.001 180.510 C 178.110 180.987,163.856 181.338,160.294 180.971 C 156.753 180.606,156.238 180.089,157.596 178.264 C 158.102 177.584,159.142 175.880,159.908 174.476 C 171.124 153.925,192.456 131.811,204.067 128.700 C 205.634 128.280,206.988 127.865,207.074 127.778 C 207.763 127.090,212.562 127.700,214.094 128.671 " stroke="none" fill="#e32545" fill-rule="evenodd"></path><path id="path1" d="M192.707 15.897 C 181.289 16.973,173.603 18.103,165.360 19.917 C 59.105 43.296,-3.450 153.102,30.645 256.390 C 64.520 359.015,180.854 410.369,280.583 366.721 C 298.615 358.829,317.945 346.063,323.794 338.184 C 324.543 337.175,326.777 334.563,328.758 332.381 C 348.376 310.771,360.468 293.088,369.166 273.291 C 374.343 261.508,378.881 245.744,378.835 239.699 L 378.819 237.557 378.144 238.833 C 377.773 239.535,376.468 242.757,375.244 245.994 C 372.393 253.529,369.793 259.357,368.103 261.999 C 366.100 265.131,365.848 264.314,366.971 258.327 C 368.878 248.159,368.263 248.176,363.172 258.431 C 358.124 268.600,357.699 269.005,359.662 261.775 C 363.573 247.368,362.795 247.264,355.819 261.258 C 351.063 270.800,349.105 274.311,345.650 279.495 C 341.159 286.234,340.900 285.565,344.908 277.579 C 355.578 256.320,362.078 234.934,362.078 221.090 C 362.078 216.724,361.475 218.059,358.455 229.102 C 356.676 235.604,353.337 245.892,353.086 245.641 C 352.986 245.542,353.484 242.944,354.190 239.868 C 357.296 226.351,357.521 224.478,357.521 212.033 C 357.521 201.340,357.216 198.522,356.318 200.912 C 355.969 201.840,355.827 202.789,354.215 214.950 C 350.541 242.679,342.900 263.699,331.597 277.176 C 330.814 278.109,327.225 282.457,323.622 286.838 C 313.193 299.518,304.742 307.653,303.079 306.614 C 302.201 306.066,302.347 305.979,294.905 311.462 C 246.736 346.952,190.472 352.781,140.565 327.453 C 46.477 279.702,34.918 149.245,119.234 86.710 C 154.354 60.663,188.825 51.530,227.530 58.018 C 250.173 61.813,264.569 67.756,290.611 84.057 C 301.806 91.064,303.529 91.701,299.714 87.420 C 293.515 80.466,281.935 72.337,267.661 64.920 C 261.376 61.654,260.084 60.602,262.946 61.081 C 269.203 62.129,282.825 69.268,293.696 77.197 C 320.390 96.666,338.482 120.799,351.318 154.057 C 353.791 160.463,354.238 161.145,353.935 158.053 C 353.044 148.956,344.303 129.254,334.782 114.882 C 310.440 78.139,271.344 52.498,229.558 45.874 C 226.637 45.411,224.248 44.919,224.248 44.781 C 224.248 44.510,224.621 44.547,230.629 45.420 C 296.762 55.028,350.303 107.448,362.446 174.476 L 363.172 178.487 362.968 175.570 C 361.051 148.195,346.754 117.557,322.232 88.278 C 316.616 81.574,316.452 81.180,321.302 86.053 C 347.773 112.650,362.311 144.800,367.716 188.696 C 369.447 202.751,370.493 203.262,371.072 190.337 C 372.359 161.654,359.518 126.044,336.487 94.429 C 332.108 88.419,331.139 86.782,331.959 86.782 C 334.258 86.782,345.776 101.467,355.443 116.722 C 359.884 123.731,360.620 124.642,360.620 123.129 C 360.620 118.387,351.319 102.003,341.495 89.440 C 337.933 84.885,337.606 84.360,338.560 84.726 C 339.478 85.079,339.196 84.106,337.287 80.343 C 334.716 75.274,334.922 75.076,339.503 78.213 C 351.726 86.584,332.350 65.138,317.229 53.559 C 290.464 33.064,259.834 20.828,224.613 16.559 C 219.979 15.998,196.751 15.515,192.707 15.897 M306.108 326.207 C 300.470 331.320,291.821 337.404,284.129 341.669 C 278.441 344.822,278.683 344.244,284.518 340.740 C 292.783 335.776,297.586 332.459,304.239 327.119 C 307.889 324.189,308.850 323.720,306.108 326.207 M111.412 337.897 C 118.582 342.686,124.320 346.045,131.449 349.629 C 134.658 351.242,137.037 352.569,136.737 352.579 C 133.217 352.688,111.586 339.739,100.406 330.830 C 93.933 325.671,94.167 325.306,100.747 330.300 C 103.614 332.476,108.414 335.895,111.412 337.897 M262.534 356.770 C 262.534 357.547,244.342 362.595,235.005 364.410 C 212.564 368.770,180.193 367.791,165.360 362.305 C 163.163 361.492,164.257 361.604,170.186 362.799 C 199.498 368.706,230.191 366.893,258.888 357.558 C 261.633 356.665,262.534 356.470,262.534 356.770 " stroke="none" fill="#040404" fill-rule="evenodd"></path><path id="path2" d="M236.082 46.876 C 238.279 47.355,240.284 47.826,240.537 47.923 C 240.790 48.020,241.078 47.970,241.176 47.811 C 241.273 47.653,241.156 47.501,240.914 47.473 C 240.672 47.446,238.915 47.095,237.010 46.694 C 235.105 46.294,233.218 45.975,232.817 45.986 C 232.416 45.997,233.885 46.398,236.082 46.876 M203.000 56.416 C 203.647 56.497,204.796 56.498,205.552 56.419 C 206.309 56.340,205.779 56.274,204.376 56.273 C 202.972 56.271,202.353 56.336,203.000 56.416 M74.008 69.918 L 72.015 72.015 74.111 70.022 C 76.059 68.170,76.375 67.821,76.104 67.821 C 76.047 67.821,75.104 68.765,74.008 69.918 M318.723 83.711 C 319.881 85.427,321.913 87.557,321.732 86.865 C 321.628 86.469,320.794 85.427,319.878 84.549 C 318.962 83.672,318.442 83.294,318.723 83.711 M298.253 85.779 C 299.147 86.732,299.926 87.511,299.985 87.511 C 300.259 87.511,299.969 87.184,298.359 85.673 L 296.627 84.047 298.253 85.779 M318.140 90.064 C 319.128 91.067,320.018 91.887,320.118 91.887 C 320.219 91.887,319.493 91.067,318.505 90.064 C 317.517 89.061,316.627 88.241,316.527 88.241 C 316.427 88.241,317.153 89.061,318.140 90.064 M309.207 90.178 C 309.207 90.241,309.740 90.774,310.392 91.363 L 311.577 92.434 310.506 91.249 C 309.508 90.144,309.207 89.896,309.207 90.178 M315.770 96.809 C 316.451 97.511,317.089 98.086,317.190 98.086 C 317.290 98.086,316.815 97.511,316.135 96.809 C 315.455 96.108,314.816 95.533,314.716 95.533 C 314.615 95.533,315.090 96.108,315.770 96.809 M216.226 119.254 C 212.282 119.404,210.661 119.609,209.845 120.059 C 208.479 120.814,208.651 120.826,210.930 120.135 C 213.183 119.451,230.353 119.328,231.584 119.987 C 231.995 120.207,232.406 120.314,232.495 120.224 C 233.363 119.357,225.625 118.895,216.226 119.254 M206.016 121.229 C 204.913 121.484,203.273 122.037,202.370 122.460 C 201.468 122.883,200.391 123.233,199.979 123.237 C 199.566 123.242,198.909 123.486,198.520 123.781 C 197.678 124.419,199.030 124.058,202.188 122.802 C 203.191 122.403,204.963 121.866,206.127 121.608 C 207.291 121.350,208.344 121.039,208.467 120.916 C 208.754 120.630,208.454 120.668,206.016 121.229 M233.728 120.815 C 233.728 120.909,234.258 121.171,234.905 121.396 C 235.552 121.622,235.921 121.656,235.725 121.473 C 235.310 121.084,233.728 120.563,233.728 120.815 M237.823 123.331 C 240.224 125.763,241.499 128.661,241.798 132.361 L 242.048 135.460 241.963 132.179 C 241.857 128.089,239.596 123.535,236.974 122.132 C 236.585 121.924,236.967 122.463,237.823 123.331 M196.263 124.883 C 195.611 125.166,195.077 125.484,195.077 125.590 C 195.077 125.815,196.924 125.065,197.429 124.634 C 197.908 124.226,197.643 124.283,196.263 124.883 M188.696 128.761 C 185.501 130.598,184.634 131.404,187.630 129.753 C 189.877 128.514,191.763 127.295,191.431 127.294 C 191.331 127.294,190.100 127.954,188.696 128.761 M209.298 127.875 C 212.588 128.034,213.016 128.170,215.013 129.689 C 215.981 130.425,216.527 130.726,216.226 130.356 C 214.711 128.495,212.558 127.618,209.682 127.691 L 206.928 127.761 209.298 127.875 M204.443 128.555 C 201.988 129.225,201.571 129.458,203.282 129.202 C 204.084 129.082,205.232 128.773,205.834 128.515 C 207.211 127.923,206.704 127.938,204.443 128.555 M198.541 130.822 C 188.166 136.346,168.736 158.301,159.908 174.476 C 159.142 175.880,158.102 177.584,157.596 178.264 C 156.238 180.089,156.753 180.606,160.294 180.971 C 163.856 181.338,178.110 180.987,179.001 180.510 C 179.360 180.318,180.908 179.824,182.441 179.414 C 190.619 177.222,201.404 169.981,207.174 162.808 C 207.980 161.805,207.106 162.569,205.232 164.506 C 202.066 167.777,198.968 170.393,194.781 173.333 C 192.166 175.168,185.470 178.268,182.538 179.001 C 181.095 179.362,179.593 179.825,179.200 180.030 C 178.163 180.573,167.366 180.972,162.037 180.665 C 157.072 180.379,156.433 180.062,157.785 178.559 C 158.182 178.118,159.218 176.445,160.088 174.840 C 161.837 171.615,167.335 163.188,169.465 160.468 C 182.492 143.835,192.407 133.718,197.687 131.673 C 198.921 131.195,201.890 129.452,201.459 129.458 C 201.258 129.461,199.945 130.075,198.541 130.822 M180.093 134.128 C 177.767 135.675,175.224 137.473,174.441 138.123 C 173.658 138.774,171.856 140.198,170.436 141.288 C 169.017 142.378,166.802 144.206,165.514 145.349 C 164.226 146.493,162.029 148.427,160.633 149.648 C 157.574 152.323,155.258 154.605,151.904 158.250 C 150.521 159.754,148.972 161.436,148.464 161.987 C 147.955 162.539,147.633 162.990,147.748 162.990 C 147.864 162.990,149.720 161.062,151.875 158.706 C 155.787 154.426,165.392 145.578,169.663 142.318 C 170.906 141.369,172.908 139.780,174.111 138.786 C 175.314 137.792,178.145 135.781,180.401 134.316 C 182.657 132.850,184.503 131.565,184.503 131.459 C 184.503 131.183,184.696 131.066,180.093 134.128 M216.998 132.328 C 217.407 133.499,217.255 139.910,216.765 142.206 L 216.570 143.118 216.987 142.206 C 217.593 140.880,217.633 132.172,217.037 131.571 C 216.659 131.190,216.651 131.332,216.998 132.328 M241.277 137.192 C 240.996 139.334,240.794 140.149,239.923 142.665 C 239.508 143.866,239.252 144.935,239.356 145.038 C 239.460 145.142,239.609 144.999,239.688 144.719 C 239.766 144.440,240.184 143.145,240.615 141.841 C 241.379 139.534,242.039 135.643,241.666 135.643 C 241.564 135.643,241.389 136.340,241.277 137.192 M215.600 146.802 C 215.376 147.783,215.250 148.644,215.320 148.714 C 215.523 148.917,216.284 145.843,216.139 145.408 C 216.067 145.193,215.825 145.820,215.600 146.802 M237.152 148.976 C 236.219 150.895,234.615 153.563,233.589 154.905 C 232.563 156.246,231.232 158.065,230.633 158.946 C 228.943 161.427,220.569 169.145,217.144 171.376 C 209.196 176.557,207.136 177.733,201.276 180.440 L 200.365 180.861 201.276 180.642 C 202.863 180.262,208.062 177.640,210.456 176.014 C 211.725 175.152,214.097 173.670,215.729 172.719 C 223.702 168.075,234.225 156.354,238.106 147.794 C 239.715 144.245,239.057 145.062,237.152 148.976 M214.447 149.954 C 213.983 151.214,213.589 152.987,213.825 152.750 C 214.107 152.468,215.103 149.134,214.905 149.134 C 214.820 149.134,214.614 149.503,214.447 149.954 M210.724 157.424 C 208.494 160.830,208.510 160.802,208.721 160.802 C 208.912 160.802,211.545 156.950,212.233 155.664 C 213.023 154.188,212.263 155.075,210.724 157.424 M145.251 165.998 C 144.642 166.650,143.229 168.416,142.113 169.924 C 140.996 171.431,139.719 172.990,139.274 173.388 C 138.302 174.258,135.381 178.198,132.927 181.951 C 131.943 183.455,130.836 185.134,130.466 185.683 C 130.097 186.232,129.636 187.052,129.442 187.506 C 129.247 187.960,128.516 189.316,127.817 190.520 C 125.800 193.990,125.672 194.258,126.512 193.254 C 126.933 192.753,127.513 191.851,127.802 191.249 C 128.092 190.647,128.904 189.170,129.608 187.967 C 130.311 186.764,131.158 185.287,131.489 184.686 C 132.687 182.510,137.983 175.164,139.637 173.382 C 140.568 172.379,142.050 170.574,142.931 169.371 C 143.812 168.168,145.026 166.650,145.629 165.998 C 146.232 165.346,146.643 164.813,146.542 164.813 C 146.442 164.813,145.861 165.346,145.251 165.998 M197.356 181.598 C 196.196 182.064,196.335 182.341,197.539 181.960 C 199.596 181.310,199.657 181.279,198.906 181.273 C 198.505 181.270,197.808 181.416,197.356 181.598 M194.419 182.949 C 193.556 183.247,192.909 183.550,192.981 183.623 C 193.207 183.848,195.769 183.036,195.997 182.667 C 196.117 182.473,196.164 182.336,196.102 182.361 C 196.040 182.387,195.283 182.651,194.419 182.949 M371.336 187.603 C 371.336 190.210,371.395 191.228,371.465 189.866 C 371.535 188.504,371.535 186.371,371.464 185.126 C 371.393 183.881,371.335 184.995,371.336 187.603 M191.249 184.334 C 190.333 184.775,190.303 184.825,191.067 184.641 C 191.568 184.520,192.134 184.276,192.325 184.098 C 192.797 183.656,192.538 183.713,191.249 184.334 M184.299 185.806 C 183.910 186.122,183.838 186.247,184.139 186.084 C 184.439 185.921,185.588 185.686,186.691 185.563 L 188.696 185.340 186.852 185.286 C 185.649 185.251,184.761 185.432,184.299 185.806 M180.492 186.739 C 177.655 187.202,177.361 187.441,179.945 187.184 C 181.149 187.065,182.379 186.828,182.680 186.658 C 183.318 186.297,183.164 186.303,180.492 186.739 M174.218 187.982 C 174.109 188.091,171.580 188.326,168.596 188.505 L 163.172 188.830 168.540 188.696 C 171.492 188.623,174.199 188.393,174.556 188.185 C 174.913 187.977,175.027 187.802,174.810 187.796 C 174.593 187.790,174.326 187.874,174.218 187.982 M152.237 189.969 C 151.663 190.568,151.263 191.105,151.348 191.161 C 151.434 191.216,152.023 190.726,152.658 190.070 C 153.293 189.415,153.692 188.879,153.547 188.879 C 153.401 188.879,152.811 189.369,152.237 189.969 M156.714 189.149 C 157.976 189.221,159.945 189.220,161.090 189.148 C 162.235 189.076,161.203 189.017,158.797 189.018 C 156.390 189.019,155.453 189.078,156.714 189.149 M285.670 190.188 C 284.878 190.707,283.573 191.973,282.771 193.000 C 280.183 196.314,258.458 217.817,254.695 220.788 C 252.689 222.372,250.298 224.353,249.380 225.189 C 247.570 226.840,241.926 231.072,235.005 235.969 C 230.310 239.290,226.594 241.678,220.885 245.039 C 219.738 245.715,218.852 246.321,218.916 246.385 C 219.022 246.491,219.967 245.958,224.709 243.119 C 231.252 239.202,244.354 229.914,248.678 226.128 C 249.982 224.987,252.689 222.744,254.695 221.144 C 258.321 218.252,274.989 201.889,282.250 194.094 C 286.919 189.083,288.530 188.503,290.875 190.990 C 291.388 191.534,291.730 191.732,291.637 191.431 C 291.018 189.448,287.817 188.780,285.670 190.188 M150.122 193.885 C 148.906 196.601,148.295 198.226,148.605 197.916 C 148.963 197.558,151.328 192.045,151.185 191.902 C 151.118 191.835,150.640 192.728,150.122 193.885 M124.636 195.716 C 123.684 197.170,122.955 198.808,123.540 198.177 C 124.040 197.636,125.894 194.348,125.698 194.348 C 125.606 194.348,125.127 194.964,124.636 195.716 M285.324 200.961 C 277.779 208.852,263.095 222.922,258.858 226.320 C 255.658 228.886,252.952 231.140,251.048 232.826 L 249.954 233.795 251.083 233.048 C 251.703 232.637,253.016 231.584,254.000 230.708 C 254.984 229.832,257.101 228.084,258.706 226.823 C 260.310 225.563,264.330 221.960,267.639 218.817 C 270.948 215.673,273.939 212.861,274.286 212.567 C 275.548 211.499,291.793 194.681,291.660 194.580 C 291.584 194.524,288.733 197.395,285.324 200.961 M62.474 200.547 C 62.474 202.051,62.539 202.666,62.617 201.914 C 62.696 201.162,62.696 199.932,62.617 199.180 C 62.539 198.428,62.474 199.043,62.474 200.547 M122.334 199.818 C 122.023 200.419,121.850 200.912,121.950 200.912 C 122.051 200.912,122.387 200.419,122.698 199.818 C 123.009 199.216,123.182 198.724,123.082 198.724 C 122.981 198.724,122.645 199.216,122.334 199.818 M120.377 203.030 C 119.976 203.594,119.532 204.538,119.391 205.127 C 119.249 205.716,119.002 206.368,118.840 206.575 C 118.463 207.060,117.748 208.933,117.941 208.933 C 118.163 208.933,119.964 205.029,119.964 204.546 C 119.964 204.313,120.303 203.647,120.718 203.064 C 121.132 202.482,121.390 202.005,121.289 202.005 C 121.189 202.005,120.779 202.467,120.377 203.030 M146.308 203.191 C 145.916 204.262,145.926 204.308,146.410 203.668 C 146.874 203.055,147.148 202.005,146.844 202.005 C 146.788 202.005,146.546 202.539,146.308 203.191 M144.299 208.838 C 143.757 210.569,143.382 212.054,143.466 212.138 C 143.549 212.221,144.060 210.872,144.600 209.140 C 145.140 207.407,145.515 205.922,145.433 205.840 C 145.351 205.758,144.841 207.107,144.299 208.838 M21.248 207.840 C 21.248 208.742,21.319 209.111,21.406 208.660 C 21.493 208.209,21.493 207.470,21.406 207.019 C 21.319 206.568,21.248 206.937,21.248 207.840 M117.188 209.936 C 117.077 210.287,116.824 210.985,116.624 211.486 C 116.362 212.145,116.372 212.290,116.660 212.008 C 117.083 211.596,117.843 209.298,117.557 209.298 C 117.464 209.298,117.298 209.585,117.188 209.936 M115.791 213.400 C 115.715 213.651,115.469 214.427,115.246 215.124 C 114.951 216.043,114.950 216.281,115.242 215.989 C 115.646 215.585,116.377 212.944,116.085 212.944 C 116.000 212.944,115.867 213.149,115.791 213.400 M142.440 215.914 C 142.106 216.949,141.895 217.860,141.972 217.937 C 142.050 218.014,142.389 217.233,142.727 216.200 C 143.065 215.167,143.275 214.257,143.195 214.176 C 143.114 214.096,142.775 214.878,142.440 215.914 M114.146 217.987 C 113.928 218.796,113.501 220.164,113.196 221.029 C 112.891 221.893,112.797 222.438,112.987 222.239 C 113.418 221.788,114.929 216.904,114.706 216.681 C 114.616 216.591,114.364 217.179,114.146 217.987 M141.141 220.476 C 140.927 221.247,140.751 222.710,140.750 223.726 C 140.748 224.742,140.463 226.465,140.116 227.555 C 138.951 231.208,139.190 243.610,140.505 247.705 C 141.074 249.476,141.603 250.861,141.682 250.782 C 141.760 250.704,141.377 249.255,140.830 247.562 C 139.559 243.627,139.343 231.156,140.484 227.555 C 140.830 226.465,141.112 224.741,141.112 223.724 C 141.112 222.706,141.273 221.311,141.471 220.623 C 141.668 219.936,141.762 219.306,141.679 219.224 C 141.597 219.142,141.355 219.705,141.141 220.476 M362.191 221.513 C 362.193 222.716,362.262 223.165,362.343 222.509 C 362.424 221.854,362.422 220.870,362.339 220.322 C 362.256 219.774,362.189 220.310,362.191 221.513 M112.163 223.567 C 112.064 224.042,111.883 225.087,111.761 225.889 C 111.638 226.691,111.444 227.675,111.330 228.077 C 111.215 228.478,111.256 228.679,111.420 228.523 C 111.741 228.218,112.700 223.062,112.477 222.838 C 112.403 222.764,112.261 223.092,112.163 223.567 M110.731 229.599 C 110.630 229.965,110.442 230.921,110.313 231.723 C 110.185 232.525,109.986 233.510,109.871 233.911 C 109.757 234.312,109.791 234.519,109.947 234.371 C 110.251 234.083,111.239 229.258,111.036 229.054 C 110.969 228.988,110.832 229.233,110.731 229.599 M246.824 236.016 C 245.303 237.265,242.555 239.335,240.717 240.616 C 238.879 241.897,237.375 243.015,237.375 243.099 C 237.375 243.563,245.364 237.767,248.496 235.030 C 250.908 232.923,249.786 233.584,246.824 236.016 M109.383 235.764 C 109.379 235.948,109.136 237.657,108.842 239.562 C 108.299 243.086,108.176 244.545,108.445 244.272 C 108.696 244.017,109.763 235.803,109.570 235.610 C 109.470 235.511,109.386 235.580,109.383 235.764 M353.779 242.222 C 353.760 242.464,353.649 243.072,353.532 243.573 C 353.415 244.075,353.425 244.239,353.555 243.938 C 353.684 243.637,353.933 243.114,354.107 242.775 C 354.281 242.436,354.286 242.074,354.118 241.971 C 353.951 241.867,353.798 241.980,353.779 242.222 M234.061 245.131 C 231.273 247.052,228.488 249.182,229.968 248.262 C 232.066 246.958,237.010 243.529,237.010 243.378 C 237.010 243.104,236.951 243.139,234.061 245.131 M216.226 247.715 C 214.384 248.815,202.818 254.441,199.180 256.007 C 198.327 256.374,197.630 256.756,197.630 256.856 C 197.630 257.113,199.725 256.183,207.475 252.490 C 213.866 249.445,218.414 247.019,218.414 246.655 C 218.414 246.411,218.396 246.420,216.226 247.715 M226.071 250.551 C 223.037 252.602,222.526 253.016,223.883 252.322 C 224.951 251.776,228.988 248.997,228.988 248.808 C 228.988 248.588,228.884 248.650,226.071 250.551 M108.329 251.735 C 108.310 252.314,108.452 253.380,108.643 254.105 C 108.835 254.831,109.089 255.894,109.208 256.470 C 109.327 257.045,109.486 257.454,109.560 257.380 C 109.635 257.305,109.396 255.768,109.029 253.964 C 108.662 252.160,108.347 251.157,108.329 251.735 M142.214 252.058 C 142.187 253.052,147.269 259.253,148.111 259.253 C 148.263 259.253,147.632 258.555,146.707 257.703 C 145.782 256.851,144.394 255.169,143.623 253.965 C 142.852 252.762,142.218 251.904,142.214 252.058 M221.331 253.451 C 220.725 253.946,220.664 254.070,221.149 253.820 C 222.338 253.205,222.997 252.700,222.607 252.703 C 222.407 252.704,221.832 253.041,221.331 253.451 M215.406 256.588 C 214.454 257.118,213.731 257.609,213.801 257.678 C 213.947 257.825,217.320 255.984,217.320 255.757 C 217.320 255.529,217.268 255.552,215.406 256.588 M195.624 257.624 C 194.713 258.064,194.682 258.114,195.442 257.929 C 196.475 257.676,197.637 257.084,197.083 257.092 C 196.882 257.095,196.226 257.335,195.624 257.624 M109.978 259.070 C 110.107 259.672,110.374 260.328,110.571 260.529 C 110.807 260.768,110.838 260.581,110.662 259.982 C 110.230 258.510,109.709 257.815,109.978 259.070 M191.978 259.083 C 191.062 259.524,191.032 259.574,191.796 259.390 C 192.297 259.269,192.863 259.025,193.054 258.847 C 193.526 258.405,193.267 258.462,191.978 259.083 M187.238 260.542 C 186.326 260.981,186.296 261.031,187.056 260.846 C 188.089 260.593,189.250 260.001,188.696 260.009 C 188.496 260.012,187.840 260.252,187.238 260.542 M151.686 261.386 C 151.987 261.562,152.726 261.813,153.327 261.943 C 154.027 262.094,154.224 262.064,153.874 261.859 C 153.573 261.683,152.835 261.432,152.233 261.302 C 151.533 261.151,151.336 261.181,151.686 261.386 M182.794 261.408 C 181.753 261.535,180.787 261.753,180.647 261.893 C 180.352 262.188,183.887 261.818,185.232 261.413 C 186.355 261.075,185.548 261.073,182.794 261.408 M111.638 262.917 C 111.851 263.529,112.094 263.962,112.176 263.880 C 112.357 263.699,111.669 261.805,111.423 261.805 C 111.328 261.805,111.425 262.306,111.638 262.917 M204.376 262.540 C 203.774 262.942,202.625 263.455,201.823 263.681 C 201.021 263.907,200.574 264.167,200.830 264.258 C 201.275 264.417,206.016 262.331,206.016 261.976 C 206.016 261.630,205.443 261.828,204.376 262.540 M177.028 262.616 C 173.995 263.088,173.092 263.280,173.248 263.417 C 173.477 263.618,178.578 262.910,179.467 262.554 C 180.477 262.149,179.941 262.163,177.028 262.616 M156.133 262.875 C 156.673 263.048,157.985 263.282,159.050 263.395 C 160.615 263.561,160.742 263.538,159.714 263.278 C 157.854 262.806,154.869 262.471,156.133 262.875 M164.357 263.895 C 165.210 263.972,166.604 263.972,167.457 263.895 C 168.309 263.818,167.612 263.755,165.907 263.755 C 164.202 263.755,163.505 263.818,164.357 263.895 M197.630 265.454 C 192.425 267.556,191.083 268.111,189.518 268.811 C 188.566 269.237,187.849 269.648,187.924 269.723 C 188.000 269.798,188.779 269.544,189.655 269.157 C 193.821 267.317,196.822 266.083,197.890 265.769 C 198.535 265.579,199.160 265.266,199.279 265.073 C 199.398 264.880,199.445 264.738,199.383 264.757 C 199.321 264.776,198.532 265.090,197.630 265.454 M115.770 268.699 C 119.325 272.445,122.809 274.335,130.902 276.911 L 135.096 278.246 146.582 278.105 C 152.899 278.027,158.642 277.845,159.344 277.702 C 160.046 277.558,162.015 277.131,163.719 276.752 C 165.424 276.373,168.049 275.816,169.553 275.515 C 172.125 275.001,175.204 274.170,180.938 272.445 C 182.287 272.039,184.256 271.282,185.314 270.762 C 186.372 270.242,186.910 269.930,186.509 270.070 C 177.465 273.213,173.836 274.299,169.553 275.142 C 168.049 275.438,165.342 276.040,163.537 276.479 C 159.763 277.397,136.498 277.927,133.361 277.167 C 125.682 275.305,120.502 272.830,116.506 269.113 C 113.643 266.451,113.628 266.442,115.770 268.699 M311.747 300.000 L 309.754 302.097 311.851 300.104 C 313.798 298.252,314.114 297.903,313.844 297.903 C 313.787 297.903,312.843 298.847,311.747 300.000 M106.108 302.758 C 106.108 302.820,106.641 303.354,107.293 303.943 L 108.478 305.014 107.407 303.829 C 106.408 302.724,106.108 302.476,106.108 302.758 M301.732 329.293 C 298.232 332.079,291.852 336.471,287.238 339.270 C 282.782 341.973,280.717 343.496,284.321 341.422 C 292.347 336.802,301.668 330.404,303.384 328.337 C 304.070 327.510,303.708 327.720,301.732 329.293 M99.180 329.646 C 105.424 335.240,124.296 347.391,129.900 349.426 C 131.295 349.933,130.414 349.265,128.259 348.181 C 121.569 344.818,111.209 338.275,102.826 332.118 C 100.119 330.129,98.478 329.017,99.180 329.646 M77.302 330.834 C 77.302 330.897,77.835 331.430,78.487 332.019 L 79.672 333.090 78.601 331.905 C 77.603 330.801,77.302 330.553,77.302 330.834 M238.135 363.186 C 218.694 367.235,192.946 367.366,173.002 363.517 C 170.869 363.106,168.947 362.827,168.732 362.899 C 167.309 363.373,185.023 366.169,193.437 366.798 C 208.406 367.918,235.697 365.525,243.391 362.419 C 244.626 361.920,243.244 362.122,238.135 363.186 " stroke="none" fill="#e1dadb" fill-rule="evenodd"></path><path id="path3" d="M202.658 15.585 C 203.919 15.656,205.888 15.656,207.033 15.584 C 208.179 15.511,207.147 15.453,204.740 15.454 C 202.334 15.454,201.397 15.513,202.658 15.585 M224.248 44.850 C 224.248 45.050,224.617 45.212,225.068 45.209 C 225.732 45.204,225.784 45.135,225.342 44.850 C 224.635 44.393,224.248 44.393,224.248 44.850 M226.692 45.252 C 226.981 45.540,227.285 45.544,227.768 45.263 C 228.358 44.920,228.309 44.870,227.366 44.861 C 226.581 44.853,226.399 44.959,226.692 45.252 M78.564 65.725 L 76.755 67.639 78.669 65.830 C 80.448 64.148,80.751 63.810,80.479 63.810 C 80.421 63.810,79.559 64.672,78.564 65.725 M314.129 89.699 C 315.320 90.902,316.376 91.887,316.477 91.887 C 316.577 91.887,315.685 90.902,314.494 89.699 C 313.303 88.496,312.247 87.511,312.147 87.511 C 312.047 87.511,312.939 88.496,314.129 89.699 M335.278 89.699 C 336.061 90.501,336.784 91.158,336.885 91.158 C 336.985 91.158,336.426 90.501,335.643 89.699 C 334.859 88.897,334.136 88.241,334.036 88.241 C 333.936 88.241,334.495 88.897,335.278 89.699 M312.124 92.730 C 312.124 92.793,312.657 93.326,313.309 93.915 L 314.494 94.986 313.423 93.801 C 312.425 92.697,312.124 92.449,312.124 92.730 M101.536 102.188 L 99.727 104.102 101.641 102.293 C 102.694 101.297,103.555 100.436,103.555 100.378 C 103.555 100.106,103.217 100.409,101.536 102.188 M21.271 195.442 C 21.271 196.946,21.336 197.562,21.414 196.809 C 21.493 196.057,21.493 194.827,21.414 194.075 C 21.336 193.323,21.271 193.938,21.271 195.442 M21.241 201.459 C 21.245 202.261,21.319 202.546,21.406 202.092 C 21.494 201.639,21.490 200.982,21.399 200.634 C 21.308 200.285,21.236 200.656,21.241 201.459 M357.850 211.486 C 357.850 214.594,357.906 215.866,357.974 214.312 C 358.042 212.758,358.042 210.214,357.974 208.660 C 357.906 207.106,357.850 208.377,357.850 211.486 M306.932 324.913 C 306.584 325.116,306.111 325.644,305.882 326.087 C 305.540 326.749,305.667 326.703,306.607 325.821 C 308.046 324.470,308.140 324.210,306.932 324.913 M135.278 351.852 C 135.278 352.211,136.690 352.766,136.948 352.508 C 137.034 352.422,136.693 352.165,136.191 351.936 C 135.689 351.707,135.278 351.669,135.278 351.852 M260.749 357.005 C 260.269 357.197,259.963 357.441,260.069 357.547 C 260.175 357.653,260.814 357.499,261.489 357.204 C 262.831 356.618,262.164 356.439,260.749 357.005 M164.631 362.078 C 165.627 362.506,165.907 362.506,165.907 362.078 C 165.907 361.878,165.456 361.725,164.904 361.739 C 164.016 361.762,163.985 361.801,164.631 362.078 M202.826 367.444 C 203.377 367.528,204.280 367.528,204.831 367.444 C 205.383 367.361,204.932 367.292,203.829 367.292 C 202.726 367.292,202.274 367.361,202.826 367.444 M200.095 382.391 C 200.549 382.478,201.205 382.475,201.554 382.384 C 201.903 382.292,201.531 382.221,200.729 382.225 C 199.927 382.229,199.642 382.304,200.095 382.391 M210.848 382.384 C 211.199 382.476,211.773 382.476,212.124 382.384 C 212.475 382.293,212.188 382.218,211.486 382.218 C 210.784 382.218,210.497 382.293,210.848 382.384 " stroke="none" fill="#515151" fill-rule="evenodd"></path><path id="path4" d="M197.721 15.576 C 198.273 15.659,199.175 15.659,199.727 15.576 C 200.278 15.492,199.827 15.424,198.724 15.424 C 197.621 15.424,197.170 15.492,197.721 15.576 M209.754 15.576 C 210.305 15.659,211.208 15.659,211.759 15.576 C 212.311 15.492,211.860 15.424,210.757 15.424 C 209.654 15.424,209.202 15.492,209.754 15.576 M227.560 45.354 C 227.644 45.430,228.532 45.590,229.535 45.708 C 230.760 45.852,231.179 45.808,230.811 45.574 C 230.305 45.251,227.221 45.042,227.560 45.354 M198.086 56.419 C 198.838 56.497,200.068 56.497,200.820 56.419 C 201.572 56.340,200.957 56.276,199.453 56.276 C 197.949 56.276,197.334 56.340,198.086 56.419 M207.748 56.417 C 208.400 56.498,209.467 56.498,210.119 56.417 C 210.770 56.336,210.237 56.270,208.933 56.270 C 207.630 56.270,207.097 56.336,207.748 56.417 M329.991 64.275 C 329.991 64.330,331.263 65.602,332.817 67.101 L 335.643 69.827 332.917 67.001 C 330.386 64.376,329.991 64.009,329.991 64.275 M309.936 85.438 C 309.936 85.500,310.469 86.034,311.121 86.623 L 312.306 87.694 311.235 86.509 C 310.237 85.404,309.936 85.156,309.936 85.438 M314.312 86.167 C 314.312 86.230,314.845 86.763,315.497 87.352 L 316.682 88.423 315.611 87.238 C 314.613 86.133,314.312 85.885,314.312 86.167 M316.500 92.001 C 316.500 92.064,317.033 92.597,317.685 93.186 L 318.870 94.257 317.799 93.072 C 316.800 91.967,316.500 91.719,316.500 92.001 M320.146 92.001 C 320.146 92.064,320.679 92.597,321.331 93.186 L 322.516 94.257 321.445 93.072 C 320.447 91.967,320.146 91.719,320.146 92.001 M21.262 190.884 C 21.264 192.088,21.332 192.536,21.413 191.880 C 21.494 191.225,21.492 190.241,21.409 189.693 C 21.326 189.145,21.260 189.681,21.262 190.884 M62.472 195.624 C 62.473 197.028,62.539 197.558,62.618 196.801 C 62.697 196.045,62.696 194.896,62.615 194.249 C 62.534 193.602,62.470 194.221,62.472 195.624 M21.258 204.558 C 21.258 205.661,21.326 206.112,21.410 205.561 C 21.493 205.009,21.493 204.107,21.410 203.555 C 21.326 203.004,21.258 203.455,21.258 204.558 M62.465 205.105 C 62.467 206.308,62.535 206.756,62.616 206.101 C 62.697 205.446,62.696 204.461,62.612 203.913 C 62.529 203.365,62.463 203.902,62.465 205.105 M74.749 328.350 C 76.041 329.654,77.180 330.720,77.281 330.720 C 77.381 330.720,76.406 329.654,75.114 328.350 C 73.822 327.046,72.683 325.980,72.583 325.980 C 72.482 325.980,73.457 327.046,74.749 328.350 M304.663 326.888 C 304.069 327.374,303.671 327.858,303.778 327.965 C 303.885 328.073,304.443 327.670,305.017 327.070 C 306.273 325.759,306.133 325.687,304.663 326.888 M96.964 327.933 C 97.920 328.975,98.086 329.070,98.086 328.574 C 98.086 328.397,97.634 327.963,97.083 327.610 L 96.080 326.969 96.964 327.933 M321.220 341.203 L 319.964 342.571 321.331 341.314 C 322.604 340.144,322.866 339.836,322.587 339.836 C 322.527 339.836,321.911 340.451,321.220 341.203 M281.651 342.563 C 281.264 342.855,281.112 343.097,281.313 343.100 C 281.854 343.109,282.781 342.458,282.552 342.230 C 282.443 342.121,282.037 342.270,281.651 342.563 M197.543 342.646 C 197.997 342.733,198.653 342.730,199.002 342.639 C 199.350 342.548,198.979 342.476,198.177 342.480 C 197.375 342.484,197.089 342.559,197.543 342.646 M210.665 342.646 C 211.117 342.733,211.855 342.733,212.306 342.646 C 212.758 342.559,212.388 342.488,211.486 342.488 C 210.583 342.488,210.214 342.559,210.665 342.646 M132.726 350.589 C 132.726 350.839,134.958 351.945,135.125 351.779 C 135.204 351.700,134.697 351.362,133.997 351.028 C 133.298 350.695,132.726 350.497,132.726 350.589 M256.882 358.292 C 256.080 358.588,253.045 359.491,250.137 360.298 C 243.693 362.088,243.794 362.056,244.004 362.266 C 244.265 362.527,259.253 358.179,259.253 357.842 C 259.253 357.581,258.343 357.753,256.882 358.292 M201.185 366.361 C 203.040 366.427,206.076 366.427,207.931 366.361 C 209.786 366.295,208.268 366.241,204.558 366.241 C 200.848 366.241,199.330 366.295,201.185 366.361 M194.626 367.076 C 195.080 367.164,195.736 367.160,196.084 367.069 C 196.433 366.978,196.062 366.907,195.260 366.911 C 194.458 366.915,194.172 366.989,194.626 367.076 M212.128 367.076 C 212.582 367.164,213.238 367.160,213.587 367.069 C 213.935 366.978,213.564 366.907,212.762 366.911 C 211.960 366.915,211.675 366.989,212.128 367.076 M197.174 382.390 C 197.625 382.477,198.364 382.477,198.815 382.390 C 199.266 382.304,198.897 382.232,197.995 382.232 C 197.092 382.232,196.723 382.304,197.174 382.390 M213.405 382.395 C 213.959 382.479,214.780 382.476,215.228 382.390 C 215.677 382.303,215.223 382.235,214.221 382.237 C 213.218 382.240,212.851 382.311,213.405 382.395 " stroke="none" fill="#747474" fill-rule="evenodd"></path></g></svg>