<svg id="svg" version="1.1" xmlns="http://www.w3.org/2000/svg" xmlns:xlink="http://www.w3.org/1999/xlink" width="400" height="397.4475843208751" viewBox="0, 0, 400,397.4475843208751"><g id="svgg"><path id="path0" d="M200.000 15.578 C 90.675 18.277,7.473 116.698,23.176 224.747 C 39.748 338.785,156.207 409.688,265.802 372.464 C 290.738 363.994,314.456 349.766,324.727 337.115 C 326.199 335.302,328.988 332.097,330.925 329.991 C 357.121 301.518,375.239 268.187,378.678 242.142 C 379.540 235.614,378.914 236.267,375.385 245.579 C 372.352 253.581,369.819 259.267,368.066 262.008 C 366.088 265.100,365.825 264.268,366.961 258.516 C 369.064 247.873,368.271 247.924,362.980 258.769 C 359.789 265.310,357.820 268.495,358.567 265.907 C 363.717 248.075,363.077 246.722,356.096 260.682 C 351.141 270.591,348.477 275.353,345.235 280.101 C 341.577 285.458,341.045 285.349,343.871 279.821 C 353.398 261.192,359.441 243.647,361.360 229.051 C 363.024 216.396,362.048 215.620,358.987 227.165 C 356.798 235.422,352.963 247.009,352.963 245.364 C 352.963 245.267,353.540 242.732,354.246 239.731 C 357.372 226.447,358.579 214.736,357.750 205.723 C 356.995 197.527,356.321 198.422,354.950 209.434 C 350.630 244.153,343.377 263.674,328.350 281.031 C 327.147 282.420,324.111 286.086,321.604 289.177 C 314.447 298.002,303.942 308.176,303.464 306.746 C 303.173 305.875,301.976 306.301,299.309 308.225 C 297.834 309.289,294.494 311.702,291.887 313.587 C 240.537 350.720,176.006 352.675,125.539 318.627 C 45.289 264.487,40.744 147.839,116.580 88.721 C 153.080 60.268,191.079 50.611,233.260 59.067 C 252.777 62.979,267.229 69.333,291.677 84.748 C 302.136 91.343,304.000 91.760,298.541 86.287 C 290.527 78.250,282.912 72.927,268.995 65.634 C 261.926 61.929,260.656 60.955,263.197 61.186 C 268.629 61.680,283.482 69.673,295.314 78.470 C 320.914 97.503,338.058 120.532,350.991 153.258 C 354.179 161.324,354.229 161.409,353.945 158.250 C 353.044 148.229,343.446 127.250,332.637 111.678 C 307.712 75.770,271.618 53.118,226.983 45.374 C 223.782 44.818,226.692 44.829,230.534 45.387 C 297.293 55.077,352.210 109.520,362.671 176.382 C 363.551 182.007,363.720 181.274,362.999 174.963 C 359.472 144.120,342.271 108.743,318.931 84.329 C 318.120 83.480,317.545 82.698,317.653 82.590 C 318.551 81.692,333.760 99.763,340.137 109.305 C 355.886 132.871,363.572 155.074,367.745 189.061 C 369.473 203.130,370.494 203.579,371.058 190.520 C 372.320 161.285,360.012 127.099,336.406 94.274 C 330.069 85.461,329.961 84.197,336.089 90.560 C 341.406 96.080,348.126 105.209,356.023 117.641 C 359.911 123.761,360.620 124.607,360.620 123.129 C 360.620 118.357,351.169 101.697,341.414 89.273 C 337.903 84.802,337.632 84.370,338.560 84.726 C 339.459 85.071,339.207 84.187,337.284 80.255 C 334.826 75.230,334.864 75.194,339.374 78.213 C 350.755 85.833,333.885 66.612,318.687 54.644 C 285.566 28.562,242.903 14.519,200.000 15.578 M305.743 326.529 C 298.776 332.581,291.115 337.865,282.434 342.605 C 278.361 344.829,279.986 343.458,284.856 340.562 C 291.047 336.880,298.096 332.057,302.644 328.392 C 306.398 325.366,308.616 324.033,305.743 326.529 M101.851 331.171 C 110.817 337.993,121.291 344.554,130.832 349.326 C 136.851 352.336,138.154 353.146,134.940 351.879 C 124.228 347.657,101.442 333.170,96.445 327.405 L 95.716 326.563 96.690 327.274 C 97.226 327.665,99.548 329.419,101.851 331.171 M261.440 357.126 C 261.440 357.626,247.284 361.765,240.193 363.338 C 215.805 368.750,187.085 368.395,165.782 362.418 C 163.196 361.693,164.663 361.699,168.209 362.429 C 198.291 368.619,230.222 367.020,257.794 357.946 C 260.530 357.045,261.440 356.840,261.440 357.126 " stroke="none" fill="#040404" fill-rule="evenodd"></path><path id="path1" d="M209.919 120.480 C 208.555 120.966,206.768 121.477,205.947 121.616 C 205.126 121.755,203.616 122.259,202.592 122.736 C 201.567 123.212,200.528 123.604,200.282 123.606 C 199.030 123.616,187.946 129.455,183.045 132.687 C 181.340 133.811,179.778 134.813,179.573 134.913 C 172.738 138.259,153.661 156.024,143.827 168.202 C 135.312 178.748,133.288 181.570,129.656 187.967 C 128.517 189.973,127.436 191.860,127.254 192.160 C 127.072 192.461,126.151 194.020,125.207 195.624 C 124.263 197.229,122.717 199.854,121.770 201.459 C 120.824 203.063,119.930 204.768,119.784 205.248 C 119.637 205.727,118.715 207.803,117.735 209.860 C 116.755 211.918,115.953 213.870,115.953 214.199 C 115.953 214.528,115.650 215.405,115.281 216.149 C 114.911 216.894,114.393 218.323,114.129 219.325 C 113.866 220.328,113.348 221.757,112.978 222.501 C 112.609 223.245,112.299 224.394,112.290 225.054 C 112.281 225.714,112.034 226.910,111.739 227.712 C 111.124 229.391,109.605 236.952,109.043 241.139 C 106.690 258.656,113.995 271.735,128.350 275.705 C 129.654 276.065,131.623 276.622,132.726 276.941 C 135.950 277.876,159.024 277.530,163.355 276.482 C 165.059 276.070,167.931 275.407,169.736 275.009 C 175.156 273.812,184.319 271.096,185.791 270.248 C 186.186 270.021,187.411 269.491,188.514 269.069 C 190.422 268.341,191.103 268.071,195.807 266.174 C 196.910 265.730,198.649 264.975,199.672 264.497 C 200.695 264.019,201.682 263.628,201.865 263.628 C 202.048 263.628,202.770 263.323,203.469 262.950 C 204.168 262.576,206.135 261.539,207.840 260.643 C 214.983 256.891,224.914 251.366,226.504 250.259 C 227.445 249.605,231.301 246.982,235.073 244.431 C 241.601 240.017,242.916 239.054,248.611 234.525 C 249.952 233.459,251.722 232.064,252.545 231.426 C 261.173 224.733,272.050 214.621,283.953 202.229 C 292.717 193.105,292.847 192.874,290.416 190.740 C 287.905 188.535,286.651 189.149,281.066 195.318 C 274.777 202.265,258.896 217.820,254.512 221.326 C 252.407 223.011,249.799 225.187,248.718 226.162 C 247.636 227.137,245.175 229.074,243.248 230.466 C 241.321 231.858,238.268 234.075,236.463 235.393 C 232.135 238.553,229.417 240.332,223.701 243.746 C 221.094 245.303,217.628 247.378,215.999 248.357 C 214.370 249.336,212.914 250.137,212.765 250.137 C 212.615 250.137,210.609 251.039,208.306 252.142 C 206.003 253.245,204.055 254.148,203.977 254.148 C 203.898 254.148,202.209 254.951,200.221 255.934 C 198.234 256.916,196.059 257.838,195.387 257.981 C 194.716 258.125,193.974 258.397,193.739 258.586 C 192.992 259.187,185.499 261.500,183.227 261.832 C 182.024 262.007,180.196 262.387,179.165 262.676 C 173.149 264.362,157.763 264.134,154.166 262.306 C 153.624 262.030,152.886 261.805,152.525 261.805 C 151.425 261.805,146.444 258.378,145.060 256.668 C 140.263 250.746,137.842 238.646,139.668 229.717 C 139.999 228.100,140.480 225.257,141.088 221.331 C 142.192 214.205,146.485 201.449,150.937 192.068 C 152.471 188.834,152.188 188.923,161.586 188.688 C 171.320 188.444,181.511 187.138,184.090 185.804 C 184.698 185.490,185.831 185.232,186.607 185.232 C 188.015 185.232,191.653 184.314,192.343 183.784 C 192.543 183.630,193.364 183.295,194.166 183.039 C 194.968 182.782,196.196 182.269,196.895 181.897 C 197.594 181.526,198.333 181.221,198.536 181.220 C 199.109 181.218,204.136 179.125,206.475 177.914 C 208.438 176.898,209.909 175.998,216.662 171.678 C 230.568 162.782,241.727 145.191,241.747 132.131 C 241.753 128.158,238.357 122.662,235.187 121.513 C 234.886 121.404,233.902 120.970,232.999 120.548 C 230.268 119.272,213.448 119.222,209.919 120.480 M212.307 127.776 C 214.084 128.411,216.101 129.963,217.015 131.400 C 218.416 133.602,217.087 145.767,215.011 149.754 C 214.676 150.396,214.403 151.137,214.403 151.400 C 214.403 153.040,208.639 161.533,204.966 165.307 C 199.091 171.342,188.019 178.500,183.418 179.238 C 182.711 179.351,181.149 179.800,179.945 180.235 C 177.652 181.065,160.351 181.474,157.794 180.759 C 156.804 180.482,156.392 179.323,157.123 178.872 C 157.306 178.759,158.381 177.009,159.513 174.983 C 163.488 167.866,167.649 161.991,176.176 151.459 C 189.978 134.410,204.402 124.955,212.307 127.776 " stroke="none" fill="#e42545" fill-rule="evenodd"></path><path id="path2" d="M0.000 198.724 L 0.000 397.448 200.000 397.448 L 400.000 397.448 400.000 198.724 L 400.000 0.000 200.000 0.000 L 0.000 0.000 0.000 198.724 M223.154 16.205 C 267.600 21.053,310.696 41.811,336.601 70.851 C 344.498 79.704,345.541 82.609,339.297 78.361 C 335.369 75.687,335.289 75.796,337.648 80.619 C 339.197 83.787,339.413 84.465,338.974 84.786 C 338.546 85.099,339.120 86.035,342.109 89.895 C 346.066 95.006,349.610 100.150,352.805 105.420 C 360.142 117.518,364.352 130.886,357.439 120.130 C 346.443 103.022,338.783 92.708,333.903 88.439 C 330.556 85.511,331.072 86.589,336.864 94.622 C 360.849 127.887,372.760 161.954,371.144 192.661 C 370.542 204.086,369.111 202.727,367.543 189.243 C 362.514 145.989,348.753 115.152,321.806 86.756 C 318.007 82.752,318.216 83.082,323.528 89.468 C 347.313 118.070,361.383 148.888,363.335 176.664 C 363.461 178.469,363.654 180.520,363.762 181.222 C 363.888 182.043,363.833 182.368,363.608 182.133 C 363.415 181.933,363.060 180.374,362.818 178.669 C 355.020 123.679,316.476 75.069,264.540 54.723 C 255.956 51.360,243.230 47.647,237.739 46.903 C 236.837 46.780,238.560 47.317,241.568 48.096 C 268.974 55.189,292.591 68.435,312.811 88.053 C 331.802 106.478,347.734 132.284,353.174 153.434 C 355.659 163.093,354.558 162.804,350.576 152.753 C 340.854 128.215,329.248 110.043,312.864 93.710 C 299.403 80.290,279.369 66.613,267.228 62.554 C 259.409 59.939,260.078 60.832,269.644 65.778 C 279.753 71.004,284.413 73.968,291.158 79.462 C 301.071 87.537,305.281 93.022,298.677 89.261 C 297.550 88.619,292.771 85.683,288.058 82.738 C 256.381 62.943,233.542 56.057,201.459 56.629 C 171.460 57.164,147.254 66.121,119.052 87.122 C 36.953 148.259,46.022 274.834,136.086 324.877 C 186.991 353.163,245.722 347.773,296.255 310.177 C 301.431 306.326,302.899 305.523,303.371 306.286 C 304.198 307.625,314.597 297.655,322.151 288.280 C 324.558 285.293,327.822 281.355,329.404 279.528 C 342.938 263.908,350.623 242.796,354.596 210.325 C 355.517 202.791,356.104 200.074,356.791 200.154 C 357.636 200.252,357.850 202.736,357.846 212.397 C 357.841 223.459,357.549 226.096,355.162 236.632 C 354.592 239.146,354.030 241.696,353.912 242.297 C 353.450 244.658,357.016 233.561,358.599 227.712 C 361.433 217.240,362.080 216.244,362.077 222.355 C 362.070 236.231,355.005 258.691,343.903 280.128 C 342.890 282.083,342.187 283.683,342.340 283.683 C 343.355 283.683,350.395 271.701,356.153 260.173 C 362.626 247.213,363.836 247.255,360.275 260.319 C 359.439 263.386,358.839 265.980,358.942 266.083 C 359.046 266.186,360.901 262.682,363.065 258.295 C 368.142 248.006,369.455 248.082,367.181 258.533 C 365.072 268.228,369.208 261.441,375.360 245.110 C 378.811 235.949,379.789 235.103,378.913 242.035 C 375.632 268.012,358.239 299.928,330.682 330.538 C 327.794 333.747,324.662 337.371,323.723 338.592 C 316.221 348.352,292.163 363.087,271.103 370.820 C 139.977 418.968,4.918 312.548,22.645 175.047 C 35.249 77.278,125.753 5.582,223.154 16.205 M232.169 120.016 C 235.320 121.431,236.816 122.247,237.684 123.025 C 238.732 123.963,240.829 127.067,241.360 128.465 C 242.217 130.720,241.478 139.581,240.184 142.571 C 237.496 148.779,236.795 150.279,235.836 151.869 C 234.212 154.562,229.440 160.745,227.543 162.614 C 223.429 166.666,218.015 171.212,215.679 172.575 C 214.275 173.394,211.978 174.807,210.574 175.715 C 206.605 178.281,204.166 179.453,198.541 181.500 C 197.940 181.719,195.807 182.584,193.801 183.422 C 191.796 184.260,188.842 185.168,187.238 185.440 C 185.634 185.712,183.090 186.262,181.586 186.663 C 175.810 188.201,160.560 189.588,155.468 189.039 C 152.850 188.757,152.129 189.506,149.836 194.895 C 148.812 197.302,147.843 199.435,147.684 199.635 C 147.525 199.836,147.273 200.572,147.123 201.271 C 146.973 201.970,146.638 202.872,146.378 203.276 C 146.119 203.680,145.651 204.995,145.339 206.199 C 145.027 207.402,144.441 209.250,144.036 210.305 C 143.631 211.360,143.300 212.722,143.300 213.331 C 143.300 213.940,143.080 214.882,142.811 215.424 C 142.201 216.651,140.847 222.662,140.577 225.342 C 140.466 226.445,140.223 228.168,140.036 229.170 C 137.495 242.835,142.038 256.366,150.593 260.611 C 157.391 263.984,170.333 264.869,178.751 262.536 C 180.202 262.134,181.931 261.805,182.593 261.805 C 183.255 261.805,184.817 261.459,186.064 261.036 C 187.311 260.614,189.225 260.033,190.316 259.747 C 191.408 259.460,192.474 259.089,192.686 258.922 C 192.899 258.755,193.728 258.407,194.530 258.148 C 197.232 257.276,213.680 249.497,216.955 247.542 C 226.964 241.566,230.172 239.604,231.723 238.511 C 232.726 237.804,234.613 236.476,235.916 235.560 C 241.035 231.965,244.891 229.074,247.366 226.977 C 248.790 225.771,251.722 223.338,253.882 221.572 C 260.287 216.334,274.431 202.513,281.127 194.948 C 286.338 189.063,287.932 188.321,290.583 190.552 C 293.231 192.780,292.865 193.408,283.045 203.468 C 265.249 221.698,251.682 233.354,235.392 244.410 C 230.967 247.412,227.101 250.077,226.800 250.331 C 226.236 250.809,219.215 254.763,214.403 257.313 C 212.899 258.110,210.684 259.310,209.480 259.979 C 205.472 262.207,202.686 263.628,202.323 263.628 C 202.126 263.628,200.972 264.120,199.760 264.722 C 198.547 265.324,197.393 265.816,197.196 265.816 C 196.998 265.816,195.773 266.308,194.473 266.910 C 193.173 267.511,191.951 268.004,191.758 268.004 C 191.565 268.004,190.597 268.414,189.608 268.915 C 188.619 269.417,187.517 269.832,187.159 269.838 C 186.801 269.845,186.185 270.095,185.789 270.394 C 185.393 270.694,183.916 271.269,182.507 271.673 C 181.098 272.077,179.535 272.585,179.034 272.802 C 178.532 273.019,177.220 273.413,176.117 273.678 C 175.014 273.942,172.552 274.554,170.647 275.037 C 168.742 275.520,165.542 276.200,163.537 276.548 C 161.531 276.896,159.171 277.339,158.291 277.533 C 155.437 278.160,135.806 278.014,133.273 277.347 C 118.756 273.521,111.413 267.045,109.448 256.335 C 109.245 255.232,108.903 253.868,108.688 253.304 C 108.192 252.006,108.176 244.665,108.664 242.095 C 108.866 241.027,109.285 238.451,109.594 236.371 C 109.903 234.290,110.297 232.229,110.470 231.791 C 110.643 231.352,111.141 229.353,111.577 227.347 C 112.260 224.210,113.018 221.747,114.945 216.408 C 115.162 215.807,115.478 215.159,115.646 214.968 C 115.815 214.778,115.953 214.331,115.953 213.975 C 115.953 213.619,116.272 212.627,116.661 211.769 C 117.051 210.911,118.063 208.651,118.910 206.746 C 119.756 204.840,121.160 202.104,122.030 200.664 C 122.899 199.224,123.610 197.954,123.610 197.841 C 123.610 197.729,124.315 196.528,125.177 195.172 C 126.040 193.817,127.954 190.574,129.431 187.967 C 132.149 183.169,136.292 177.026,138.398 174.670 C 139.031 173.961,141.648 170.757,144.214 167.548 C 150.239 160.013,155.173 154.715,160.620 149.932 C 163.026 147.819,165.160 145.909,165.360 145.687 C 165.973 145.010,174.703 138.106,177.028 136.459 C 183.607 131.799,188.424 128.943,195.442 125.542 C 199.089 123.774,200.179 123.341,204.376 121.988 C 205.378 121.665,207.675 120.922,209.480 120.338 C 214.005 118.872,229.141 118.657,232.169 120.016 M204.558 128.689 C 196.196 131.138,185.587 139.648,176.846 150.917 C 175.542 152.598,173.215 155.506,171.674 157.380 C 168.423 161.333,162.370 170.258,160.080 174.476 C 159.208 176.080,158.121 177.889,157.662 178.496 C 157.110 179.227,156.936 179.771,157.145 180.109 C 157.959 181.427,176.101 181.392,179.581 180.066 C 180.583 179.683,182.165 179.221,183.094 179.037 C 188.564 177.958,198.344 171.708,204.589 165.300 C 208.569 161.216,213.157 154.792,213.860 152.317 C 213.987 151.870,214.480 150.520,214.954 149.316 C 216.662 144.982,218.000 135.182,217.254 132.473 C 216.104 128.304,211.033 126.793,204.558 128.689 M300.456 330.328 C 298.089 332.262,291.181 336.980,287.785 338.983 C 285.930 340.077,284.412 341.052,284.412 341.149 C 284.412 341.423,287.468 339.617,292.059 336.632 C 297.349 333.191,302.705 329.156,301.823 329.274 C 301.773 329.281,301.158 329.755,300.456 330.328 M102.771 332.454 C 107.070 336.155,119.902 344.392,126.436 347.645 C 130.204 349.521,129.708 348.988,125.684 346.838 C 120.384 344.006,112.639 339.166,106.655 334.946 C 103.646 332.824,101.899 331.703,102.771 332.454 M234.458 363.923 C 217.736 367.102,195.019 367.230,177.170 364.245 C 172.271 363.426,170.994 363.373,174.067 364.116 C 183.214 366.330,200.019 367.557,212.139 366.896 C 221.811 366.369,238.301 364.189,239.167 363.324 C 239.427 363.065,238.053 363.239,234.458 363.923 " stroke="none" fill="#fbfbfb" fill-rule="evenodd"></path><path id="path3" d="M196.997 15.576 C 197.551 15.660,198.371 15.658,198.820 15.571 C 199.268 15.485,198.815 15.416,197.812 15.419 C 196.809 15.422,196.443 15.492,196.997 15.576 M210.848 15.576 C 211.399 15.659,212.302 15.659,212.853 15.576 C 213.405 15.492,212.954 15.424,211.851 15.424 C 210.747 15.424,210.296 15.492,210.848 15.576 M200.620 56.424 C 202.364 56.491,205.318 56.491,207.183 56.425 C 209.048 56.359,207.621 56.304,204.011 56.304 C 200.401 56.303,198.875 56.358,200.620 56.424 M332.543 66.910 C 334.441 68.815,336.075 70.374,336.175 70.374 C 336.275 70.374,334.805 68.815,332.908 66.910 C 331.011 65.005,329.376 63.446,329.276 63.446 C 329.176 63.446,330.646 65.005,332.543 66.910 M73.815 70.100 L 72.744 71.285 73.929 70.214 C 75.034 69.216,75.282 68.915,75.000 68.915 C 74.937 68.915,74.404 69.448,73.815 70.100 M297.539 85.073 C 297.539 85.136,298.072 85.669,298.724 86.258 L 299.909 87.329 298.838 86.144 C 297.840 85.039,297.539 84.791,297.539 85.073 M321.002 85.991 C 321.334 86.359,321.524 86.769,321.423 86.903 C 321.322 87.037,321.348 87.066,321.480 86.968 C 321.612 86.869,321.981 86.986,322.300 87.227 C 322.619 87.468,322.399 87.139,321.810 86.495 C 321.221 85.851,320.662 85.324,320.568 85.324 C 320.474 85.324,320.669 85.624,321.002 85.991 M318.323 90.246 C 320.018 91.951,321.488 93.345,321.588 93.345 C 321.689 93.345,320.383 91.951,318.687 90.246 C 316.992 88.541,315.522 87.147,315.422 87.147 C 315.321 87.147,316.627 88.541,318.323 90.246 M214.768 119.484 C 220.409 119.738,231.438 119.758,231.052 119.513 C 230.819 119.366,226.527 119.275,221.513 119.311 C 216.500 119.347,213.464 119.425,214.768 119.484 M240.406 127.227 C 240.839 128.017,241.249 128.609,241.316 128.541 C 241.493 128.364,240.362 126.249,239.958 125.999 C 239.771 125.884,239.973 126.436,240.406 127.227 M208.842 127.513 C 209.294 127.600,210.032 127.600,210.483 127.513 C 210.934 127.427,210.565 127.355,209.663 127.355 C 208.760 127.355,208.391 127.427,208.842 127.513 M214.768 129.193 C 214.768 129.256,215.301 129.789,215.953 130.378 L 217.138 131.449 216.067 130.264 C 215.068 129.160,214.768 128.912,214.768 129.193 M217.437 136.737 C 217.437 138.040,217.503 138.573,217.584 137.922 C 217.665 137.270,217.665 136.203,217.584 135.552 C 217.503 134.900,217.437 135.433,217.437 136.737 M184.680 141.933 L 179.945 146.764 184.777 142.029 C 189.265 137.631,189.773 137.101,189.512 137.101 C 189.459 137.101,187.284 139.275,184.680 141.933 M240.701 139.471 C 240.671 139.872,240.562 140.611,240.459 141.112 L 240.271 142.024 240.662 141.129 C 240.877 140.637,240.986 139.899,240.904 139.488 C 240.759 138.761,240.754 138.761,240.701 139.471 M217.040 141.112 C 217.040 141.814,217.115 142.101,217.207 141.750 C 217.298 141.399,217.298 140.825,217.207 140.474 C 217.115 140.123,217.040 140.410,217.040 141.112 M160.597 149.954 L 159.526 151.139 160.711 150.069 C 161.816 149.070,162.064 148.769,161.782 148.769 C 161.719 148.769,161.186 149.303,160.597 149.954 M155.689 154.512 L 152.598 157.703 155.789 154.612 C 158.752 151.740,159.145 151.322,158.880 151.322 C 158.825 151.322,157.390 152.758,155.689 154.512 M173.929 154.239 C 173.294 155.041,172.856 155.697,172.956 155.697 C 173.056 155.697,173.658 155.041,174.294 154.239 C 174.929 153.437,175.367 152.780,175.266 152.780 C 175.166 152.780,174.564 153.437,173.929 154.239 M150.032 160.529 L 148.222 162.443 150.137 160.634 C 151.190 159.638,152.051 158.777,152.051 158.719 C 152.051 158.447,151.713 158.750,150.032 160.529 M204.004 165.998 L 200.365 169.736 204.102 166.096 C 206.158 164.094,207.840 162.413,207.840 162.359 C 207.840 162.095,207.384 162.527,204.004 165.998 M158.432 176.846 C 158.121 177.448,157.948 177.940,158.049 177.940 C 158.149 177.940,158.486 177.448,158.797 176.846 C 159.108 176.244,159.280 175.752,159.180 175.752 C 159.080 175.752,158.743 176.244,158.432 176.846 M200.182 180.675 C 199.681 180.961,199.435 181.196,199.635 181.196 C 199.836 181.196,200.410 180.961,200.912 180.675 C 201.413 180.388,201.659 180.153,201.459 180.153 C 201.258 180.153,200.684 180.388,200.182 180.675 M161.258 181.118 C 161.809 181.202,162.712 181.202,163.263 181.118 C 163.815 181.035,163.364 180.966,162.261 180.966 C 161.158 180.966,160.706 181.035,161.258 181.118 M171.277 181.120 C 171.924 181.201,173.073 181.202,173.830 181.123 C 174.586 181.044,174.057 180.978,172.653 180.977 C 171.249 180.975,170.630 181.039,171.277 181.120 M363.172 181.361 C 363.172 181.662,363.336 182.009,363.537 182.133 C 363.737 182.257,363.902 182.112,363.902 181.811 C 363.902 181.511,363.737 181.163,363.537 181.039 C 363.336 180.915,363.172 181.060,363.172 181.361 M192.981 183.421 C 191.760 183.911,191.988 184.161,193.254 183.719 C 193.856 183.510,194.348 183.272,194.348 183.191 C 194.348 182.975,193.904 183.049,192.981 183.421 M185.510 185.490 C 185.964 185.578,186.620 185.574,186.969 185.483 C 187.317 185.392,186.946 185.320,186.144 185.324 C 185.342 185.328,185.057 185.403,185.510 185.490 M21.248 189.608 C 21.248 190.510,21.319 190.880,21.406 190.428 C 21.493 189.977,21.493 189.239,21.406 188.788 C 21.319 188.336,21.248 188.706,21.248 189.608 M166.454 188.514 L 162.078 188.732 166.272 188.800 C 168.578 188.837,170.711 188.709,171.012 188.514 C 171.313 188.320,171.395 188.191,171.194 188.228 C 170.994 188.266,168.861 188.394,166.454 188.514 M156.518 189.144 C 157.270 189.223,158.500 189.223,159.253 189.144 C 160.005 189.066,159.389 189.001,157.885 189.001 C 156.381 189.001,155.766 189.066,156.518 189.144 M284.028 191.705 L 282.771 193.072 284.139 191.815 C 285.411 190.646,285.674 190.337,285.395 190.337 C 285.334 190.337,284.719 190.953,284.028 191.705 M281.296 194.804 L 279.854 196.354 281.404 194.912 C 282.845 193.572,283.121 193.254,282.845 193.254 C 282.786 193.254,282.088 193.952,281.296 194.804 M289.685 196.263 L 287.876 198.177 289.790 196.367 C 291.569 194.686,291.872 194.348,291.600 194.348 C 291.542 194.348,290.681 195.210,289.685 196.263 M62.474 197.630 C 62.474 199.134,62.539 199.749,62.617 198.997 C 62.696 198.245,62.696 197.015,62.617 196.263 C 62.539 195.510,62.474 196.126,62.474 197.630 M277.484 198.906 C 276.598 199.809,275.956 200.547,276.056 200.547 C 276.156 200.547,276.963 199.809,277.849 198.906 C 278.734 198.004,279.377 197.265,279.277 197.265 C 279.176 197.265,278.370 198.004,277.484 198.906 M283.312 203.008 L 279.490 206.928 283.409 203.106 C 285.565 201.004,287.329 199.240,287.329 199.186 C 287.329 198.923,286.862 199.367,283.312 203.008 M62.469 203.464 C 62.469 204.768,62.535 205.301,62.616 204.649 C 62.697 203.997,62.697 202.931,62.616 202.279 C 62.535 201.627,62.469 202.160,62.469 203.464 M21.271 206.381 C 21.271 207.885,21.336 208.500,21.414 207.748 C 21.493 206.996,21.493 205.766,21.414 205.014 C 21.336 204.262,21.271 204.877,21.271 206.381 M144.941 206.381 C 144.802 207.011,144.765 207.603,144.858 207.696 C 144.951 207.789,145.132 207.341,145.260 206.700 C 145.564 205.180,145.269 204.886,144.941 206.381 M118.574 207.310 C 117.475 209.571,117.598 209.888,118.729 207.713 C 119.235 206.741,119.587 205.883,119.510 205.806 C 119.434 205.730,119.013 206.407,118.574 207.310 M267.810 208.660 L 265.634 210.939 267.912 208.763 C 269.166 207.566,270.191 206.540,270.191 206.484 C 270.191 206.214,269.832 206.543,267.810 208.660 M272.189 214.129 L 268.915 217.502 272.288 214.228 C 274.143 212.427,275.661 210.910,275.661 210.855 C 275.661 210.591,275.230 210.997,272.189 214.129 M262.170 214.221 C 260.675 215.725,259.535 216.955,259.635 216.955 C 259.736 216.955,261.040 215.725,262.534 214.221 C 264.028 212.716,265.169 211.486,265.068 211.486 C 264.968 211.486,263.664 212.716,262.170 214.221 M142.994 213.188 C 142.962 213.823,142.841 214.644,142.725 215.011 C 142.527 215.641,142.539 215.643,142.930 215.033 C 143.158 214.678,143.279 213.857,143.198 213.210 L 143.052 212.033 142.994 213.188 M257.410 218.687 L 256.153 220.055 257.521 218.798 C 258.273 218.107,258.888 217.492,258.888 217.431 C 258.888 217.152,258.579 217.415,257.410 218.687 M357.787 218.414 C 357.787 219.116,357.862 219.403,357.954 219.052 C 358.046 218.701,358.046 218.127,357.954 217.776 C 357.862 217.425,357.787 217.712,357.787 218.414 M265.803 220.146 L 263.810 222.242 265.907 220.249 C 267.855 218.398,268.171 218.049,267.900 218.049 C 267.843 218.049,266.900 218.993,265.803 220.146 M141.339 219.340 C 141.214 219.665,141.126 220.206,141.143 220.540 C 141.161 220.875,141.319 220.665,141.496 220.073 C 141.840 218.922,141.718 218.353,141.339 219.340 M113.323 220.793 C 113.210 221.189,113.007 221.841,112.871 222.242 C 112.736 222.644,112.891 222.511,113.218 221.947 C 113.544 221.384,113.747 220.732,113.670 220.498 C 113.592 220.265,113.436 220.397,113.323 220.793 M248.659 225.980 L 247.402 227.347 248.769 226.091 C 250.042 224.921,250.304 224.613,250.026 224.613 C 249.965 224.613,249.350 225.228,248.659 225.980 M139.738 229.353 C 139.738 230.055,139.813 230.342,139.905 229.991 C 139.997 229.640,139.997 229.066,139.905 228.715 C 139.813 228.364,139.738 228.651,139.738 229.353 M139.440 237.192 C 139.440 240.802,139.495 242.230,139.561 240.364 C 139.627 238.499,139.627 235.546,139.560 233.801 C 139.493 232.056,139.439 233.582,139.440 237.192 M108.438 247.949 C 108.438 250.656,108.496 251.764,108.566 250.410 C 108.636 249.057,108.636 246.841,108.566 245.488 C 108.496 244.134,108.438 245.242,108.438 247.949 M140.946 249.499 C 141.083 249.950,141.344 250.479,141.528 250.675 C 141.711 250.871,141.677 250.502,141.451 249.855 C 140.989 248.530,140.563 248.229,140.946 249.499 M212.944 249.652 C 212.042 250.132,211.714 250.421,212.215 250.292 C 213.154 250.051,215.601 248.656,214.950 248.734 C 214.749 248.758,213.847 249.171,212.944 249.652 M145.852 257.612 C 146.533 258.314,147.171 258.888,147.272 258.888 C 147.372 258.888,146.897 258.314,146.217 257.612 C 145.537 256.910,144.898 256.335,144.798 256.335 C 144.697 256.335,145.172 256.910,145.852 257.612 M154.603 262.518 C 154.904 262.721,155.465 262.890,155.849 262.893 C 156.782 262.901,156.491 262.692,155.150 262.392 C 154.352 262.213,154.204 262.247,154.603 262.518 M178.669 262.534 C 177.936 262.769,177.901 262.828,178.487 262.837 C 178.888 262.843,179.544 262.707,179.945 262.534 C 180.874 262.135,179.916 262.135,178.669 262.534 M167.279 263.886 C 167.732 263.973,168.389 263.970,168.737 263.879 C 169.086 263.787,168.715 263.716,167.912 263.720 C 167.110 263.724,166.825 263.799,167.279 263.886 M115.770 268.733 C 116.758 269.736,117.648 270.556,117.748 270.556 C 117.849 270.556,117.123 269.736,116.135 268.733 C 115.147 267.730,114.257 266.910,114.157 266.910 C 114.057 266.910,114.783 267.730,115.770 268.733 M177.211 273.108 C 176.460 273.349,176.427 273.406,177.028 273.431 C 177.429 273.448,178.004 273.303,178.304 273.108 C 178.943 272.696,178.500 272.696,177.211 273.108 M165.998 275.912 C 166.349 276.004,166.923 276.004,167.274 275.912 C 167.625 275.821,167.338 275.745,166.636 275.745 C 165.934 275.745,165.647 275.821,165.998 275.912 M146.035 277.484 C 138.901 277.605,136.067 277.739,138.742 277.828 C 144.885 278.033,157.102 277.806,158.224 277.466 C 158.841 277.279,158.912 277.200,158.432 277.234 C 158.031 277.263,152.452 277.375,146.035 277.484 M311.395 300.273 C 309.901 301.778,308.760 303.008,308.861 303.008 C 308.961 303.008,310.265 301.778,311.759 300.273 C 313.253 298.769,314.394 297.539,314.294 297.539 C 314.193 297.539,312.889 298.769,311.395 300.273 M74.932 328.532 C 76.930 330.538,78.646 332.179,78.747 332.179 C 78.847 332.179,77.294 330.538,75.296 328.532 C 73.298 326.527,71.582 324.886,71.481 324.886 C 71.381 324.886,72.934 326.527,74.932 328.532 M321.044 341.386 L 319.234 343.300 321.149 341.490 C 322.201 340.495,323.063 339.634,323.063 339.576 C 323.063 339.304,322.725 339.607,321.044 341.386 M198.815 342.640 C 199.166 342.731,199.740 342.731,200.091 342.640 C 200.442 342.548,200.155 342.473,199.453 342.473 C 198.751 342.473,198.464 342.548,198.815 342.640 M209.754 342.640 C 210.105 342.731,210.679 342.731,211.030 342.640 C 211.381 342.548,211.094 342.473,210.392 342.473 C 209.690 342.473,209.403 342.548,209.754 342.640 M130.542 349.595 C 130.545 349.878,133.497 351.219,133.691 351.025 C 133.753 350.963,133.069 350.555,132.171 350.119 C 131.273 349.683,130.539 349.447,130.542 349.595 M243.756 361.974 C 243.355 362.070,242.876 362.292,242.693 362.466 C 242.509 362.640,243.002 362.607,243.787 362.392 C 245.903 361.814,245.877 361.464,243.756 361.974 M167.031 362.574 C 167.115 362.646,167.675 362.815,168.277 362.950 C 169.076 363.128,169.224 363.095,168.824 362.824 C 168.332 362.491,166.665 362.259,167.031 362.574 M210.119 366.341 C 210.469 366.432,211.044 366.432,211.395 366.341 C 211.746 366.249,211.459 366.174,210.757 366.174 C 210.055 366.174,209.768 366.249,210.119 366.341 M195.898 367.070 C 196.249 367.162,196.823 367.162,197.174 367.070 C 197.525 366.978,197.238 366.903,196.536 366.903 C 195.834 366.903,195.547 366.978,195.898 367.070 M214.859 382.384 C 215.210 382.476,215.784 382.476,216.135 382.384 C 216.486 382.293,216.199 382.218,215.497 382.218 C 214.795 382.218,214.508 382.293,214.859 382.384 " stroke="none" fill="#9b9b9b" fill-rule="evenodd"></path><path id="path4" d="M200.273 15.576 C 200.825 15.659,201.727 15.659,202.279 15.576 C 202.830 15.492,202.379 15.424,201.276 15.424 C 200.173 15.424,199.722 15.492,200.273 15.576 M203.920 15.566 C 204.271 15.658,204.845 15.658,205.196 15.566 C 205.547 15.474,205.260 15.399,204.558 15.399 C 203.856 15.399,203.569 15.474,203.920 15.566 M207.026 15.579 C 207.681 15.660,208.666 15.658,209.213 15.575 C 209.761 15.492,209.225 15.425,208.022 15.427 C 206.819 15.430,206.370 15.498,207.026 15.579 M226.253 45.214 C 226.655 45.387,227.475 45.528,228.077 45.528 C 229.009 45.528,229.063 45.481,228.441 45.214 C 228.040 45.042,227.220 44.901,226.618 44.901 C 225.685 44.901,225.632 44.947,226.253 45.214 M229.353 45.579 C 229.353 46.036,229.740 46.036,230.447 45.579 C 230.889 45.293,230.837 45.224,230.173 45.220 C 229.722 45.217,229.353 45.378,229.353 45.579 M79.293 64.995 L 77.484 66.910 79.398 65.100 C 81.177 63.419,81.480 63.081,81.208 63.081 C 81.150 63.081,80.289 63.943,79.293 64.995 M313.218 85.073 C 313.218 85.136,313.751 85.669,314.403 86.258 L 315.588 87.329 314.517 86.144 C 313.519 85.039,313.218 84.791,313.218 85.073 M314.312 89.881 C 316.209 91.787,317.843 93.345,317.944 93.345 C 318.044 93.345,316.574 91.787,314.676 89.881 C 312.779 87.976,311.145 86.418,311.044 86.418 C 310.944 86.418,312.414 87.976,314.312 89.881 M103.364 100.365 L 100.456 103.373 103.464 100.464 C 106.258 97.763,106.638 97.356,106.372 97.356 C 106.318 97.356,104.964 98.710,103.364 100.365 M21.268 193.437 C 21.270 194.840,21.336 195.370,21.415 194.614 C 21.494 193.857,21.492 192.708,21.412 192.061 C 21.331 191.414,21.267 192.033,21.268 193.437 M62.451 193.619 C 62.451 194.521,62.522 194.891,62.609 194.439 C 62.696 193.988,62.696 193.250,62.609 192.799 C 62.522 192.347,62.451 192.716,62.451 193.619 M21.241 202.552 C 21.245 203.355,21.319 203.640,21.406 203.186 C 21.494 202.733,21.490 202.076,21.399 201.728 C 21.308 201.379,21.236 201.750,21.241 202.552 M62.444 206.928 C 62.448 207.730,62.523 208.015,62.610 207.562 C 62.697 207.108,62.694 206.452,62.602 206.103 C 62.511 205.755,62.440 206.126,62.444 206.928 M357.787 216.226 C 357.787 216.928,357.862 217.215,357.954 216.864 C 358.046 216.513,358.046 215.939,357.954 215.588 C 357.862 215.237,357.787 215.524,357.787 216.226 M305.925 325.798 C 305.672 326.103,305.633 326.345,305.836 326.345 C 306.037 326.345,306.405 326.098,306.655 325.798 C 306.908 325.493,306.947 325.251,306.744 325.251 C 306.543 325.251,306.175 325.497,305.925 325.798 M196.627 342.640 C 196.978 342.731,197.552 342.731,197.903 342.640 C 198.254 342.548,197.967 342.473,197.265 342.473 C 196.563 342.473,196.276 342.548,196.627 342.640 M211.942 342.640 C 212.293 342.731,212.867 342.731,213.218 342.640 C 213.569 342.548,213.282 342.473,212.580 342.473 C 211.878 342.473,211.591 342.548,211.942 342.640 M280.715 343.124 L 279.854 343.859 280.857 343.430 C 281.408 343.194,281.860 342.863,281.860 342.694 C 281.860 342.239,281.665 342.313,280.715 343.124 M133.679 351.072 C 133.580 351.232,134.227 351.633,135.118 351.963 C 136.008 352.293,136.737 352.492,136.737 352.406 C 136.737 352.060,133.847 350.800,133.679 351.072 M257.247 358.104 C 252.995 359.472,252.912 359.505,253.161 359.755 C 253.375 359.968,261.440 357.407,261.440 357.126 C 261.440 356.836,260.515 357.052,257.247 358.104 M164.490 361.853 C 164.922 362.331,166.987 362.760,167.200 362.416 C 167.315 362.230,167.112 362.076,166.749 362.073 C 166.386 362.071,165.679 361.964,165.178 361.837 C 164.676 361.710,164.367 361.717,164.490 361.853 M192.252 365.976 C 192.603 366.068,193.177 366.068,193.528 365.976 C 193.879 365.884,193.592 365.809,192.890 365.809 C 192.188 365.809,191.901 365.884,192.252 365.976 M216.317 365.976 C 216.668 366.068,217.242 366.068,217.593 365.976 C 217.944 365.884,217.657 365.809,216.955 365.809 C 216.253 365.809,215.966 365.884,216.317 365.976 M201.749 366.361 C 203.312 366.429,205.773 366.429,207.218 366.360 C 208.663 366.291,207.384 366.235,204.376 366.235 C 201.367 366.236,200.185 366.292,201.749 366.361 M213.036 367.070 C 213.387 367.162,213.961 367.162,214.312 367.070 C 214.663 366.978,214.376 366.903,213.674 366.903 C 212.972 366.903,212.685 366.978,213.036 367.070 M198.455 382.395 C 199.010 382.479,199.830 382.476,200.278 382.390 C 200.727 382.303,200.273 382.235,199.271 382.237 C 198.268 382.240,197.901 382.311,198.455 382.395 M212.124 382.390 C 212.575 382.477,213.314 382.477,213.765 382.390 C 214.216 382.304,213.847 382.232,212.944 382.232 C 212.042 382.232,211.673 382.304,212.124 382.390 " stroke="none" fill="#747474" fill-rule="evenodd"></path></g></svg>